<?xml version="1.0" encoding="UTF-8" standalone="no"?>
<!-- Created with Inkscape (http://www.inkscape.org/) -->

<svg
   width="500mm"
   height="500mm"
   viewBox="0 0 500 500"
   version="1.1"
   id="svg1"
   xml:space="preserve"
   sodipodi:docname="bogar.svg"
   inkscape:version="1.3.2 (091e20e, 2023-11-25, custom)"
   xmlns:inkscape="http://www.inkscape.org/namespaces/inkscape"
   xmlns:sodipodi="http://sodipodi.sourceforge.net/DTD/sodipodi-0.dtd"
   xmlns="http://www.w3.org/2000/svg"
   xmlns:svg="http://www.w3.org/2000/svg"><sodipodi:namedview
     id="namedview1"
     pagecolor="#ffffff"
     bordercolor="#000000"
     borderopacity="0.25"
     inkscape:showpageshadow="2"
     inkscape:pageopacity="0.0"
     inkscape:pagecheckerboard="0"
     inkscape:deskcolor="#d1d1d1"
     inkscape:document-units="mm"
     inkscape:zoom="0.50772211"
     inkscape:cx="763.21277"
     inkscape:cy="759.27361"
     inkscape:window-width="1920"
     inkscape:window-height="991"
     inkscape:window-x="-9"
     inkscape:window-y="-9"
     inkscape:window-maximized="1"
     inkscape:current-layer="g18" /><defs
     id="defs1"><marker
       id="DistanceX"
       orient="auto"
       refX="0"
       refY="0"
       style="overflow:visible"><path
         d="M 3,-3 -3,3 M 0,-5 V 5"
         style="stroke:#000000;stroke-width:0.5"
         id="path1" /></marker><pattern
       id="Hatch"
       patternUnits="userSpaceOnUse"
       width="8"
       height="8"
       x="0"
       y="0"><path
         d="M8 4 l-4,4"
         stroke="#000000"
         stroke-width="0.25"
         linecap="square"
         id="path2" /><path
         d="M6 2 l-4,4"
         stroke="#000000"
         stroke-width="0.25"
         linecap="square"
         id="path3" /><path
         d="M4 0 l-4,4"
         stroke="#000000"
         stroke-width="0.25"
         linecap="square"
         id="path4" /></pattern><symbol
       id="*MODEL_SPACE" /><symbol
       id="*PAPER_SPACE" /></defs><g
     inkscape:label="Layer 1"
     inkscape:groupmode="layer"
     id="layer1"><g
       inkscape:label="0"
       id="g18"
       transform="matrix(0.26458333,0,0,0.26458333,0.98369083,-310.9428)"
       style="fill:none;stroke:#000000;stroke-width:0.0755906;stroke-dasharray:none;stroke-opacity:1"><path
         d="m 92.259659,1664.1953 h -37.79528 v 11.7166 h 37.77575 a 566.89591,566.89591 0 0 0 39.540981,203.1496 H 93.985829 v 11.7165 h 42.569891 a 566.89591,566.89591 0 0 0 145.06475,203.1496 H 243.8252 v 11.7165 h 51.34708 a 566.89591,566.89591 0 0 0 50.6207,37.7953 H 239.96621 a 606.20194,606.20194 0 0 1 0,-944.8819 h 105.82677 a 566.89591,566.89591 0 0 0 -48.35183,35.9055 h -51.48801 v 11.7166 h 37.79528 A 566.89591,566.89591 0 0 0 137.35455,1449.3292 H 94.735369 v 11.7165 h 37.795271 a 566.89591,566.89591 0 0 0 -40.270981,203.1496 z"
         style="fill:none;stroke:#000000;stroke-width:0.0755906;stroke-dasharray:none;stroke-opacity:1"
         id="path11" /><path
         d="m 1826.1318,1672.2086 h -37.7953 a 566.89591,566.89591 0 0 0 -40.271,-203.1496 h 37.7953 v -11.7165 h -42.6192 a 566.89591,566.89591 0 0 0 -146.3938,-203.1496 h 37.7952 v -11.7165 h -51.488 a 566.89591,566.89591 0 0 0 -48.3518,-35.9056 H 1640.63 a 606.20194,606.20194 0 0 1 0,944.8819 h -105.8268 a 566.89591,566.89591 0 0 0 50.6207,-37.7952 h 51.3471 v -11.7166 h -37.7953 a 566.89591,566.89591 0 0 0 145.0648,-203.1496 h 42.5698 v -11.7165 h -37.7952 a 566.89591,566.89591 0 0 0 39.5409,-203.1496 h 37.7758 z"
         style="fill:none;stroke:#000000;stroke-width:0.0755906;stroke-dasharray:none;stroke-opacity:1"
         id="path17" /><path
         d="m 1685.9335,1679.5327 h -37.7953 a 566.89591,566.89591 0 0 0 -40.271,-203.1497 h 37.7953 v -11.7165 h -42.6192 a 566.89591,566.89591 0 0 0 -146.3938,-203.1496 h 37.7952 v -11.7165 h -51.488 a 566.89591,566.89591 0 0 0 -48.3518,-35.9055 h 105.8268 a 606.20194,606.20194 0 0 1 0,944.8818 h -105.8268 a 566.89591,566.89591 0 0 0 50.6207,-37.7952 h 51.3471 v -11.7166 h -37.7953 a 566.89591,566.89591 0 0 0 145.0648,-203.1496 h 42.5698 v -11.7165 h -37.7952 a 566.89591,566.89591 0 0 0 39.5409,-203.1496 h 37.7758 z"
         style="fill:none;stroke:#000000;stroke-width:0.0755906;stroke-dasharray:none;stroke-opacity:1"
         id="path18" /></g></g></svg>
