0
SECTION
2
HEADER
9
$INSUNITS
70
4
9
$ACADVER
1
AC1014
9
$HANDSEED
5
FFFF
0
ENDSEC
0
SECTION
2
TABLES
0
TABLE
2
VPORT
5
8
100
AcDbSymbolTable
0
ENDTAB
0
TABLE
2
LTYPE
5
5
100
AcDbSymbolTable
0
LTYPE
5
14
100
AcDbSymbolTableRecord
100
AcDbLinetypeTableRecord
2
BYBLOCK
70
0
0
LTYPE
5
15
100
AcDbSymbolTableRecord
100
AcDbLinetypeTableRecord
2
BYLAYER
70
0
0
ENDTAB
0
TABLE
2
LAYER
5
2
100
AcDbSymbolTable
70
2
0
LAYER
5
50
100
AcDbSymbolTableRecord
100
AcDbLayerTableRecord
2
0
70
0
6
CONTINUOUS
0
ENDTAB
0
TABLE
2
STYLE
5
3
100
AcDbSymbolTable
70
1
0
STYLE
5
11
100
AcDbSymbolTableRecord
100
AcDbTextStyleTableRecord
2
STANDARD
70
0
0
ENDTAB
0
TABLE
2
VIEW
5
6
100
AcDbSymbolTable
70
0
0
ENDTAB
0
TABLE
2
UCS
5
7
100
AcDbSymbolTable
70
0
0
ENDTAB
0
TABLE
2
APPID
5
9
100
AcDbSymbolTable
70
2
0
APPID
5
12
100
AcDbSymbolTableRecord
100
AcDbRegAppTableRecord
2
ACAD
70
0
0
ENDTAB
0
TABLE
2
DIMSTYLE
5
A
100
AcDbSymbolTable
70
1
0
ENDTAB
0
TABLE
2
BLOCK_RECORD
5
1
100
AcDbSymbolTable
70
1
0
BLOCK_RECORD
5
1F
100
AcDbSymbolTableRecord
100
AcDbBlockTableRecord
2
*MODEL_SPACE
0
BLOCK_RECORD
5
1B
100
AcDbSymbolTableRecord
100
AcDbBlockTableRecord
2
*PAPER_SPACE
0
ENDTAB
0
ENDSEC
0
SECTION
2
BLOCKS
0
BLOCK
5
20
100
AcDbEntity
100
AcDbBlockBegin
2
*MODEL_SPACE
0
ENDBLK
5
21
100
AcDbEntity
100
AcDbBlockEnd
0
BLOCK
5
1C
100
AcDbEntity
100
AcDbBlockBegin
2
*PAPER_SPACE
0
ENDBLK
5
1D
100
AcDbEntity
100
AcDbBlockEnd
0
ENDSEC
0
SECTION
2
ENTITIES
0
LWPOLYLINE
5
100
100
AcDbEntity
8
0
100
AcDbPolyline
90
16
70
1
43
0.0
10
308.79917979003176
20
-210.35952217238471
10
308.79917979003176
20
-200.36070217238466
10
305.79917979003176
20
-200.36070217238466
10
305.79917979003181
20
-210.35952217238469
42
-0.4044822213121852
10
217.32230213368936
20
-121.88264451604238
10
227.32112213368939
20
-121.88264451604239
10
227.32112213368939
20
-118.88264451604238
10
217.32230213368936
20
-118.88264451604238
42
-0.40448222131218509
10
305.79917979003164
20
-30.40576685969997
10
305.79917979003164
20
-40.40458685969999
10
308.79917979003164
20
-40.404586859700004
10
308.79917979003164
20
-30.40576685969997
42
-0.4044822213121852
10
397.27605744637407
20
-118.88264451604229
10
387.2772374463741
20
-118.88264451604229
10
387.27723744637399
20
-121.88264451604228
10
397.27605744637412
20
-121.88264451604226
42
-0.40448222131218514
0
CIRCLE
5
101
100
AcDbEntity
8
0
100
AcDbCircle
10
307.2991797900317
20
-120.38264451604233
30
0
40
69.991740000000007
210
0
220
-0
230
1
0
LWPOLYLINE
5
102
100
AcDbEntity
8
0
100
AcDbPolyline
90
16
70
1
43
0.0
10
311.67337133939543
20
-171.95577954976505
10
311.67337133939543
20
-161.95695954976512
10
308.67337133939543
20
-161.95695954976509
10
308.67337133939549
20
-171.95577954976505
42
-0.39674252643040847
10
260.20177906128214
20
-123.48418727165162
10
270.20059906128216
20
-123.48418727165165
10
270.20059906128216
20
-120.48418727165165
10
260.20177906128214
20
-120.48418727165163
42
-0.39674252643040858
10
308.6733713393956
20
-72.012594993538329
10
308.67337133939554
20
-82.011414993538324
10
311.6733713393956
20
-82.011414993538324
10
311.6733713393956
20
-72.012594993538372
42
-0.39674252643040847
10
360.14496361750889
20
-120.48418727165179
10
350.14614361750893
20
-120.48418727165178
10
350.14614361750887
20
-123.48418727165176
10
360.14496361750889
20
-123.48418727165176
42
-0.39674252643040858
0
CIRCLE
5
103
100
AcDbEntity
8
0
100
AcDbCircle
10
310.17337133939554
20
-121.98418727165171
30
0
40
29.996460000000003
210
0
220
-0
230
1
0
LWPOLYLINE
5
104
100
AcDbEntity
8
0
100
AcDbPolyline
90
16
70
1
43
0.0
10
116.98979657726262
20
-204.71877479942339
10
116.98979657726262
20
-194.71995479942336
10
113.98979657726261
20
-194.71995479942336
10
113.98979657726261
20
-204.71877479942339
42
-0.40448222131218514
10
25.512918920920313
20
-116.24189714308096
10
35.511738920920315
20
-116.241897143081
10
35.511738920920337
20
-113.24189714308098
10
25.512918920920278
20
-113.24189714308096
42
-0.4044822213121852
10
113.98979657726278
20
-24.765019486738673
10
113.98979657726271
20
-34.763839486738675
10
116.98979657726271
20
-34.763839486738711
10
116.98979657726269
20
-24.765019486738673
42
-0.4044822213121852
10
205.46667423360503
20
-113.2418971430811
10
195.46785423360501
20
-113.24189714308106
10
195.46785423360501
20
-116.24189714308108
10
205.46667423360503
20
-116.24189714308108
42
-0.40448222131218514
0
CIRCLE
5
105
100
AcDbEntity
8
0
100
AcDbCircle
10
115.48979657726267
20
-114.74189714308103
30
0
40
69.991740000000007
210
0
220
-0
230
1
0
LWPOLYLINE
5
106
100
AcDbEntity
8
0
100
AcDbPolyline
90
24
70
1
43
0.0
10
40.826909372204852
20
-343.97361273521278
10
30.828089372204857
20
-343.97361273521278
10
30.828089372204875
20
-346.97361273521278
10
40.826909372204838
20
-346.97361273521278
42
0.092066517465307307
10
51.36441962764966
20
-400.71623773521281
10
41.365599627649658
20
-400.71623773521281
10
41.365599627649658
20
-403.71623773521287
10
52.590709580470367
20
-403.71623773521287
42
0.11151986544579692
10
91.036426099392088
20
-457.45886273521279
10
81.037606099392079
20
-457.45886273521279
10
81.037606099392093
20
-460.45886273521285
10
94.50976170201956
20
-460.45886273521285
42
0.027884277890582818
10
107.90298358847383
20
-470.45886273521273
10
79.906287588473987
20
-470.45886273521273
42
-0.47912742936935165
10
79.906287588473731
20
-220.48836273521275
10
107.9029835884738
20
-220.48836273521275
42
0.027884277890582572
10
94.509761702019475
20
-230.48836273521263
10
81.037606099392178
20
-230.4883627352126
10
81.037606099392178
20
-233.4883627352126
10
91.036426099392202
20
-233.4883627352126
42
0.11151986544579737
10
52.59070958047036
20
-287.23098773521275
10
41.365599627649665
20
-287.23098773521275
10
41.365599627649686
20
-290.23098773521275
10
51.364419627649639
20
-290.23098773521275
42
0.092066517465307376
0
LWPOLYLINE
5
107
100
AcDbEntity
8
0
100
AcDbPolyline
90
16
70
1
43
0.0
10
182.83892162005699
20
-446.0501517025628
10
182.83892162005699
20
-436.05133170256283
10
179.83892162005696
20
-436.05133170256283
10
179.83892162005696
20
-446.0501517025628
42
-0.40549591446947458
10
80.861976594663801
20
-347.07320667716954
10
90.860796594663782
20
-347.07320667716965
10
90.860796594663839
20
-344.07320667716965
10
80.861976594663844
20
-344.07320667716965
42
-0.40549591446947442
10
179.83892162005696
20
-245.0962616517765
10
179.83892162005696
20
-255.0950816517765
10
182.83892162005699
20
-255.0950816517765
10
182.83892162005696
20
-245.09626165177647
42
-0.40549591446947419
10
281.81586664545017
20
-344.07320667716959
10
271.81704664545015
20
-344.07320667716965
10
271.81704664545015
20
-347.07320667716965
10
281.81586664545011
20
-347.07320667716965
42
-0.40549591446947442
0
CIRCLE
5
108
100
AcDbEntity
8
0
100
AcDbCircle
10
181.33892162005696
20
-345.57320667716965
30
0
40
80.490500999999995
210
0
220
-0
230
1
0
LWPOLYLINE
5
109
100
AcDbEntity
8
0
100
AcDbPolyline
90
16
70
1
43
0.0
10
187.3308132127766
20
-398.0479349256521
10
187.33081321277652
20
-388.04911492565213
10
184.33081321277652
20
-388.04911492565213
10
184.3308132127766
20
-398.0479349256521
42
-0.39674252643040847
10
135.85922093466289
20
-349.57634264753904
10
145.85804093466288
20
-349.57634264753898
10
145.85804093466288
20
-346.57634264753904
10
135.85922093466283
20
-346.57634264753904
42
-0.39674252643040808
10
184.33081321277587
20
-298.10475036942535
10
184.33081321277598
20
-308.10357036942537
10
187.33081321277598
20
-308.10357036942537
10
187.33081321277587
20
-298.10475036942535
42
-0.39674252643040847
10
235.80240549088961
20
-346.57634264753835
10
225.80358549088965
20
-346.57634264753847
10
225.80358549088965
20
-349.57634264753841
10
235.8024054908897
20
-349.57634264753835
42
-0.39674252643040864
0
CIRCLE
5
110
100
AcDbEntity
8
0
100
AcDbCircle
10
185.83081321277626
20
-348.0763426475387
30
0
40
29.996460000000003
210
0
220
-0
230
1
0
LWPOLYLINE
5
111
100
AcDbEntity
8
0
100
AcDbPolyline
90
24
70
1
43
0.0
10
327.00498548637398
20
-352.88262913047924
10
317.00616548637402
20
-352.88262913047924
42
0.092066517465307307
10
306.46865523092919
20
-299.14000413047927
10
316.46747523092915
20
-299.14000413047921
10
316.46747523092921
20
-296.14000413047921
10
305.24236527810848
20
-296.14000413047927
42
0.1115198654457973
10
266.79664875918672
20
-242.39737913047915
10
276.79546875918675
20
-242.39737913047915
10
276.79546875918675
20
-239.39737913047912
10
263.32331315655944
20
-239.39737913047918
42
0.027884277890582572
10
249.93009127010521
20
-229.39737913047918
10
277.92678727010531
20
-229.39737913047907
42
-0.4791274293693516
10
277.9267872701048
20
-479.36787913047931
10
249.93009127010481
20
-479.3678791304792
42
0.027884277890582818
10
263.32331315655915
20
-469.36787913047931
10
276.79546875918663
20
-469.36787913047931
10
276.79546875918663
20
-466.36787913047925
10
266.79664875918661
20
-466.36787913047925
42
0.11151986544579692
10
305.24236527810837
20
-412.62525413047933
10
316.46747523092904
20
-412.62525413047933
10
316.46747523092904
20
-409.62525413047928
10
306.46865523092907
20
-409.62525413047928
42
0.092066517465307376
10
317.00616548637396
20
-355.88262913047924
10
327.00498548637393
20
-355.88262913047924
0
LWPOLYLINE
5
112
100
AcDbEntity
8
0
100
AcDbPolyline
90
24
70
1
43
0.0
10
384.40380326136699
20
-349.67073153701585
10
374.40498326136697
20
-349.67073153701585
42
0.092066517465307224
10
363.86747300592219
20
-295.92810653701582
10
373.86629300592222
20
-295.92810653701582
10
373.86629300592222
20
-292.92810653701582
10
362.64118305310149
20
-292.92810653701588
42
0.1115198654457973
10
324.19546653417973
20
-239.18548153701568
10
334.19428653417975
20
-239.18548153701573
10
334.19428653417975
20
-236.1854815370157
10
320.72213093155244
20
-236.18548153701573
42
0.027884277890582572
10
307.32890904509821
20
-226.18548153701573
10
335.32560504509831
20
-226.18548153701568
42
-0.47912742936935154
10
335.3256050450978
20
-476.1559815370158
10
307.32890904509782
20
-476.15598153701575
42
0.027884277890582572
10
320.72213093155204
20
-466.15598153701575
10
334.19428653417953
20
-466.1559815370158
10
334.19428653417958
20
-463.1559815370158
10
324.19546653417962
20
-463.1559815370158
42
0.11151986544579685
10
362.64118305310137
20
-409.41335653701594
10
373.86629300592205
20
-409.41335653701594
10
373.86629300592205
20
-406.41335653701589
10
363.86747300592208
20
-406.41335653701589
42
0.092066517465307224
10
374.40498326136691
20
-352.67073153701585
10
384.40380326136687
20
-352.67073153701585
0
LWPOLYLINE
5
113
100
AcDbEntity
8
0
100
AcDbPolyline
90
24
70
1
43
0.0
10
436.75873293943982
20
-351.61941704417615
10
426.7599129394398
20
-351.61941704417615
42
0.092066517465307224
10
416.22240268399491
20
-297.87679204417617
10
426.22122268399494
20
-297.87679204417611
10
426.22122268399494
20
-294.87679204417611
10
414.99611273117421
20
-294.87679204417617
42
0.11151986544579744
10
376.55039621225234
20
-241.13416704417608
10
386.54921621225242
20
-241.13416704417608
10
386.54921621225242
20
-238.13416704417608
10
373.07706060962511
20
-238.13416704417614
42
0.027884277890583068
10
359.68383872317082
20
-228.13416704417619
10
387.68053472317098
20
-228.13416704417605
42
-0.47912742936935138
10
387.68053472317087
20
-478.10466704417621
10
359.68383872317082
20
-478.10466704417621
42
0.027884277890583068
10
373.07706060962511
20
-468.10466704417621
10
386.54921621225253
20
-468.10466704417621
10
386.54921621225265
20
-465.10466704417615
10
376.55039621225262
20
-465.10466704417615
42
0.11151986544579692
10
414.99611273117432
20
-411.36204204417623
10
426.22122268399499
20
-411.36204204417623
10
426.22122268399499
20
-408.36204204417618
10
416.22240268399503
20
-408.36204204417618
42
0.092066517465307307
10
426.7599129394398
20
-354.6194170441762
10
436.75873293943982
20
-354.6194170441762
0
ENDSEC
0
SECTION
2
OBJECTS
0
DICTIONARY
5
C
100
AcDbDictionary
3
ACAD_GROUP
350
D
3
ACAD_MLINESTYLE
350
17
0
DICTIONARY
5
D
100
AcDbDictionary
0
DICTIONARY
5
1A
330
C
100
AcDbDictionary
0
DICTIONARY
5
17
100
AcDbDictionary
0
ENDSEC
0
EOF
