<?xml version="1.0" encoding="UTF-8" standalone="no"?>
<!-- Created with Inkscape (http://www.inkscape.org/) -->

<svg
   width="500mm"
   height="500mm"
   viewBox="0 0 500 500"
   version="1.1"
   id="svg1"
   xml:space="preserve"
   inkscape:version="1.3.2 (091e20e, 2023-11-25, custom)"
   sodipodi:docname="ljosakkorna prof.svg"
   xmlns:inkscape="http://www.inkscape.org/namespaces/inkscape"
   xmlns:sodipodi="http://sodipodi.sourceforge.net/DTD/sodipodi-0.dtd"
   xmlns="http://www.w3.org/2000/svg"
   xmlns:svg="http://www.w3.org/2000/svg"><sodipodi:namedview
     id="namedview1"
     pagecolor="#ffffff"
     bordercolor="#000000"
     borderopacity="0.25"
     inkscape:showpageshadow="2"
     inkscape:pageopacity="0.0"
     inkscape:pagecheckerboard="0"
     inkscape:deskcolor="#d1d1d1"
     inkscape:document-units="mm"
     inkscape:zoom="1.436055"
     inkscape:cx="1473.8294"
     inkscape:cy="262.17659"
     inkscape:window-width="1920"
     inkscape:window-height="991"
     inkscape:window-x="-9"
     inkscape:window-y="-9"
     inkscape:window-maximized="1"
     inkscape:current-layer="g18" /><defs
     id="defs1"><marker
       id="DistanceX"
       orient="auto"
       refX="0"
       refY="0"
       style="overflow:visible"><path
         d="M 3,-3 -3,3 M 0,-5 V 5"
         style="stroke:#000000;stroke-width:0.5"
         id="path1" /></marker><pattern
       id="Hatch"
       patternUnits="userSpaceOnUse"
       width="8"
       height="8"
       x="0"
       y="0"><path
         d="M8 4 l-4,4"
         stroke="#000000"
         stroke-width="0.25"
         linecap="square"
         id="path2" /><path
         d="M6 2 l-4,4"
         stroke="#000000"
         stroke-width="0.25"
         linecap="square"
         id="path3" /><path
         d="M4 0 l-4,4"
         stroke="#000000"
         stroke-width="0.25"
         linecap="square"
         id="path4" /></pattern><symbol
       id="*MODEL_SPACE" /><symbol
       id="*PAPER_SPACE" /></defs><g
     inkscape:label="Layer 1"
     inkscape:groupmode="layer"
     id="layer1"><g
       inkscape:label="0"
       id="g18"
       transform="matrix(0.26458333,0,0,0.26458333,0.98369083,-310.9428)"
       style="fill:none;stroke:#000000;stroke-width:0.0755906;stroke-dasharray:none;stroke-opacity:1"><path
         id="path11"
         style="fill:#ffffff;stroke:#000000;stroke-width:0.07559055;stroke-dasharray:none;stroke-opacity:1"
         d="m 1762.4121,1332.9124 a 606.20194,606.20194 0 0 0 -70.0449,67.5293 c 1.5272,0.7618 3.0593,1.513 4.6328,2.1738 5.0947,1.7975 10.5107,2.3417 15.8555,2.8476 5.8453,0.4945 11.7133,0.6468 17.5742,0.7715 5.1917,0.097 10.3837,0.1237 15.5762,0.1426 5.907,0.019 11.8177,0.02 17.7265,0.023 3.4225,0 1.7477,9e-4 5.0235,0 3.9454,0 6.7586,1.1458 8.4453,2.7754 a 566.89591,566.89591 0 0 1 28.9922,-28.6425 h -37.795 v -11.7168 h 51.4883 a 566.89591,566.89591 0 0 1 48.3496,-35.9043 z m -79.6484,78.3476 a 606.20194,606.20194 0 0 0 -0.037,0.049 c 0.1897,0.066 0.3763,0.1386 0.5664,0.2032 -0.1759,-0.085 -0.3532,-0.1673 -0.5293,-0.252 z" /><path
         id="path12"
         style="fill:none;stroke:#000000;stroke-width:0.07559055;stroke-dasharray:none;stroke-opacity:1"
         d="m 1772.7893,1210.4171 c -18.9463,0.3722 -37.8383,2.1617 -56.5175,5.3535 v 2.0703 21.457 22.3848 20.9199 c 0.1213,5.0353 -0.2021,10.0882 0.1093,15.1172 0.074,0.4094 0.098,0.8317 0.2227,1.2285 0.1168,0.3714 0.3939,0.2923 0.3183,-0.064 -0.064,-0.303 -0.6063,-0.7351 -0.3281,-0.8711 0.4988,-0.2438 1.0993,0.1577 1.6504,0.2246 1.7441,0.2117 3.4914,0.4072 5.2363,0.6113 17.1205,1.464 34.3061,1.9682 51.4766,2.4648 13.2697,0.3313 26.5448,0.5735 39.8184,0.4122 11.2167,-0.1873 22.428,-0.8094 33.5957,-1.8653 5.9391,-0.4239 7.44,-0.6484 9.584,-5.9453 2.404,-7.2761 2.3751,-15.0646 2.1699,-22.6426 -0.3088,-8.4675 -1.4222,-16.8955 -2.9766,-25.2187 -1.238,-6.642 -2.8679,-13.2111 -4.6504,-19.7266 -0.6611,-2.8061 -1.3704,-5.6008 -2.0683,-8.3984 -21.7135,-4.422 -43.7722,-6.9355 -65.9239,-7.5117 v 37.7968 h -11.7168 z"
         sodipodi:nodetypes="cccccccssssccccccccccccc" /></g></g></svg>
