<?xml version="1.0" encoding="UTF-8" standalone="no"?>
<!-- Created with Inkscape (http://www.inkscape.org/) -->

<svg
   width="500mm"
   height="500mm"
   viewBox="0 0 500 500"
   version="1.1"
   id="svg1"
   xml:space="preserve"
   sodipodi:docname="ljosakrona rett nuna.svg"
   inkscape:version="1.3.2 (091e20e, 2023-11-25, custom)"
   xmlns:inkscape="http://www.inkscape.org/namespaces/inkscape"
   xmlns:sodipodi="http://sodipodi.sourceforge.net/DTD/sodipodi-0.dtd"
   xmlns="http://www.w3.org/2000/svg"
   xmlns:svg="http://www.w3.org/2000/svg"><sodipodi:namedview
     id="namedview1"
     pagecolor="#ffffff"
     bordercolor="#000000"
     borderopacity="0.25"
     inkscape:showpageshadow="2"
     inkscape:pageopacity="0.0"
     inkscape:pagecheckerboard="0"
     inkscape:deskcolor="#d1d1d1"
     inkscape:document-units="mm"
     inkscape:zoom="0.50772211"
     inkscape:cx="763.21277"
     inkscape:cy="676.55119"
     inkscape:window-width="1920"
     inkscape:window-height="991"
     inkscape:window-x="-9"
     inkscape:window-y="-9"
     inkscape:window-maximized="1"
     inkscape:current-layer="g18" /><defs
     id="defs1"><marker
       id="DistanceX"
       orient="auto"
       refX="0"
       refY="0"
       style="overflow:visible"><path
         d="M 3,-3 -3,3 M 0,-5 V 5"
         style="stroke:#000000;stroke-width:0.5"
         id="path1" /></marker><pattern
       id="Hatch"
       patternUnits="userSpaceOnUse"
       width="8"
       height="8"
       x="0"
       y="0"><path
         d="M8 4 l-4,4"
         stroke="#000000"
         stroke-width="0.25"
         linecap="square"
         id="path2" /><path
         d="M6 2 l-4,4"
         stroke="#000000"
         stroke-width="0.25"
         linecap="square"
         id="path3" /><path
         d="M4 0 l-4,4"
         stroke="#000000"
         stroke-width="0.25"
         linecap="square"
         id="path4" /></pattern><symbol
       id="*MODEL_SPACE" /><symbol
       id="*PAPER_SPACE" /></defs><g
     inkscape:label="Layer 1"
     inkscape:groupmode="layer"
     id="layer1"><g
       inkscape:label="0"
       id="g18"
       transform="matrix(0.26458333,0,0,0.26458333,0.98369083,-310.9428)"
       style="fill:none;stroke:#000000;stroke-width:0.0755906;stroke-dasharray:none;stroke-opacity:1"><path
         d="m 1167.304,1917.6162 v -37.7952 h -11.7165 v 37.7952 A 340.15748,340.15748 0 0 1 821.33869,1583.3675 h 37.79527 v -11.7166 h -37.79527 a 340.15748,340.15748 0 0 1 334.24881,-334.2487 v 37.7953 h 11.7165 v -37.7953 a 340.15748,340.15748 0 0 1 334.2487,334.2487 h -37.7952 v 11.7166 h 37.7952 a 340.15748,340.15748 0 0 1 -334.2487,334.2487 z"
         style="fill:none;stroke:#000000;stroke-width:0.0755906;stroke-dasharray:none;stroke-opacity:1"
         id="path5" /><path
         d="m 1426.0126,1577.5092 a 264.56693,264.56693 0 0 0 -529.13381,0 264.56693,264.56693 0 0 0 529.13381,0 z"
         style="fill:none;stroke:#000000;stroke-width:0.0755906;stroke-dasharray:none;stroke-opacity:1"
         id="path6" /><path
         d="m 1178.1671,1772.4478 v -37.7952 h -11.7166 v 37.7952 A 188.97638,188.97638 0 0 1 983.42325,1589.4206 h 37.79525 v -11.7166 h -37.79525 a 188.97638,188.97638 0 0 1 183.02725,-183.0273 v 37.7953 h 11.7166 v -37.7953 a 188.97638,188.97638 0 0 1 183.0273,183.0273 h -37.7953 v 11.7166 h 37.7953 a 188.97638,188.97638 0 0 1 -183.0273,183.0272 z"
         style="fill:none;stroke:#000000;stroke-width:0.0755906;stroke-dasharray:none;stroke-opacity:1"
         id="path7" /><path
         d="m 1285.6946,1583.5623 a 113.38583,113.38583 0 0 0 -226.7716,0 113.38583,113.38583 0 0 0 226.7716,0 z"
         style="fill:none;stroke:#000000;stroke-width:0.0755906;stroke-dasharray:none;stroke-opacity:1"
         id="path8" /><path
         d="m 442.35514,1896.2969 v -37.7953 H 430.6386 v 37.7953 A 340.15748,340.15748 0 0 1 96.389839,1562.0481 h 37.795271 v -11.7165 H 96.389839 A 340.15748,340.15748 0 0 1 430.6386,1216.0828 v 37.7953 h 11.71654 v -37.7953 a 340.15748,340.15748 0 0 1 334.24876,334.2488 h -37.79528 v 11.7165 h 37.79528 a 340.15748,340.15748 0 0 1 -334.24876,334.2488 z"
         style="fill:none;stroke:#000000;stroke-width:0.0755906;stroke-dasharray:none;stroke-opacity:1"
         id="path9" /><path
         d="m 701.0638,1556.1898 a 264.56693,264.56693 0 0 0 -529.13386,0 264.56693,264.56693 0 0 0 529.13386,0 z"
         style="fill:none;stroke:#000000;stroke-width:0.0755906;stroke-dasharray:none;stroke-opacity:1"
         id="path10" /><path
         d="M 238.00868,2452.0278 H 200.2134 v 11.7166 h 37.77575 a 566.89591,566.89591 0 0 0 39.54098,203.1496 h -37.79528 v 11.7165 h 42.56989 a 566.89591,566.89591 0 0 0 145.06475,203.1496 h -37.79527 v 11.7165 h 51.34708 a 566.89591,566.89591 0 0 0 50.6207,37.7953 H 385.71523 a 606.20194,606.20194 0 0 1 0,-944.8819 H 491.542 a 566.89591,566.89591 0 0 0 -48.35183,35.9055 h -51.48801 v 11.7166 h 37.79528 a 566.89591,566.89591 0 0 0 -146.39387,203.1496 h -42.61918 v 11.7165 h 37.79527 a 566.89591,566.89591 0 0 0 -40.27098,203.1496 z"
         style="fill:none;stroke:#000000;stroke-width:0.0755906;stroke-dasharray:none;stroke-opacity:1"
         id="path11" /><path
         d="m 691.23372,2808.4205 v -37.7953 h -11.71654 v 37.7953 A 379.84252,379.84252 0 0 1 305.57811,2434.4814 h 37.79528 v -11.7165 h -37.79528 a 379.84252,379.84252 0 0 1 373.93907,-373.9391 v 37.7953 h 11.71654 v -37.7953 a 379.84252,379.84252 0 0 1 373.93908,373.9391 h -37.7953 v 11.7165 h 37.7953 a 379.84252,379.84252 0 0 1 -373.93908,373.9391 z"
         style="fill:none;stroke:#000000;stroke-width:0.0755906;stroke-dasharray:none;stroke-opacity:1"
         id="path12" /><path
         d="m 989.62742,2428.6231 a 304.25197,304.25197 0 0 0 -608.50394,0 304.25197,304.25197 0 0 0 608.50394,0 z"
         style="fill:none;stroke:#000000;stroke-width:0.0755906;stroke-dasharray:none;stroke-opacity:1"
         id="path13" /><path
         d="m 708.21095,2626.9694 v -37.7953 h -11.71654 v 37.7953 A 188.97638,188.97638 0 0 1 513.46713,2443.9421 h 37.79527 v -11.7166 h -37.79527 a 188.97638,188.97638 0 0 1 183.02728,-183.0272 v 37.7952 h 11.71654 v -37.7952 a 188.97638,188.97638 0 0 1 183.02728,183.0272 h -37.79527 v 11.7166 h 37.79527 a 188.97638,188.97638 0 0 1 -183.02728,183.0273 z"
         style="fill:none;stroke:#000000;stroke-width:0.0755906;stroke-dasharray:none;stroke-opacity:1"
         id="path14" /><path
         d="m 815.73851,2438.0838 a 113.38583,113.38583 0 0 0 -226.77166,0 113.38583,113.38583 0 0 0 226.77166,0 z"
         style="fill:none;stroke:#000000;stroke-width:0.0755906;stroke-dasharray:none;stroke-opacity:1"
         id="path15" /><path
         d="m 1143.3635,2432.521 h -37.7953 a 566.89591,566.89591 0 0 0 -40.271,-203.1496 h 37.7953 v -11.7165 h -42.6192 A 566.89591,566.89591 0 0 0 914.07938,2014.5052 h 37.7953 v -11.7165 h -51.48799 a 566.89591,566.89591 0 0 0 -48.35183,-35.9055 h 105.82682 a 606.20194,606.20194 0 0 1 0,944.8819 H 852.03486 a 566.89591,566.89591 0 0 0 50.6207,-37.7953 h 51.34712 v -11.7165 h -37.7953 a 566.89591,566.89591 0 0 0 145.06472,-203.1496 h 42.5699 v -11.7166 h -37.7952 a 566.89591,566.89591 0 0 0 39.5409,-203.1496 h 37.7758 z"
         style="fill:none;stroke:#000000;stroke-width:0.0755906;stroke-dasharray:none;stroke-opacity:1"
         id="path16" /><path
         d="m 1298.284,2430.4974 h -37.7953 a 566.89591,566.89591 0 0 0 -40.271,-203.1496 h 37.7953 v -11.7165 h -42.6192 A 566.89591,566.89591 0 0 0 1069,2012.4817 h 37.7952 v -11.7165 h -51.488 a 566.89591,566.89591 0 0 0 -48.3518,-35.9056 h 105.8268 a 606.20194,606.20194 0 0 1 0,944.8819 h -105.8268 a 566.89591,566.89591 0 0 0 50.6207,-37.7952 h 51.3471 v -11.7166 h -37.7953 a 566.89591,566.89591 0 0 0 145.0648,-203.1496 h 42.5698 v -11.7165 h -37.7952 a 566.89591,566.89591 0 0 0 39.5409,-203.1496 h 37.7758 z"
         style="fill:none;stroke:#000000;stroke-width:0.0755906;stroke-dasharray:none;stroke-opacity:1"
         id="path17" /><path
         d="m 1427.9184,2414.1866 h -37.7953 a 566.89591,566.89591 0 0 0 -40.271,-203.1497 h 37.7953 v -11.7165 h -42.6192 a 566.89591,566.89591 0 0 0 -146.3938,-203.1496 h 37.7952 v -11.7165 h -51.488 a 566.89591,566.89591 0 0 0 -48.3518,-35.9055 h 105.8268 a 606.20194,606.20194 0 0 1 0,944.8818 h -105.8268 a 566.89591,566.89591 0 0 0 50.6207,-37.7952 h 51.3471 v -11.7166 h -37.7953 a 566.89591,566.89591 0 0 0 145.0648,-203.1496 h 42.5698 v -11.7165 h -37.7952 a 566.89591,566.89591 0 0 0 39.5409,-203.1496 h 37.7758 z"
         style="fill:none;stroke:#000000;stroke-width:0.0755906;stroke-dasharray:none;stroke-opacity:1"
         id="path18" /></g></g></svg>
