0
SECTION
2
HEADER
9
$INSUNITS
70
4
9
$ACADVER
1
AC1014
9
$HANDSEED
5
FFFF
0
ENDSEC
0
SECTION
2
TABLES
0
TABLE
2
VPORT
5
8
100
AcDbSymbolTable
0
ENDTAB
0
TABLE
2
LTYPE
5
5
100
AcDbSymbolTable
0
LTYPE
5
14
100
AcDbSymbolTableRecord
100
AcDbLinetypeTableRecord
2
BYBLOCK
70
0
0
LTYPE
5
15
100
AcDbSymbolTableRecord
100
AcDbLinetypeTableRecord
2
BYLAYER
70
0
0
ENDTAB
0
TABLE
2
LAYER
5
2
100
AcDbSymbolTable
70
2
0
LAYER
5
50
100
AcDbSymbolTableRecord
100
AcDbLayerTableRecord
2
0
70
0
6
CONTINUOUS
0
ENDTAB
0
TABLE
2
STYLE
5
3
100
AcDbSymbolTable
70
1
0
STYLE
5
11
100
AcDbSymbolTableRecord
100
AcDbTextStyleTableRecord
2
STANDARD
70
0
0
ENDTAB
0
TABLE
2
VIEW
5
6
100
AcDbSymbolTable
70
0
0
ENDTAB
0
TABLE
2
UCS
5
7
100
AcDbSymbolTable
70
0
0
ENDTAB
0
TABLE
2
APPID
5
9
100
AcDbSymbolTable
70
2
0
APPID
5
12
100
AcDbSymbolTableRecord
100
AcDbRegAppTableRecord
2
ACAD
70
0
0
ENDTAB
0
TABLE
2
DIMSTYLE
5
A
100
AcDbSymbolTable
70
1
0
ENDTAB
0
TABLE
2
BLOCK_RECORD
5
1
100
AcDbSymbolTable
70
1
0
BLOCK_RECORD
5
1F
100
AcDbSymbolTableRecord
100
AcDbBlockTableRecord
2
*MODEL_SPACE
0
BLOCK_RECORD
5
1B
100
AcDbSymbolTableRecord
100
AcDbBlockTableRecord
2
*PAPER_SPACE
0
ENDTAB
0
ENDSEC
0
SECTION
2
BLOCKS
0
BLOCK
5
20
100
AcDbEntity
100
AcDbBlockBegin
2
*MODEL_SPACE
0
ENDBLK
5
21
100
AcDbEntity
100
AcDbBlockEnd
0
BLOCK
5
1C
100
AcDbEntity
100
AcDbBlockBegin
2
*PAPER_SPACE
0
ENDBLK
5
1D
100
AcDbEntity
100
AcDbBlockEnd
0
ENDSEC
0
SECTION
2
ENTITIES
0
LWPOLYLINE
5
100
100
AcDbEntity
8
0
100
AcDbPolyline
90
16
70
1
43
0.0
10
308.79917979003176
20
-210.3701436478662
10
308.79917979003176
20
-200.3701436478662
10
305.79917979003176
20
-200.37014364786617
10
305.79917979003176
20
-210.37014364786617
42
-0.40448336581909883
10
217.31168065820788
20
-121.88264451604233
10
227.31168065820785
20
-121.88264451604239
10
227.31168065820788
20
-118.88264451604236
10
217.31168065820782
20
-118.88264451604238
42
-0.40448336581909844
10
305.79917979003159
20
-30.39514538421848
10
305.79917979003164
20
-40.395145384218466
10
308.79917979003164
20
-40.395145384218509
10
308.79917979003164
20
-30.395145384218463
42
-0.40448336581909861
10
397.28667892185558
20
-118.88264451604223
10
387.28667892185558
20
-118.88264451604229
10
387.28667892185558
20
-121.88264451604229
10
397.28667892185564
20
-121.88264451604226
42
-0.40448336581909872
0
CIRCLE
5
101
100
AcDbEntity
8
0
100
AcDbCircle
10
307.2991797900317
20
-120.38264451604233
30
0
40
70
210
0
220
-0
230
1
0
LWPOLYLINE
5
102
100
AcDbEntity
8
0
100
AcDbPolyline
90
16
70
1
43
0.0
10
311.67337133939543
20
-171.9616822068723
10
311.67337133939543
20
-161.9616822068723
10
308.67337133939549
20
-161.9616822068723
10
308.67337133939543
20
-171.9616822068723
42
-0.39674457620252523
10
260.1958764041749
20
-123.48418727165162
10
270.19587640417495
20
-123.48418727165165
10
270.19587640417495
20
-120.48418727165165
10
260.1958764041749
20
-120.48418727165163
42
-0.39674457620252512
10
308.67337133939554
20
-72.006692336431115
10
308.67337133939554
20
-82.006692336431101
10
311.6733713393956
20
-82.006692336431115
10
311.6733713393956
20
-72.006692336431101
42
-0.39674457620252512
10
360.15086627461613
20
-120.48418727165178
10
350.15086627461613
20
-120.48418727165178
10
350.15086627461613
20
-123.48418727165176
10
360.15086627461613
20
-123.48418727165179
42
-0.39674457620252535
0
CIRCLE
5
103
100
AcDbEntity
8
0
100
AcDbCircle
10
310.17337133939554
20
-121.98418727165171
30
0
40
30
210
0
220
-0
230
1
0
LWPOLYLINE
5
104
100
AcDbEntity
8
0
100
AcDbPolyline
90
16
70
1
43
0.0
10
116.98979657726262
20
-204.7293962749049
10
116.98979657726262
20
-194.7293962749049
10
113.9897965772626
20
-194.72939627490487
10
113.9897965772626
20
-204.7293962749049
42
-0.40448336581909883
10
25.502297445438824
20
-116.24189714308093
10
35.502297445438785
20
-116.241897143081
10
35.502297445438835
20
-113.24189714308098
10
25.502297445438806
20
-113.24189714308098
42
-0.40448336581909861
10
113.98979657726271
20
-24.754398011257184
10
113.98979657726271
20
-34.754398011257152
10
116.98979657726271
20
-34.754398011257209
10
116.98979657726271
20
-24.754398011257184
42
-0.40448336581909861
10
205.47729570908649
20
-113.24189714308105
10
195.47729570908655
20
-113.24189714308106
10
195.47729570908649
20
-116.24189714308108
10
205.47729570908658
20
-116.24189714308108
42
-0.40448336581909872
0
CIRCLE
5
105
100
AcDbEntity
8
0
100
AcDbCircle
10
115.48979657726267
20
-114.74189714308103
30
0
40
70
210
0
220
-0
230
1
0
LWPOLYLINE
5
106
100
AcDbEntity
8
0
100
AcDbPolyline
90
24
70
1
43
0.0
10
40.822295690864209
20
-343.98836273521277
10
30.822295690864202
20
-343.98836273521277
10
30.82229569086422
20
-346.98836273521283
10
40.822295690864223
20
-346.98836273521283
42
0.092068361977805421
10
51.361390288368
20
-400.73836273521283
10
41.361390288368
20
-400.73836273521283
10
41.361390288367978
20
-403.73836273521283
10
52.587697335282527
20
-403.73836273521283
42
0.11152283918445345
10
91.039461887651086
20
-457.48836273521277
10
81.039461887651086
20
-457.48836273521277
10
81.039461887651086
20
-460.48836273521283
10
94.512894503011836
20
-460.48836273521283
42
0.027881211606569502
10
107.90628758847382
20
-470.48836273521283
10
79.906287588473987
20
-470.48836273521266
42
-0.47912742936935154
10
79.906287588473731
20
-220.48836273521275
10
107.90628758847382
20
-220.48836273521266
42
0.027881211606569752
10
94.512894503011822
20
-230.48836273521272
10
81.039461887651086
20
-230.4883627352126
10
81.039461887651086
20
-233.4883627352126
10
91.039461887651086
20
-233.48836273521258
42
0.11152283918445391
10
52.587697335282542
20
-287.23836273521283
10
41.361390288367915
20
-287.23836273521277
10
41.361390288367929
20
-290.23836273521277
10
51.361390288367943
20
-290.23836273521272
42
0.092068361977805491
0
LWPOLYLINE
5
107
100
AcDbEntity
8
0
100
AcDbPolyline
90
16
70
1
43
0.0
10
182.83892162005699
20
-446.062012023835
10
182.83892162005699
20
-436.062012023835
10
179.83892162005696
20
-436.06201202383488
10
179.83892162005696
20
-446.062012023835
42
-0.40549694009599319
10
80.850116273391635
20
-347.07320667716965
10
90.850116273391592
20
-347.07320667716965
10
90.850116273391734
20
-344.07320667716965
10
80.85011627339162
20
-344.07320667716976
42
-0.40549694009599307
10
179.83892162005691
20
-245.08440133050431
10
179.83892162005696
20
-255.08440133050428
10
182.83892162005696
20
-255.08440133050442
10
182.83892162005696
20
-245.08440133050428
42
-0.40549694009599302
10
281.82772696672231
20
-344.07320667716959
10
271.82772696672237
20
-344.07320667716965
10
271.8277269667222
20
-347.07320667716965
10
281.82772696672237
20
-347.07320667716965
42
-0.40549694009599319
0
CIRCLE
5
108
100
AcDbEntity
8
0
100
AcDbCircle
10
181.33892162005696
20
-345.57320667716965
30
0
40
80.499999999999986
210
0
220
-0
230
1
0
LWPOLYLINE
5
109
100
AcDbEntity
8
0
100
AcDbPolyline
90
16
70
1
43
0.0
10
187.3308132127766
20
-398.05383758275934
10
187.33081321277652
20
-388.05383758275934
10
184.33081321277652
20
-388.05383758275929
10
184.33081321277658
20
-398.05383758275934
42
-0.39674457620252529
10
135.85331827755567
20
-349.57634264753904
10
145.85331827755564
20
-349.57634264753898
10
145.85331827755564
20
-346.57634264753892
10
135.85331827755564
20
-346.57634264753904
42
-0.39674457620252462
10
184.33081321277584
20
-298.09884771231816
10
184.33081321277598
20
-308.0988477123181
10
187.33081321277598
20
-308.09884771231816
10
187.33081321277592
20
-298.09884771231805
42
-0.39674457620252523
10
235.80830814799683
20
-346.57634264753835
10
225.80830814799683
20
-346.57634264753847
10
225.80830814799683
20
-349.57634264753847
10
235.80830814799694
20
-349.57634264753835
42
-0.39674457620252546
0
CIRCLE
5
110
100
AcDbEntity
8
0
100
AcDbCircle
10
185.83081321277626
20
-348.0763426475387
30
0
40
30
210
0
220
-0
230
1
0
LWPOLYLINE
5
111
100
AcDbEntity
8
0
100
AcDbPolyline
90
24
70
1
43
0.0
10
327.01077916771459
20
-352.89737913047924
10
317.01077916771459
20
-352.89737913047924
42
0.092068361977805491
10
306.47168457021098
20
-299.14737913047924
10
316.47168457021093
20
-299.14737913047924
10
316.47168457021098
20
-296.14737913047924
10
305.24537752329633
20
-296.14737913047935
42
0.11152283918445377
10
266.79361297092788
20
-242.39737913047915
10
276.79361297092782
20
-242.39737913047915
10
276.79361297092782
20
-239.39737913047912
10
263.32018035556712
20
-239.39737913047921
42
0.027881211606569752
10
249.92678727010514
20
-229.39737913047912
10
277.92678727010531
20
-229.3973791304791
42
-0.4791274293693516
10
277.9267872701048
20
-479.39737913047929
10
249.92678727010482
20
-479.39737913047918
42
0.027881211606569502
10
263.32018035556683
20
-469.39737913047929
10
276.7936129709276
20
-469.39737913047929
10
276.7936129709276
20
-466.39737913047924
10
266.7936129709276
20
-466.39737913047924
42
0.11152283918445358
10
305.24537752329621
20
-412.64737913047929
10
316.47168457021075
20
-412.64737913047929
10
316.4716845702107
20
-409.64737913047929
10
306.47168457021075
20
-409.64737913047929
42
0.092068361977805643
10
317.01077916771459
20
-355.89737913047929
10
327.01077916771459
20
-355.89737913047929
0
LWPOLYLINE
5
112
100
AcDbEntity
8
0
100
AcDbPolyline
90
24
70
1
43
0.0
10
384.40959694270759
20
-349.68548153701585
10
374.40959694270759
20
-349.68548153701585
42
0.092068361977805421
10
363.87050234520393
20
-295.93548153701585
10
373.87050234520405
20
-295.93548153701585
10
373.87050234520405
20
-292.93548153701585
10
362.64419529828933
20
-292.9354815370159
42
0.11152283918445384
10
324.19243074592083
20
-239.18548153701568
10
334.19243074592089
20
-239.18548153701573
10
334.19243074592089
20
-236.1854815370157
10
320.71899813056012
20
-236.18548153701582
42
0.027881211606569502
10
307.3256050450982
20
-226.18548153701568
10
335.32560504509831
20
-226.18548153701568
42
-0.47912742936935149
10
335.3256050450978
20
-476.18548153701579
10
307.3256050450978
20
-476.18548153701573
42
0.027881211606569999
10
320.71899813055978
20
-466.18548153701573
10
334.19243074592055
20
-466.18548153701579
10
334.1924307459206
20
-463.18548153701579
10
324.1924307459206
20
-463.18548153701579
42
0.11152283918445345
10
362.64419529828911
20
-409.4354815370159
10
373.8705023452037
20
-409.4354815370159
10
373.8705023452037
20
-406.4354815370159
10
363.8705023452037
20
-406.4354815370159
42
0.092068361977805491
10
374.40959694270754
20
-352.6854815370159
10
384.40959694270754
20
-352.6854815370159
0
LWPOLYLINE
5
113
100
AcDbEntity
8
0
100
AcDbPolyline
90
24
70
1
43
0.0
10
436.76452662078043
20
-351.63416704417614
10
426.76452662078043
20
-351.63416704417614
42
0.092068361977805421
10
416.22543202327671
20
-297.88416704417619
10
426.22543202327671
20
-297.88416704417614
10
426.22543202327671
20
-294.88416704417614
10
414.99912497636211
20
-294.88416704417625
42
0.11152283918445396
10
376.5473604239935
20
-241.13416704417608
10
386.5473604239935
20
-241.13416704417608
10
386.5473604239935
20
-238.13416704417608
10
373.07392780863279
20
-238.13416704417619
42
0.027881211606569502
10
359.68053472317081
20
-228.13416704417619
10
387.68053472317098
20
-228.13416704417602
42
-0.47912742936935149
10
387.68053472317087
20
-478.13416704417619
10
359.68053472317087
20
-478.13416704417619
42
0.027881211606569502
10
373.07392780863279
20
-468.13416704417619
10
386.54736042399355
20
-468.13416704417619
10
386.54736042399355
20
-465.13416704417614
10
376.54736042399355
20
-465.13416704417614
42
0.11152283918445345
10
414.99912497636211
20
-411.38416704417625
10
426.22543202327671
20
-411.38416704417625
10
426.22543202327671
20
-408.38416704417619
10
416.22543202327671
20
-408.38416704417619
42
0.092068361977805491
10
426.76452662078043
20
-354.63416704417619
10
436.76452662078043
20
-354.63416704417619
0
ENDSEC
0
SECTION
2
OBJECTS
0
DICTIONARY
5
C
100
AcDbDictionary
3
ACAD_GROUP
350
D
3
ACAD_MLINESTYLE
350
17
0
DICTIONARY
5
D
100
AcDbDictionary
0
DICTIONARY
5
1A
330
C
100
AcDbDictionary
0
DICTIONARY
5
17
100
AcDbDictionary
0
ENDSEC
0
EOF
