0
SECTION
2
HEADER
9
$INSUNITS
70
4
9
$ACADVER
1
AC1014
9
$HANDSEED
5
FFFF
0
ENDSEC
0
SECTION
2
TABLES
0
TABLE
2
VPORT
5
8
100
AcDbSymbolTable
0
ENDTAB
0
TABLE
2
LTYPE
5
5
100
AcDbSymbolTable
0
LTYPE
5
14
100
AcDbSymbolTableRecord
100
AcDbLinetypeTableRecord
2
BYBLOCK
70
0
0
LTYPE
5
15
100
AcDbSymbolTableRecord
100
AcDbLinetypeTableRecord
2
BYLAYER
70
0
0
ENDTAB
0
TABLE
2
LAYER
5
2
100
AcDbSymbolTable
70
2
0
LAYER
5
50
100
AcDbSymbolTableRecord
100
AcDbLayerTableRecord
2
0
70
0
6
CONTINUOUS
0
ENDTAB
0
TABLE
2
STYLE
5
3
100
AcDbSymbolTable
70
1
0
STYLE
5
11
100
AcDbSymbolTableRecord
100
AcDbTextStyleTableRecord
2
STANDARD
70
0
0
ENDTAB
0
TABLE
2
VIEW
5
6
100
AcDbSymbolTable
70
0
0
ENDTAB
0
TABLE
2
UCS
5
7
100
AcDbSymbolTable
70
0
0
ENDTAB
0
TABLE
2
APPID
5
9
100
AcDbSymbolTable
70
2
0
APPID
5
12
100
AcDbSymbolTableRecord
100
AcDbRegAppTableRecord
2
ACAD
70
0
0
ENDTAB
0
TABLE
2
DIMSTYLE
5
A
100
AcDbSymbolTable
70
1
0
ENDTAB
0
TABLE
2
BLOCK_RECORD
5
1
100
AcDbSymbolTable
70
1
0
BLOCK_RECORD
5
1F
100
AcDbSymbolTableRecord
100
AcDbBlockTableRecord
2
*MODEL_SPACE
0
BLOCK_RECORD
5
1B
100
AcDbSymbolTableRecord
100
AcDbBlockTableRecord
2
*PAPER_SPACE
0
ENDTAB
0
ENDSEC
0
SECTION
2
BLOCKS
0
BLOCK
5
20
100
AcDbEntity
100
AcDbBlockBegin
2
*MODEL_SPACE
0
ENDBLK
5
21
100
AcDbEntity
100
AcDbBlockEnd
0
BLOCK
5
1C
100
AcDbEntity
100
AcDbBlockBegin
2
*PAPER_SPACE
0
ENDBLK
5
1D
100
AcDbEntity
100
AcDbBlockEnd
0
ENDSEC
0
SECTION
2
ENTITIES
0
LWPOLYLINE
5
100
100
AcDbEntity
8
0
100
AcDbPolyline
90
16
70
1
43
0.0
10
308.79917979003176
20
-210.37014364786702
10
308.79917979003176
20
-200.37014364786702
10
305.79917979003176
20
-200.37014364786702
10
305.79917979003176
20
-210.37014364786617
42
-0.40448336581909894
10
217.31168065820788
20
-121.88264451604233
10
227.311680658207
20
-121.88264451604238
10
227.31168065820702
20
-118.88264451604238
10
217.31168065820785
20
-118.88264451604242
42
-0.40448336581909855
10
305.79917979003159
20
-30.39514538421848
10
305.79917979003164
20
-40.395145384217642
10
308.79917979003164
20
-40.395145384217628
10
308.79917979003164
20
-30.395145384218463
42
-0.40448336581909866
10
397.28667892185558
20
-118.88264451604223
10
387.28667892185638
20
-118.88264451604229
10
387.28667892185638
20
-121.88264451604228
10
397.28667892185638
20
-121.88264451604226
42
-0.40448336581909883
0
CIRCLE
5
101
100
AcDbEntity
8
0
100
AcDbCircle
10
307.2991797900317
20
-120.38264451604233
30
0
40
70
210
0
220
-0
230
1
0
LWPOLYLINE
5
102
100
AcDbEntity
8
0
100
AcDbPolyline
90
16
70
1
43
0.0
10
311.67337133939543
20
-171.96168220688631
10
311.67337133939543
20
-161.96168220688631
10
308.67337133939543
20
-161.96168220688631
10
308.67337133939589
20
-171.96168220687235
42
-0.39674457620253001
10
260.1958764041749
20
-123.48418727165122
10
270.19587640416097
20
-123.48418727165165
10
270.19587640416097
20
-120.48418727165165
10
260.1958764041749
20
-120.48418727165205
42
-0.39674457620253023
10
308.67337133939606
20
-72.006692336431101
10
308.67337133939554
20
-82.006692336417117
10
311.6733713393956
20
-82.006692336417117
10
311.6733713393952
20
-72.006692336431101
42
-0.39674457620253017
10
360.15086627461613
20
-120.48418727165222
10
350.15086627463012
20
-120.48418727165178
10
350.15086627463012
20
-123.48418727165176
10
360.15086627463012
20
-123.48418727165179
42
-0.39674457620253023
0
CIRCLE
5
103
100
AcDbEntity
8
0
100
AcDbCircle
10
310.17337133939554
20
-121.98418727165171
30
0
40
30
210
0
220
-0
230
1
0
LWPOLYLINE
5
104
100
AcDbEntity
8
0
100
AcDbPolyline
90
16
70
1
43
0.0
10
116.98979657726262
20
-204.72939627490575
10
116.98979657726262
20
-194.72939627490572
10
113.98979657726261
20
-194.72939627490572
10
113.98979657726264
20
-204.7293962749049
42
-0.40448336581909888
10
25.502297445438824
20
-116.24189714308093
10
35.502297445437968
20
-116.24189714308099
10
35.502297445437961
20
-113.24189714308098
10
25.502297445438806
20
-113.24189714308099
42
-0.40448336581909866
10
113.98979657726271
20
-24.754398011257184
10
113.98979657726271
20
-34.754398011256328
10
116.98979657726271
20
-34.754398011256328
10
116.98979657726268
20
-24.754398011257184
42
-0.40448336581909872
10
205.47729570908649
20
-113.24189714308105
10
195.47729570908734
20
-113.24189714308106
10
195.47729570908734
20
-116.24189714308108
10
205.47729570908743
20
-116.24189714308108
42
-0.40448336581909883
0
CIRCLE
5
105
100
AcDbEntity
8
0
100
AcDbCircle
10
115.48979657726267
20
-114.74189714308103
30
0
40
70
210
0
220
-0
230
1
0
LWPOLYLINE
5
106
100
AcDbEntity
8
0
100
AcDbPolyline
90
24
70
1
43
0.0
10
40.822295690864195
20
-343.98836273521277
10
30.822295690864195
20
-343.98836273521277
10
30.822295690864195
20
-346.98836273521283
10
40.822295690864188
20
-346.98836273521283
42
0.092068361977805338
10
51.361390288368
20
-400.73836273521283
10
41.361390288368
20
-400.73836273521283
10
41.361390288368
20
-403.73836273521283
10
52.587697335282542
20
-403.73836273521283
42
0.11152283918445338
10
91.039461887651072
20
-457.48836273521277
10
81.039461887651086
20
-457.48836273521277
10
81.039461887651072
20
-460.48836273521283
10
94.512894503011893
20
-460.48836273521283
42
0.027881211606569253
10
107.90628758847383
20
-470.48836273521283
10
79.906287588473987
20
-470.48836273521266
42
-0.47912742936935154
10
79.906287588473731
20
-220.48836273521275
10
107.90628758847377
20
-220.48836273521272
42
0.027881211606569502
10
94.512894503011694
20
-230.48836273521275
10
81.039461887650958
20
-230.48836273521266
10
81.039461887650958
20
-233.48836273521269
10
91.039461887650944
20
-233.48836273521266
42
0.11152283918445352
10
52.587697335282542
20
-287.23836273521277
10
41.361390288367943
20
-287.23836273521277
10
41.361390288367957
20
-290.23836273521277
10
51.361390288367957
20
-290.23836273521272
42
0.092068361977805491
0
LWPOLYLINE
5
107
100
AcDbEntity
8
0
100
AcDbPolyline
90
16
70
1
43
0.0
10
182.83892162005699
20
-446.06201202383602
10
182.83892162005699
20
-436.06201202383602
10
179.83892162005696
20
-436.06201202383602
10
179.83892162005699
20
-446.062012023835
42
-0.4054969400959933
10
80.850116273391635
20
-347.07320667716965
10
90.85011627339064
20
-347.07320667716965
10
90.85011627339064
20
-344.07320667716965
10
80.850116273391635
20
-344.07320667716976
42
-0.40549694009599335
10
179.83892162005699
20
-245.08440133050431
10
179.83892162005696
20
-255.08440133050334
10
182.83892162005699
20
-255.08440133050331
10
182.83892162005691
20
-245.08440133050428
42
-0.40549694009599313
10
281.82772696672231
20
-344.07320667716959
10
271.82772696672328
20
-344.07320667716965
10
271.82772696672328
20
-347.07320667716971
10
281.82772696672333
20
-347.07320667716965
42
-0.4054969400959933
0
CIRCLE
5
108
100
AcDbEntity
8
0
100
AcDbCircle
10
181.33892162005696
20
-345.57320667716965
30
0
40
80.499999999999986
210
0
220
-0
230
1
0
LWPOLYLINE
5
109
100
AcDbEntity
8
0
100
AcDbPolyline
90
16
70
1
43
0.0
10
187.3308132127766
20
-398.05383758277333
10
187.33081321277652
20
-388.05383758277333
10
184.33081321277652
20
-388.05383758277333
10
184.330813212777
20
-398.05383758275934
42
-0.39674457620253017
10
135.85331827755564
20
-349.57634264753864
10
145.85331827754169
20
-349.57634264753898
10
145.85331827754166
20
-346.57634264753892
10
135.85331827755562
20
-346.57634264753943
42
-0.3967445762025299
10
184.33081321277632
20
-298.0988477123181
10
184.33081321277598
20
-308.09884771230418
10
187.33081321277598
20
-308.09884771230418
10
187.3308132127755
20
-298.09884771231805
42
-0.39674457620253017
10
235.80830814799685
20
-346.57634264753881
10
225.80830814801084
20
-346.57634264753847
10
225.80830814801084
20
-349.57634264753847
10
235.80830814801084
20
-349.57634264753835
42
-0.39674457620253034
0
CIRCLE
5
110
100
AcDbEntity
8
0
100
AcDbCircle
10
185.83081321277626
20
-348.0763426475387
30
0
40
30
210
0
220
-0
230
1
0
LWPOLYLINE
5
111
100
AcDbEntity
8
0
100
AcDbPolyline
90
24
70
1
43
0.0
10
327.01077916771459
20
-352.89737913047924
10
317.01077916771465
20
-352.89737913047924
42
0.092068361977805338
10
306.47168457021093
20
-299.14737913047924
10
316.47168457021087
20
-299.14737913047924
10
316.47168457021093
20
-296.14737913047924
10
305.24537752329638
20
-296.14737913047929
42
0.11152283918445345
10
266.79361297092794
20
-242.39737913047921
10
276.79361297092794
20
-242.39737913047921
10
276.79361297092794
20
-239.39737913047921
10
263.32018035556723
20
-239.39737913047929
42
0.027881211606569253
10
249.92678727010519
20
-229.39737913047912
10
277.92678727010531
20
-229.39737913047907
42
-0.47912742936935154
10
277.9267872701048
20
-479.39737913047929
10
249.92678727010485
20
-479.39737913047918
42
0.027881211606569253
10
263.32018035556678
20
-469.39737913047929
10
276.7936129709276
20
-469.39737913047929
10
276.7936129709276
20
-466.39737913047924
10
266.7936129709276
20
-466.39737913047924
42
0.11152283918445331
10
305.24537752329616
20
-412.64737913047929
10
316.47168457021075
20
-412.64737913047929
10
316.47168457021075
20
-409.64737913047929
10
306.47168457021075
20
-409.64737913047929
42
0.092068361977805491
10
317.01077916771459
20
-355.89737913047929
10
327.01077916771459
20
-355.89737913047929
0
LWPOLYLINE
5
112
100
AcDbEntity
8
0
100
AcDbPolyline
90
24
70
1
43
0.0
10
384.40959694270759
20
-349.68548153701585
10
374.40959694270759
20
-349.68548153701585
42
0.092068361977805338
10
363.87050234520393
20
-295.93548153701585
10
373.87050234520387
20
-295.93548153701585
10
373.87050234520387
20
-292.93548153701585
10
362.64419529828933
20
-292.93548153701585
42
0.11152283918445352
10
324.19243074592094
20
-239.18548153701576
10
334.19243074592094
20
-239.18548153701579
10
334.19243074592094
20
-236.18548153701579
10
320.71899813056018
20
-236.18548153701582
42
0.027881211606569752
10
307.32560504509826
20
-226.18548153701573
10
335.32560504509831
20
-226.18548153701568
42
-0.47912742936935149
10
335.3256050450978
20
-476.18548153701579
10
307.32560504509786
20
-476.18548153701573
42
0.027881211606569502
10
320.71899813055978
20
-466.18548153701573
10
334.1924307459206
20
-466.18548153701579
10
334.1924307459206
20
-463.18548153701579
10
324.1924307459206
20
-463.18548153701579
42
0.11152283918445324
10
362.64419529828911
20
-409.4354815370159
10
373.8705023452037
20
-409.4354815370159
10
373.8705023452037
20
-406.4354815370159
10
363.8705023452037
20
-406.4354815370159
42
0.092068361977805491
10
374.40959694270759
20
-352.6854815370159
10
384.40959694270759
20
-352.6854815370159
0
LWPOLYLINE
5
113
100
AcDbEntity
8
0
100
AcDbPolyline
90
24
70
1
43
0.0
10
436.76452662078043
20
-351.63416704417614
10
426.76452662078049
20
-351.63416704417614
42
0.092068361977805255
10
416.22543202327671
20
-297.88416704417619
10
426.22543202327671
20
-297.88416704417614
10
426.22543202327671
20
-294.88416704417614
10
414.99912497636211
20
-294.88416704417619
42
0.11152283918445345
10
376.54736042399361
20
-241.13416704417617
10
386.54736042399361
20
-241.13416704417617
10
386.54736042399361
20
-238.13416704417617
10
373.0739278086329
20
-238.13416704417619
42
0.027881211606569253
10
359.68053472317087
20
-228.13416704417619
10
387.68053472317098
20
-228.13416704417602
42
-0.47912742936935149
10
387.68053472317087
20
-478.13416704417619
10
359.68053472317087
20
-478.13416704417619
42
0.027881211606569003
10
373.07392780863279
20
-468.13416704417619
10
386.54736042399361
20
-468.13416704417619
10
386.54736042399361
20
-465.13416704417614
10
376.54736042399361
20
-465.13416704417614
42
0.11152283918445331
10
414.99912497636211
20
-411.38416704417625
10
426.22543202327665
20
-411.38416704417625
10
426.22543202327665
20
-408.38416704417619
10
416.22543202327665
20
-408.38416704417619
42
0.092068361977805574
10
426.76452662078043
20
-354.63416704417619
10
436.76452662078043
20
-354.63416704417619
0
ENDSEC
0
SECTION
2
OBJECTS
0
DICTIONARY
5
C
100
AcDbDictionary
3
ACAD_GROUP
350
D
3
ACAD_MLINESTYLE
350
17
0
DICTIONARY
5
D
100
AcDbDictionary
0
DICTIONARY
5
1A
330
C
100
AcDbDictionary
0
DICTIONARY
5
17
100
AcDbDictionary
0
ENDSEC
0
EOF
