<?xml version="1.0" encoding="UTF-8" standalone="no"?>
<!-- Created with Inkscape (http://www.inkscape.org/) -->

<svg
   width="500mm"
   height="500mm"
   viewBox="0 0 500 500"
   version="1.1"
   id="svg1"
   xml:space="preserve"
   inkscape:version="1.3.2 (091e20e, 2023-11-25, custom)"
   sodipodi:docname="Ljósakróna Siggi.svg"
   xmlns:inkscape="http://www.inkscape.org/namespaces/inkscape"
   xmlns:sodipodi="http://sodipodi.sourceforge.net/DTD/sodipodi-0.dtd"
   xmlns="http://www.w3.org/2000/svg"
   xmlns:svg="http://www.w3.org/2000/svg"><sodipodi:namedview
     id="namedview1"
     pagecolor="#ffffff"
     bordercolor="#000000"
     borderopacity="0.25"
     inkscape:showpageshadow="2"
     inkscape:pageopacity="0.0"
     inkscape:pagecheckerboard="0"
     inkscape:deskcolor="#d1d1d1"
     inkscape:document-units="mm"
     showguides="true"
     inkscape:zoom="0.34609638"
     inkscape:cx="1067.6217"
     inkscape:cy="1090.7366"
     inkscape:window-width="1450"
     inkscape:window-height="981"
     inkscape:window-x="525"
     inkscape:window-y="16"
     inkscape:window-maximized="0"
     inkscape:current-layer="layer1" /><defs
     id="defs1"><marker
       id="DistanceX"
       orient="auto"
       refX="0.0"
       refY="0.0"
       style="overflow:visible"><path
         d="M 3,-3 L -3,3 M 0,-5 L  0,5"
         style="stroke:#000000; stroke-width:0.5"
         id="path1" /></marker><pattern
       id="Hatch"
       patternUnits="userSpaceOnUse"
       width="8"
       height="8"
       x="0"
       y="0"><path
         d="M8 4 l-4,4"
         stroke="#000000"
         stroke-width="0.25"
         linecap="square"
         id="path2" /><path
         d="M6 2 l-4,4"
         stroke="#000000"
         stroke-width="0.25"
         linecap="square"
         id="path3" /><path
         d="M4 0 l-4,4"
         stroke="#000000"
         stroke-width="0.25"
         linecap="square"
         id="path4" /></pattern><symbol
       id="*MODEL_SPACE" /><symbol
       id="*PAPER_SPACE" /></defs><g
     inkscape:label="Layer 1"
     inkscape:groupmode="layer"
     id="layer1"><path
       d="m 334.15281,202.22849 v -9.99882 h -3 v 9.99882 a 89.989378,89.989378 0 0 1 -88.47687,-88.47688 h 9.99882 v -3.00001 h -9.99882 a 89.989378,89.989378 0 0 1 88.47687,-88.476868 v 9.998815 h 3 v -9.998815 a 89.989378,89.989378 0 0 1 88.47688,88.476868 h -9.99882 v 3.00001 h 9.99882 a 89.989378,89.989378 0 0 1 -88.47688,88.47688 z"
       style="fill:#ffffff;stroke:#000000;stroke-width:0.264583"
       id="path5" /><path
       d="m 402.64455,112.25161 a 69.991739,69.991739 0 0 0 -139.98347,0 69.991739,69.991739 0 0 0 139.98347,0 z"
       style="fill:#ffffff;stroke:#000000;stroke-width:0.264583"
       id="path6" /><path
       d="m 337.02701,163.82475 v -9.99882 H 334.027 v 9.99882 a 49.9941,49.9941 0 0 1 -48.47159,-48.47159 h 9.99882 v -3.00001 h -9.99882 A 49.9941,49.9941 0 0 1 334.027,63.881572 v 9.998815 h 3.00001 v -9.998815 a 49.9941,49.9941 0 0 1 48.47158,48.471578 h -9.99881 v 3.00001 h 9.99881 a 49.9941,49.9941 0 0 1 -48.47158,48.47159 z"
       style="fill:#ffffff;stroke:#000000;stroke-width:0.264583"
       id="path7" /><path
       d="m 365.52348,113.85316 a 29.99646,29.99646 0 0 0 -59.99292,0 29.99646,29.99646 0 0 0 59.99292,0 z"
       style="fill:#ffffff;stroke:#000000;stroke-width:0.264583"
       id="path8" /><path
       d="m 142.34343,196.58773 v -9.99882 h -3 v 9.99882 A 89.989378,89.989378 0 0 1 50.866554,108.11085 h 9.998821 v -2.99998 H 50.866554 A 89.989378,89.989378 0 0 1 139.34343,16.634 v 9.998816 h 3 V 16.634 a 89.989378,89.989378 0 0 1 88.47688,88.47687 h -9.99882 v 2.99998 h 9.99882 a 89.989378,89.989378 0 0 1 -88.47688,88.47688 z"
       style="fill:#ffffff;stroke:#000000;stroke-width:0.264583"
       id="path9" /><path
       d="m 210.83517,106.61085 a 69.991739,69.991739 0 0 0 -139.983479,0 69.991739,69.991739 0 0 0 139.983479,0 z"
       style="fill:#ffffff;stroke:#000000;stroke-width:0.264583"
       id="path10" /><path
       d="m 84.55986,336.92371 h -9.998821 v 3 h 9.998821 a 149.97351,149.97351 0 0 0 10.53751,53.74262 h -9.998821 v 3 h 11.225112 a 149.97351,149.97351 0 0 0 38.445719,53.74264 h -9.99882 v 2.99998 h 13.47216 a 149.97351,149.97351 0 0 0 13.39322,10.00001 h -27.9967 a 160.372,160.372 0 0 1 0,-249.9705 h 27.9967 a 149.97351,149.97351 0 0 0 -13.39322,10.00001 h -13.47216 v 3 h 9.99882 A 149.97351,149.97351 0 0 0 96.323661,280.18109 H 85.098549 v 3 h 9.998821 a 149.97351,149.97351 0 0 0 -10.53751,53.74262 z"
       style="fill:#ffffff;stroke:#000000;stroke-width:0.264583"
       id="path11" /><path
       d="m 208.19256,437.91911 v -9.99882 h -3 v 9.99882 a 100.48814,100.48814 0 0 1 -98.97695,-98.97695 h 9.99882 v -2.99998 h -9.99882 a 100.48814,100.48814 0 0 1 98.97695,-98.97694 v 9.99881 h 3 v -9.99881 a 100.48814,100.48814 0 0 1 98.97693,98.97694 h -9.99881 v 2.99998 h 9.99881 a 100.48814,100.48814 0 0 1 -98.97693,98.97695 z"
       style="fill:#ffffff;stroke:#000000;stroke-width:0.264583"
       id="path12" /><path
       d="m 287.18306,337.44216 a 80.490501,80.490501 0 0 0 -160.981,0 80.490501,80.490501 0 0 0 160.981,0 z"
       style="fill:#ffffff;stroke:#000000;stroke-width:0.264583"
       id="path13" /><path
       d="m 212.68445,389.91689 v -9.99882 h -3 v 9.99882 A 49.9941,49.9941 0 0 1 161.21286,341.4453 h 9.99882 v -3 h -9.99882 a 49.9941,49.9941 0 0 1 48.47159,-48.47159 v 9.99882 h 3 v -9.99882 a 49.9941,49.9941 0 0 1 48.47159,48.47159 h -9.99882 v 3 h 9.99882 a 49.9941,49.9941 0 0 1 -48.47159,48.47159 z"
       style="fill:#ffffff;stroke:#000000;stroke-width:0.264583"
       id="path14" /><path
       d="m 241.18091,339.9453 a 29.99646,29.99646 0 0 0 -59.99292,0 29.99646,29.99646 0 0 0 59.99292,0 z"
       style="fill:#ffffff;stroke:#000000;stroke-width:0.264583"
       id="path15" /><path
       d="m 329.65477,336.1025 h -9.99884 a 149.97351,149.97351 0 0 0 -10.53751,-53.74262 h 9.99882 v -3 h -11.22511 a 149.97351,149.97351 0 0 0 -38.4457,-53.74262 h 9.99881 v -3 h -13.47215 a 149.97351,149.97351 0 0 0 -13.39322,-10.00001 h 27.9967 a 160.372,160.372 0 0 1 0,249.9705 h -27.9967 a 149.97351,149.97351 0 0 0 13.39322,-10.00001 h 13.47215 v -3 h -9.99881 a 149.97351,149.97351 0 0 0 38.4457,-53.74262 h 11.22511 v -3 h -9.99882 a 149.97351,149.97351 0 0 0 10.53751,-53.74262 h 9.99884 z"
       style="fill:#ffffff;stroke:#000000;stroke-width:0.264583"
       id="path16" /><path
       d="m 369.7554,336.13403 h -9.99881 a 149.97351,149.97351 0 0 0 -10.53753,-53.74265 h 9.99884 v -3 h -11.22514 a 149.97351,149.97351 0 0 0 -38.4457,-53.74262 h 9.99882 v -3 h -13.47216 a 149.97351,149.97351 0 0 0 -13.39321,-10.00001 h 27.9967 a 160.372,160.372 0 0 1 0,249.9705 h -27.9967 a 149.97351,149.97351 0 0 0 13.39321,-9.99998 h 13.47216 v -3 h -9.99882 a 149.97351,149.97351 0 0 0 38.4457,-53.74265 h 11.22514 v -2.99997 h -9.99884 A 149.97351,149.97351 0 0 0 359.75659,339.134 h 9.99881 z"
       style="fill:#ffffff;stroke:#000000;stroke-width:0.264583"
       id="path17" /><path
       d="m 409.1367,334.8393 h -9.99881 a 149.97351,149.97351 0 0 0 -10.53754,-53.74264 h 9.99885 v -3.00001 h -11.22514 a 149.97351,149.97351 0 0 0 -38.4457,-53.74261 h 9.99882 v -3.00001 h -13.47216 a 149.97351,149.97351 0 0 0 -13.39321,-9.99998 h 27.9967 a 160.372,160.372 0 0 1 0,249.9705 h -27.9967 a 149.97351,149.97351 0 0 0 13.39321,-10.00001 h 13.47216 v -3 h -9.99882 a 149.97351,149.97351 0 0 0 38.4457,-53.74262 h 11.22514 v -3 h -9.99885 a 149.97351,149.97351 0 0 0 10.53754,-53.74264 h 9.99881 z"
       style="fill:#ffffff;stroke:#000000;stroke-width:0.264583"
       id="path18" /></g></svg>
