0
SECTION
2
HEADER
9
$INSUNITS
70
4
9
$ACADVER
1
AC1014
9
$HANDSEED
5
FFFF
0
ENDSEC
0
SECTION
2
TABLES
0
TABLE
2
VPORT
5
8
100
AcDbSymbolTable
0
ENDTAB
0
TABLE
2
LTYPE
5
5
100
AcDbSymbolTable
0
LTYPE
5
14
100
AcDbSymbolTableRecord
100
AcDbLinetypeTableRecord
2
BYBLOCK
70
0
0
LTYPE
5
15
100
AcDbSymbolTableRecord
100
AcDbLinetypeTableRecord
2
BYLAYER
70
0
0
ENDTAB
0
TABLE
2
LAYER
5
2
100
AcDbSymbolTable
70
2
0
LAYER
5
50
100
AcDbSymbolTableRecord
100
AcDbLayerTableRecord
2
0
70
0
6
CONTINUOUS
0
ENDTAB
0
TABLE
2
STYLE
5
3
100
AcDbSymbolTable
70
1
0
STYLE
5
11
100
AcDbSymbolTableRecord
100
AcDbTextStyleTableRecord
2
STANDARD
70
0
0
ENDTAB
0
TABLE
2
VIEW
5
6
100
AcDbSymbolTable
70
0
0
ENDTAB
0
TABLE
2
UCS
5
7
100
AcDbSymbolTable
70
0
0
ENDTAB
0
TABLE
2
APPID
5
9
100
AcDbSymbolTable
70
2
0
APPID
5
12
100
AcDbSymbolTableRecord
100
AcDbRegAppTableRecord
2
ACAD
70
0
0
ENDTAB
0
TABLE
2
DIMSTYLE
5
A
100
AcDbSymbolTable
70
1
0
ENDTAB
0
TABLE
2
BLOCK_RECORD
5
1
100
AcDbSymbolTable
70
1
0
BLOCK_RECORD
5
1F
100
AcDbSymbolTableRecord
100
AcDbBlockTableRecord
2
*MODEL_SPACE
0
BLOCK_RECORD
5
1B
100
AcDbSymbolTableRecord
100
AcDbBlockTableRecord
2
*PAPER_SPACE
0
ENDTAB
0
ENDSEC
0
SECTION
2
BLOCKS
0
BLOCK
5
20
100
AcDbEntity
100
AcDbBlockBegin
2
*MODEL_SPACE
0
ENDBLK
5
21
100
AcDbEntity
100
AcDbBlockEnd
0
BLOCK
5
1C
100
AcDbEntity
100
AcDbBlockBegin
2
*PAPER_SPACE
0
ENDBLK
5
1D
100
AcDbEntity
100
AcDbBlockEnd
0
ENDSEC
0
SECTION
2
ENTITIES
0
LWPOLYLINE
5
100
100
AcDbEntity
8
0
100
AcDbPolyline
90
16
70
1
43
0.0
10
308.84917979003177
20
-210.36929630396031
10
308.84917979003177
20
-200.36929630396031
10
305.74917979003175
20
-200.36929630396028
10
305.7491797900318
20
-210.36929630396031
42
-0.40416013160895886
10
217.31252800211377
20
-121.93264451604236
10
227.31252800211377
20
-121.93264451604237
10
227.31252800211377
20
-118.83264451604236
10
217.31252800211371
20
-118.83264451604239
42
-0.40416013160895853
10
305.74917979003158
20
-30.395992728124366
10
305.74917979003163
20
-40.395992728124369
10
308.84917979003166
20
-40.395992728124376
10
308.8491797900316
20
-30.39599272812433
42
-0.40416013160895869
10
397.28583157794969
20
-118.83264451604222
10
387.28583157794964
20
-118.83264451604228
10
387.28583157794964
20
-121.93264451604229
10
397.28583157794969
20
-121.93264451604229
42
-0.40416013160895875
0
CIRCLE
5
101
100
AcDbEntity
8
0
100
AcDbCircle
10
307.2991797900317
20
-120.38264451604233
30
0
40
70
210
0
220
-0
230
1
0
LWPOLYLINE
5
102
100
AcDbEntity
8
0
100
AcDbPolyline
90
16
70
1
43
0.0
10
311.72337133939544
20
-171.96015649687035
10
311.72337133939544
20
-161.96015649687035
10
308.62337133939542
20
-161.96015649687035
10
308.62337133939548
20
-171.96015649687035
42
-0.39616571852619437
10
260.1974021141769
20
-123.53418727165163
10
270.1974021141769
20
-123.53418727165165
10
270.1974021141769
20
-120.43418727165164
10
260.1974021141769
20
-120.43418727165162
42
-0.39616571852619403
10
308.62337133939553
20
-72.008218046433086
10
308.62337133939559
20
-82.008218046433058
10
311.72337133939561
20
-82.008218046433086
10
311.72337133939556
20
-72.0082180464331
42
-0.3961657185261942
10
360.14934056461414
20
-120.43418727165175
10
350.14934056461414
20
-120.43418727165177
10
350.14934056461414
20
-123.53418727165177
10
360.14934056461414
20
-123.53418727165177
42
-0.39616571852619437
0
CIRCLE
5
103
100
AcDbEntity
8
0
100
AcDbCircle
10
310.17337133939554
20
-121.98418727165171
30
0
40
30
210
0
220
-0
230
1
0
LWPOLYLINE
5
104
100
AcDbEntity
8
0
100
AcDbPolyline
90
16
70
1
43
0.0
10
117.03979657726262
20
-204.72854893099901
10
117.03979657726262
20
-194.72854893099901
10
113.93979657726261
20
-194.72854893099901
10
113.9397965772626
20
-204.72854893099901
42
-0.40416013160895875
10
25.503144789344709
20
-116.29189714308096
10
35.503144789344688
20
-116.29189714308099
10
35.503144789344717
20
-113.19189714308098
10
25.503144789344709
20
-113.19189714308098
42
-0.40416013160895864
10
113.93979657726268
20
-24.755245355163069
10
113.9397965772627
20
-34.755245355163048
10
117.03979657726271
20
-34.755245355163076
10
117.03979657726271
20
-24.755245355163069
42
-0.40416013160895869
10
205.47644836518063
20
-113.19189714308104
10
195.47644836518063
20
-113.19189714308106
10
195.4764483651806
20
-116.29189714308106
10
205.47644836518063
20
-116.2918971430811
42
-0.40416013160895875
0
CIRCLE
5
105
100
AcDbEntity
8
0
100
AcDbCircle
10
115.48979657726267
20
-114.74189714308103
30
0
40
70
210
0
220
-0
230
1
0
LWPOLYLINE
5
106
100
AcDbEntity
8
0
100
AcDbPolyline
90
24
70
1
43
0.0
10
40.825596085596402
20
-343.68836273521282
10
30.825596085596395
20
-343.68836273521282
10
30.825596085596377
20
-346.78836273521284
10
40.820428833073578
20
-346.78836273521284
42
0.092043053123340213
10
51.282313205484925
20
-400.53836273521284
10
41.282313205484925
20
-400.53836273521284
10
41.282313205484904
20
-403.63836273521281
10
52.545596445552448
20
-403.63836273521281
42
0.1114523756279298
10
90.927312955901996
20
-457.38836273521287
10
80.927312955901996
20
-457.38836273521287
10
80.927312955901996
20
-460.48836273521283
10
94.512894503011836
20
-460.48836273521283
42
0.027881211606569502
10
107.90628758847382
20
-470.48836273521283
10
79.906287588473987
20
-470.48836273521266
42
-0.47912742936935154
10
79.906287588473731
20
-220.48836273521275
10
107.90628758847382
20
-220.48836273521266
42
0.026578070023365184
10
95.113198948658365
20
-229.98836273521283
10
81.490330883650657
20
-229.98836273521272
10
81.490330883650657
20
-233.08836273521274
10
91.490330883650614
20
-233.08836273521274
42
0.11180701172125303
10
52.756953667067954
20
-286.83836273521291
10
41.480628373079263
20
-286.8383627352128
10
41.48062837307927
20
-289.93836273521276
10
51.480628373079242
20
-289.93836273521276
42
0.092106702526746742
0
LWPOLYLINE
5
107
100
AcDbEntity
8
0
100
AcDbPolyline
90
16
70
1
43
0.0
10
182.88892162005695
20
-446.06125322998111
10
182.88892162005695
20
-436.06125322998111
10
179.78892162005695
20
-436.06125322998088
10
179.78892162005693
20
-446.06125322998111
42
-0.40520727730646094
10
80.850875067245539
20
-347.12320667716961
10
90.850875067245511
20
-347.12320667716966
10
90.850875067245653
20
-344.02320667716964
10
80.850875067245511
20
-344.0232066771697
42
-0.40520727730646072
10
179.78892162005693
20
-245.0851601243582
10
179.78892162005695
20
-255.0851601243582
10
182.88892162005698
20
-255.08516012435834
10
182.88892162005695
20
-245.0851601243582
42
-0.40520727730646072
10
281.82696817286842
20
-344.02320667716958
10
271.82696817286842
20
-344.02320667716964
10
271.82696817286831
20
-347.12320667716966
10
281.82696817286842
20
-347.12320667716961
42
-0.40520727730646094
0
CIRCLE
5
108
100
AcDbEntity
8
0
100
AcDbCircle
10
181.33892162005696
20
-345.57320667716965
30
0
40
80.499999999999986
210
0
220
-0
230
1
0
LWPOLYLINE
5
109
100
AcDbEntity
8
0
100
AcDbPolyline
90
16
70
1
43
0.0
10
187.38081321277659
20
-398.0523118727574
10
187.3808132127765
20
-388.0523118727574
10
184.28081321277654
20
-388.0523118727574
10
184.28081321277659
20
-398.0523118727574
42
-0.39616571852619425
10
135.85484398755762
20
-349.6263426475391
10
145.85484398755762
20
-349.62634264753899
10
145.85484398755762
20
-346.52634264753897
10
135.85484398755756
20
-346.52634264753897
42
-0.39616571852619348
10
184.2808132127758
20
-298.1003734223201
10
184.280813212776
20
-308.1003734223201
10
187.38081321277599
20
-308.1003734223201
10
187.38081321277591
20
-298.10037342232005
42
-0.39616571852619431
10
235.80678243799491
20
-346.52634264753834
10
225.80678243799491
20
-346.5263426475384
10
225.80678243799491
20
-349.62634264753842
10
235.80678243799491
20
-349.62634264753831
42
-0.39616571852619453
0
CIRCLE
5
110
100
AcDbEntity
8
0
100
AcDbCircle
10
185.83081321277626
20
-348.0763426475387
30
0
40
30
210
0
220
-0
230
1
0
LWPOLYLINE
5
111
100
AcDbEntity
8
0
100
AcDbPolyline
90
24
70
1
43
0.0
10
327.00747877298238
20
-352.59737913047928
10
317.00747877298238
20
-352.59737913047928
42
0.09210670252674652
10
306.35244648549963
20
-298.84737913047934
10
316.35244648549957
20
-298.84737913047923
10
316.35244648549963
20
-295.74737913047926
10
305.07612119151094
20
-295.74737913047943
42
0.11180701172125289
10
266.34274397492828
20
-241.99737913047926
10
276.34274397492828
20
-241.99737913047926
10
276.34274397492828
20
-238.89737913047924
10
262.71987590992057
20
-238.89737913047938
42
0.02657807002336466
10
249.92678727010514
20
-229.39737913047912
10
277.92678727010531
20
-229.3973791304791
42
-0.4791274293693516
10
277.9267872701048
20
-479.39737913047929
10
249.92678727010482
20
-479.39737913047918
42
0.027881211606569502
10
263.32018035556683
20
-469.39737913047929
10
276.90576190267666
20
-469.39737913047929
10
276.90576190267666
20
-466.29737913047933
10
266.90576190267666
20
-466.29737913047933
42
0.11145237562792994
10
305.28747841302629
20
-412.54737913047927
10
316.55076165309379
20
-412.54737913047927
10
316.55076165309379
20
-409.44737913047931
10
306.55076165309379
20
-409.44737913047931
42
0.092043053123340129
10
317.01264602550521
20
-355.69737913047931
10
327.00747877298238
20
-355.69737913047931
0
LWPOLYLINE
5
112
100
AcDbEntity
8
0
100
AcDbPolyline
90
24
70
1
43
0.0
10
384.40629654797544
20
-349.38548153701589
10
374.40629654797544
20
-349.38548153701589
42
0.092106702526746673
10
363.75126426049258
20
-295.63548153701589
10
373.75126426049263
20
-295.63548153701583
10
373.75126426049263
20
-292.53548153701587
10
362.47493896650388
20
-292.53548153701604
42
0.11180701172125296
10
323.74156174992129
20
-238.78548153701581
10
333.74156174992129
20
-238.78548153701584
10
333.74156174992129
20
-235.68548153701585
10
320.11869368491352
20
-235.6854815370159
42
0.026578070023364923
10
307.3256050450982
20
-226.18548153701568
10
335.32560504509831
20
-226.18548153701568
42
-0.47912742936935149
10
335.3256050450978
20
-476.18548153701579
10
307.3256050450978
20
-476.18548153701573
42
0.027881211606569999
10
320.71899813055978
20
-466.18548153701573
10
334.30457967766961
20
-466.18548153701579
10
334.30457967766961
20
-463.08548153701588
10
324.30457967766961
20
-463.08548153701588
42
0.1114523756279298
10
362.68629618801924
20
-409.33548153701588
10
373.94957942808679
20
-409.33548153701588
10
373.94957942808679
20
-406.23548153701591
10
363.94957942808679
20
-406.23548153701591
42
0.092043053123340213
10
374.41146380049821
20
-352.48548153701591
10
384.40629654797544
20
-352.48548153701591
0
LWPOLYLINE
5
113
100
AcDbEntity
8
0
100
AcDbPolyline
90
24
70
1
43
0.0
10
436.76122622604828
20
-351.33416704417618
10
426.76122622604828
20
-351.33416704417618
42
0.092106702526746589
10
416.1061939385653
20
-297.58416704417624
10
426.1061939385653
20
-297.58416704417618
10
426.1061939385653
20
-294.48416704417616
10
414.82986864457666
20
-294.48416704417633
42
0.11180701172125276
10
376.0964914279939
20
-240.73416704417622
10
386.0964914279939
20
-240.73416704417622
10
386.0964914279939
20
-237.63416704417622
10
372.47362336298613
20
-237.63416704417634
42
0.026578070023364399
10
359.68053472317081
20
-228.13416704417619
10
387.68053472317098
20
-228.13416704417602
42
-0.47912742936935149
10
387.68053472317087
20
-478.13416704417619
10
359.68053472317087
20
-478.13416704417619
42
0.027881211606569502
10
373.07392780863279
20
-468.13416704417619
10
386.65950935574267
20
-468.13416704417619
10
386.65950935574267
20
-465.03416704417623
10
376.65950935574267
20
-465.03416704417623
42
0.1114523756279298
10
415.04122586609219
20
-411.28416704417617
10
426.3045091061598
20
-411.28416704417617
10
426.30450910615968
20
-408.18416704417621
10
416.30450910615968
20
-408.18416704417621
42
0.092043053123340213
10
426.76639347857105
20
-354.43416704417621
10
436.76122622604828
20
-354.43416704417621
0
ENDSEC
0
SECTION
2
OBJECTS
0
DICTIONARY
5
C
100
AcDbDictionary
3
ACAD_GROUP
350
D
3
ACAD_MLINESTYLE
350
17
0
DICTIONARY
5
D
100
AcDbDictionary
0
DICTIONARY
5
1A
330
C
100
AcDbDictionary
0
DICTIONARY
5
17
100
AcDbDictionary
0
ENDSEC
0
EOF
