<?xml version="1.0" encoding="UTF-8" standalone="no"?>
<!-- Created with Inkscape (http://www.inkscape.org/) -->

<svg
   width="210mm"
   height="297mm"
   viewBox="0 0 210 297"
   version="1.1"
   id="svg1"
   xml:space="preserve"
   inkscape:version="1.3.2 (091e20e, 2023-11-25, custom)"
   sodipodi:docname="pressfit prófun.svg"
   xmlns:inkscape="http://www.inkscape.org/namespaces/inkscape"
   xmlns:sodipodi="http://sodipodi.sourceforge.net/DTD/sodipodi-0.dtd"
   xmlns="http://www.w3.org/2000/svg"
   xmlns:svg="http://www.w3.org/2000/svg"><sodipodi:namedview
     id="namedview1"
     pagecolor="#ffffff"
     bordercolor="#000000"
     borderopacity="0.25"
     inkscape:showpageshadow="2"
     inkscape:pageopacity="0.0"
     inkscape:pagecheckerboard="0"
     inkscape:deskcolor="#d1d1d1"
     inkscape:document-units="mm"
     inkscape:zoom="0.67615741"
     inkscape:cx="577.52824"
     inkscape:cy="425.19685"
     inkscape:window-width="1920"
     inkscape:window-height="991"
     inkscape:window-x="-9"
     inkscape:window-y="-9"
     inkscape:window-maximized="1"
     inkscape:current-layer="g18" /><defs
     id="defs1"><marker
       id="DistanceX"
       orient="auto"
       refX="0.0"
       refY="0.0"
       style="overflow:visible"><path
         d="M 3,-3 L -3,3 M 0,-5 L  0,5"
         style="stroke:#000000; stroke-width:0.5"
         id="path1" /></marker><pattern
       id="Hatch"
       patternUnits="userSpaceOnUse"
       width="8"
       height="8"
       x="0"
       y="0"><path
         d="M8 4 l-4,4"
         stroke="#000000"
         stroke-width="0.25"
         linecap="square"
         id="path2" /><path
         d="M6 2 l-4,4"
         stroke="#000000"
         stroke-width="0.25"
         linecap="square"
         id="path3" /><path
         d="M4 0 l-4,4"
         stroke="#000000"
         stroke-width="0.25"
         linecap="square"
         id="path4" /></pattern><symbol
       id="*MODEL_SPACE" /><symbol
       id="*PAPER_SPACE" /></defs><g
     inkscape:label="Layer 1"
     inkscape:groupmode="layer"
     id="layer1"><g
       inkscape:label="0"
       id="g18"
       transform="matrix(0.26458333,0,0,0.26458333,-111.51081,-440.67403)"><path
         id="path18"
         style="fill:none;stroke:#000000"
         d="m 538.9872,1682.7333 a 566.82902,566.82902 0 0 1 17.90235,36.6504 h 42.42578 v 11.3379 h -37.79102 a 566.82902,566.82902 0 0 1 9.1211,26.5117 h 7.57226 27.44141 25.71289 20.46289 a 606.1304,606.1304 0 0 0 -27.38867,-71.0058 c -4.66725,0 -9.33482,4e-4 -14.00195,-0.02 -7.2548,-0.03 -14.50979,-0.075 -21.76368,-0.2011 -9.49246,-0.1812 -18.99091,-0.4005 -28.46289,-1.0879 -7.09482,-0.5435 -14.17954,-1.2369 -21.23047,-2.1856 z m 114.26172,121.6719 c -0.008,0.092 -0.0159,0.1847 -0.0234,0.2773 0.17708,0 0.35416,-0.01 0.53125,-0.014 -0.16906,-0.081 -0.34454,-0.1831 -0.50782,-0.2637 z m -22.58593,108.0957 c -0.29406,0.052 -0.58879,0.1002 -0.88282,0.1523 0.12218,0.036 0.24303,0.076 0.36524,0.1114 0.17303,-0.087 0.3445,-0.177 0.51758,-0.2637 z m -31.29297,73.5469 c -0.10667,0.01 -0.21366,0.017 -0.32032,0.027 a 566.82902,566.82902 0 0 1 -0.002,0.022 c 0.10747,-0.016 0.2148,-0.033 0.32227,-0.049 z" /><path
         id="path12"
         style="fill:none;stroke:#000000"
         d="m 979.02506,1382.0023 c 0.1808,0.19 0.344,0.4002 0.5234,0.5918 0.071,-0.065 0.1486,-0.117 0.2207,-0.1797 a 379.7977,379.7977 0 0 0 -0.7441,-0.4121 z m -462.2617,294.6093 c -4.2777,0.087 -9.156,0.8489 -12.3438,0.3204 -7.5323,0.01 -15.0657,0.011 -22.5976,0.041 -7.7536,0.039 -15.5075,0.09 -23.2598,0.2461 -4.5585,0.1079 -9.1346,0.2234 -13.6992,0.416 a 379.7977,379.7977 0 0 0 -3.7344,43.8515 h 37.791 v 11.3399 h -37.791 a 379.7977,379.7977 0 0 0 3.2207,41.6035 c 4.6556,0 9.3112,0 13.9668,0.012 12.1173,0.023 24.2349,0.047 36.3516,0.1778 10.8938,0.1348 21.7895,0.3197 32.6757,0.7734 1.0981,-3.721 1.9723,-7.4591 2.0938,-11.4141 0.748,-6.4016 1.1758,-12.7702 0.8515,-19.2265 -0.043,-7.371 -0.1069,-14.7423 -0.291,-22.1114 -0.2131,-7.666 -0.3969,-15.3522 -1.3632,-22.9687 -0.8078,-5.8292 -1.8863,-11.5781 -3.6973,-17.1895 -0.3855,-1.2418 -0.9126,-2.4215 -1.3242,-3.6504 -0.055,-0.1631 -0.064,-0.339 -0.098,-0.5078 0.1495,-0.062 0.4877,-0.029 0.4453,-0.1855 -0.072,-0.2677 -0.4263,-0.3531 -0.6406,-0.5293 -1.6394,-0.8588 -3.9899,-1.0501 -6.5566,-0.9981 z" /></g></g></svg>
