<?xml version="1.0" encoding="UTF-8" standalone="no"?>
<!-- Created with Inkscape (http://www.inkscape.org/) -->

<svg
   width="100mm"
   height="50mm"
   viewBox="0 0 100 49.999998"
   version="1.1"
   id="svg1"
   inkscape:version="1.3.2 (091e20e, 2023-11-25, custom)"
   sodipodi:docname="stjarna.svg"
   xml:space="preserve"
   xmlns:inkscape="http://www.inkscape.org/namespaces/inkscape"
   xmlns:sodipodi="http://sodipodi.sourceforge.net/DTD/sodipodi-0.dtd"
   xmlns="http://www.w3.org/2000/svg"
   xmlns:svg="http://www.w3.org/2000/svg"><sodipodi:namedview
     id="namedview1"
     pagecolor="#ffffff"
     bordercolor="#000000"
     borderopacity="0.25"
     inkscape:showpageshadow="2"
     inkscape:pageopacity="0.0"
     inkscape:pagecheckerboard="0"
     inkscape:deskcolor="#d1d1d1"
     inkscape:document-units="mm"
     inkscape:zoom="1.3843855"
     inkscape:cx="184.55842"
     inkscape:cy="55.259174"
     inkscape:window-width="1920"
     inkscape:window-height="991"
     inkscape:window-x="-9"
     inkscape:window-y="-9"
     inkscape:window-maximized="1"
     inkscape:current-layer="layer1"><inkscape:page
       x="0"
       y="0"
       width="100"
       height="49.999996"
       id="page1"
       margin="0 0 244.25096"
       bleed="0" /></sodipodi:namedview><defs
     id="defs1" /><g
     inkscape:label="Layer 1"
     inkscape:groupmode="layer"
     id="layer1"
     transform="translate(0,0.38223938)"><path
       sodipodi:type="star"
       style="fill:none;stroke-width:2"
       id="path16"
       inkscape:flatsided="false"
       sodipodi:sides="5"
       sodipodi:cx="155.30356"
       sodipodi:cy="57.065029"
       sodipodi:r1="57.352329"
       sodipodi:r2="16.263668"
       sodipodi:arg1="0.7140907"
       sodipodi:arg2="1.3424092"
       inkscape:rounded="0"
       inkscape:randomized="0"
       d="M 198.64409,94.626821 158.98576,72.906376 132.97313,109.89155 141.37541,65.46226 98.162066,52.151825 143.01328,46.413457 142.3186,1.2019773 161.6359,42.084764 204.41991,27.452969 171.50744,58.458289 Z"
       transform="matrix(0.26458333,0,0,0.26458333,0,-0.38223938)"
       inkscape:transform-center-x="1.0616603"
       inkscape:transform-center-y="-0.40170742" /><path
       sodipodi:type="star"
       style="fill:none;stroke-width:2"
       id="path17"
       inkscape:flatsided="false"
       sodipodi:sides="5"
       sodipodi:cx="150.24718"
       sodipodi:cy="68.622505"
       sodipodi:r1="101.60276"
       sodipodi:r2="28.81197"
       sodipodi:arg1="0.45251929"
       sodipodi:arg2="1.0808378"
       inkscape:rounded="0"
       inkscape:randomized="0"
       d="M 241.62346,113.04655 163.80578,94.044815 136.23423,169.2543 130.25896,89.37343 50.210413,86.392332 124.33518,56.024972 102.43401,-21.026933 154.22089,40.085877 220.73378,-4.5537211 178.61507,63.583432 Z"
       transform="matrix(0.26458333,0,0,0.26458333,0,-0.38223938)"
       inkscape:transform-center-x="1.1457098"
       inkscape:transform-center-y="1.452874" /><path
       sodipodi:type="star"
       style="fill:none;stroke-width:2"
       id="path18"
       inkscape:flatsided="false"
       sodipodi:sides="5"
       sodipodi:cx="92.820969"
       sodipodi:cy="50.202778"
       sodipodi:r1="161.91585"
       sodipodi:r2="45.915237"
       sodipodi:arg1="0.39376161"
       sodipodi:arg2="1.0220801"
       inkscape:rounded="0"
       inkscape:randomized="0"
       d="M 242.34579,112.3242 116.77001,89.377421 79.945695,211.6059 62.964328,85.085296 -64.661204,87.833974 50.419513,32.586716 8.3669066,-87.94299 96.472069,4.4329352 198.10766,-72.807198 137.47893,39.531521 Z"
       transform="matrix(0.26458333,0,0,0.26458333,0,-0.38223938)"
       inkscape:transform-center-x="1.0526923"
       inkscape:transform-center-y="3.0767546" /><path
       style="fill:#000000;stroke-width:2"
       d="M 68.898647,23.507722 58.100385,21.787644"
       id="path21" /><path
       style="fill:#000000"
       d="M 27.680507,48.329898 C 27.378989,48.212046 27.160081,48.08087 26.818259,47.813214 26.40979,47.493372 26.304107,47.375034 25.843357,46.72157 25.36182,46.038625 24.609234,44.839167 24.609234,44.754646 c 0,-0.07369 -0.263858,-0.19631 -0.585121,-0.271915 -0.186862,-0.04398 -0.312969,-0.09512 -0.293844,-0.119173 0.01863,-0.02343 0.0067,-0.02926 -0.02686,-0.01314 -0.08216,0.03947 -0.481991,-0.12139 -0.701765,-0.282323 -0.215449,-0.157765 -0.351259,-0.346621 -0.30974,-0.430719 0.01693,-0.03429 0.0068,-0.04996 -0.02304,-0.03563 -0.0293,0.01407 -0.05317,-0.01793 -0.05305,-0.07112 2.71e-4,-0.124818 0.18373,-0.630806 0.218824,-0.603528 0.01471,0.01143 0.02395,-0.03005 0.02052,-0.09218 -0.0061,-0.111629 -0.01192,-0.113308 -0.486593,-0.141567 -0.772314,-0.04598 -1.583625,-0.127651 -1.560238,-0.157063 0.01188,-0.01495 -0.06486,-0.01933 -0.170551,-0.0097 -0.108345,0.0098 -0.178851,6.98e-4 -0.161646,-0.02094 0.01721,-0.02164 -0.0533,-0.03077 -0.161646,-0.02094 -0.108345,0.0098 -0.178851,6.98e-4 -0.161646,-0.02094 0.01721,-0.02164 -0.0533,-0.03077 -0.161646,-0.02094 -0.146142,0.01326 -0.181955,0.0046 -0.149541,-0.03616 0.02745,-0.03453 0.02111,-0.04327 -0.01782,-0.02457 -0.09213,0.04426 -0.606765,-0.01909 -0.566498,-0.06974 0.02012,-0.02531 0.0077,-0.03031 -0.03011,-0.01215 -0.06499,0.03122 -0.723037,-0.03581 -0.980976,-0.09992 l -0.139627,-0.0347 0.07579,0.255006 c 0.04169,0.140253 0.06435,0.289027 0.05036,0.330609 -0.01399,0.04158 -0.0035,0.06504 0.02342,0.05213 0.05716,-0.02746 0.06208,0.04525 0.01535,0.226844 -0.01913,0.07435 -0.05737,0.11873 -0.08915,0.103466 -0.03316,-0.01593 -0.03927,-0.0061 -0.0151,0.02426 0.0876,0.110173 -0.264068,0.300206 -0.814507,0.440134 -0.153303,0.03897 -0.305449,0.09588 -0.338101,0.126459 -0.03265,0.03058 -0.105337,0.243116 -0.161522,0.4723 -0.198455,0.809522 -0.771106,1.805945 -1.269679,2.209265 -0.175274,0.141788 -0.412903,0.279104 -0.602456,0.348134 -0.271996,0.09905 -0.380253,0.113992 -0.826067,0.113992 -0.472285,0 -0.541953,-0.01106 -0.876811,-0.139207 -0.666749,-0.255157 -1.203158,-0.727766 -1.69585,-1.494145 -0.520551,-0.809715 -0.923328,-1.712101 -1.012895,-2.269305 -0.02621,-0.16308 -0.07651,-0.267719 -0.1598,-0.332457 -0.06685,-0.05196 -0.105933,-0.10661 -0.08685,-0.121443 0.01908,-0.01483 0.01045,-0.02317 -0.01919,-0.01852 -0.120307,0.01887 -0.192773,-0.0042 -0.1565,-0.04982 0.02281,-0.02869 0.01488,-0.03703 -0.01951,-0.02051 -0.03187,0.01531 -0.2011774,-0.06187 -0.3762304,-0.171523 -0.503378,-0.315304 -0.852924,-0.66758 -0.804683,-0.810966 0.01472,-0.04375 0.0048,-0.06898 -0.0221,-0.05607 -0.02687,0.01291 -0.04886,-0.02728 -0.04886,-0.08931 0,-0.170443 0.116482,-0.437364 0.177971,-0.407826 0.02981,0.01432 0.03863,0.0064 0.01959,-0.0175 -0.05106,-0.06422 0.07217,-0.309238 0.139309,-0.276987 0.03133,0.01505 0.04299,0.0098 0.02592,-0.01168 -0.04185,-0.05263 0.148899,-0.483605 0.19737,-0.445931 0.02103,0.01635 0.0249,0.002 0.0086,-0.03182 -0.03197,-0.06635 0.201849,-1.060889 0.242145,-1.029946 0.01336,0.01026 0.02428,-0.08209 0.02428,-0.205208 0,-0.182233 -0.02585,-0.245785 -0.139016,-0.341799 -0.253701,-0.215245 -0.371808,-0.357571 -0.336549,-0.405562 0.01917,-0.02608 0.01495,-0.03341 -0.0094,-0.01628 -0.06124,0.04313 -0.20377,-0.124751 -0.156443,-0.184271 0.02199,-0.02766 0.01486,-0.03698 -0.0167,-0.02181 -0.06067,0.02915 -0.507427,-0.690009 -0.519744,-0.83665 -0.0042,-0.04962 -0.02576,-0.08149 -0.04799,-0.07082 -0.03744,0.01797 -0.06073,-0.06 -0.05498,-0.184033 0.0013,-0.02855 -0.01476,-0.04365 -0.03575,-0.03357 -0.05808,0.0279 -0.233978,-0.385431 -0.188413,-0.442735 0.02352,-0.02958 0.01705,-0.03917 -0.01579,-0.02339 -0.06437,0.03092 -0.140203,-0.209116 -0.08714,-0.275847 0.01926,-0.02423 0.0112,-0.0326 -0.01793,-0.01861 -0.06619,0.0318 -0.256688,-0.57717 -0.202045,-0.645891 0.02331,-0.02931 0.01647,-0.03859 -0.0167,-0.02266 -0.06692,0.03214 -0.147871,-0.324706 -0.09014,-0.397317 0.02223,-0.02795 0.01509,-0.03721 -0.01686,-0.02186 -0.06496,0.03121 -0.20832,-0.726978 -0.15708,-0.830766 0.02103,-0.04261 0.01134,-0.05637 -0.02679,-0.03805 -0.04233,0.02033 -0.05346,-0.05785 -0.03818,-0.268086 0.01187,-0.163234 0.003,-0.274116 -0.01963,-0.246403 -0.02266,0.02771 -0.04158,-0.1439 -0.04203,-0.381362 -6.03e-4,-0.315821 0.01588,-0.423726 0.06138,-0.401867 0.03858,0.01853 0.04758,0.01149 0.02369,-0.01856 -0.04539,-0.05708 0.02,-0.640436 0.06914,-0.616827 0.01845,0.0089 0.0248,-0.06929 0.01411,-0.173687 -0.01336,-0.130441 -9.15e-4,-0.180906 0.03979,-0.16135 0.03731,0.01792 0.04728,0.0042 0.02692,-0.037 -0.04397,-0.08905 0.08754,-0.613882 0.146696,-0.585464 0.026,0.01249 0.03431,-0.0035 0.01849,-0.03558 -0.01583,-0.03206 0.005,-0.08006 0.04624,-0.106677 0.05916,-0.03816 0.06997,-0.156884 0.05113,-0.561631 -0.05665,-1.217036 0.419939,-2.285051 1.504127,-3.370707 0.143277,-0.14347 0.260504,-0.291349 0.260504,-0.328619 0,-0.03727 -0.09093,-0.148411 -0.202058,-0.246978 -0.788972,-0.699776 -3.159103,-3.571319 -4.494777,-5.445669 -1.295348,-1.817759 -1.839984,-2.710587 -2.452589,-4.020558 -0.576092,-1.231891 -0.758517,-1.947396 -0.703288,-2.758431 0.07642,-1.122253 0.750304,-1.500422 2.019303,-1.133192 0.982631,0.284359 2.331883,1.064601 4.917415,2.84363 1.5673654,1.078458 1.8521524,1.260908 3.5023294,2.24378 1.909827,1.137524 2.760163,1.589287 2.991452,1.589287 0.140804,0 0.850908,-1.253117 1.318795,-2.327269 l 0.201927,-0.463574 -0.16165,-0.374043 c -0.102529,-0.237245 -0.16403,-0.468147 -0.16816,-0.631353 -0.0036,-0.14152 -0.0247,-0.248775 -0.04692,-0.238343 -0.02223,0.01043 -0.04041,-0.124605 -0.04041,-0.300082 0,-0.175477 0.01819,-0.31027 0.04041,-0.299539 0.02223,0.01073 0.03194,-0.08466 0.02158,-0.211981 -0.01445,-0.177586 -0.0031,-0.223932 0.04874,-0.199031 0.04471,0.02148 0.05404,0.01544 0.02759,-0.01782 -0.04684,-0.0589 0.01672,-0.473239 0.06881,-0.448561 0.01944,0.0092 0.03954,-0.04573 0.04467,-0.12208 0.01114,-0.165877 0.3055,-0.703886 0.36136,-0.660468 0.02152,0.01673 0.0216,-0.0051 1.8e-4,-0.04847 -0.02919,-0.05912 -0.02107,-0.0703 0.03242,-0.0446 0.04532,0.02177 0.05843,0.01802 0.03592,-0.01029 -0.04658,-0.05858 0.01645,-0.183843 0.0777,-0.154417 0.02619,0.01258 0.03165,-0.0095 0.01214,-0.04899 -0.02598,-0.05262 -0.01637,-0.06269 0.03588,-0.03758 0.04779,0.02295 0.05851,0.01811 0.03246,-0.01465 -0.101106,-0.127155 1.057747,-1.187747 1.215163,-1.112128 0.03617,0.01737 0.04867,0.01222 0.02934,-0.01209 -0.04387,-0.05517 0.482435,-0.278072 0.564022,-0.238879 0.03701,0.01778 0.04783,0.01168 0.02663,-0.01499 -0.04308,-0.05418 0.256984,-0.113721 0.349388,-0.06933 0.04192,0.02014 0.04912,0.0124 0.02116,-0.02276 -0.03231,-0.04063 0.0094,-0.04944 0.175729,-0.03711 0.11995,0.0089 0.206577,0.0017 0.192503,-0.01602 -0.01407,-0.0177 0.02047,-0.03218 0.07676,-0.03218 0.08044,0 0.16275,-0.114317 0.384498,-0.533981 0.367163,-0.694864 0.362181,-0.680562 0.237043,-0.680562 -0.243052,0 -0.315288,-0.250257 -0.119407,-0.4136804 0.06225,-0.051935 0.104682,-0.098789 0.09429,-0.1041191 -0.01039,-0.00533 -0.08557,-0.03195 -0.167063,-0.059154 -0.144063,-0.04809 -0.188364,-0.1491386 -0.106939,-0.2439229 0.06504,-0.075709 0.279806,-0.1484063 0.345376,-0.1169077 0.04007,0.01925 0.04606,0.010441 0.0174,-0.025601 -0.03255,-0.040937 -0.01404,-0.048923 0.07257,-0.031317 0.0745,0.015143 0.103533,0.00762 0.08082,-0.02094 -0.02271,-0.028562 0.0063,-0.036084 0.08082,-0.02094 0.06395,0.012998 0.104319,0.00861 0.08972,-0.00975 -0.0146,-0.018361 0.05654,-0.045497 0.158079,-0.060304 0.175857,-0.025643 0.206954,-0.060164 0.654919,-0.7270363 1.547256,-2.303352 3.004598,-3.8456353 4.816851,-5.0976006 3.122314,-2.1569997 5.223998,-2.50457674 5.68192,-0.9396776 0.213198,0.7285842 0.0019,2.0648971 -0.43002,2.7196122 -0.06838,0.103655 -0.29941,0.3769274 -0.513396,0.6072718 -0.213985,0.2303445 -0.493942,0.5893 -0.622128,0.797679 -0.419342,0.6816865 -0.411616,0.6076614 -0.382301,3.6626276 0.0253,2.636723 0.0636,3.407869 0.230894,4.648771 0.108553,0.805204 0.424582,2.629329 0.591351,3.413286 0.188948,0.88822 0.573242,1.979029 0.711772,2.020348 0.03834,0.01143 0.244772,-0.09079 0.458744,-0.227156 4.99614,-3.184166 7.681685,-4.626309 10.28755,-5.524432 1.272162,-0.438457 1.768348,-0.561543 2.263698,-0.561543 1.002119,0 1.550758,0.422949 1.550758,1.195488 0,1.348973 -1.621094,3.568928 -5.095679,6.978116 -2.379332,2.334549 -4.970507,4.924511 -5.220041,5.217596 l -0.144683,0.169936 0.296696,0.540044 c 0.633032,1.152237 0.811252,1.724854 0.988071,3.174656 0.02248,0.184275 0.03935,0.367944 0.0375,0.408153 -0.0018,0.04021 0.0098,0.06287 0.02589,0.05037 0.06639,-0.0516 0.279155,0.833395 0.311726,1.296633 0.02859,0.406581 0.02197,0.492439 -0.0358,0.464688 -0.04704,-0.0226 -0.05791,-0.01775 -0.03234,0.0144 0.05907,0.07429 -0.02544,0.637821 -0.09093,0.606359 -0.03272,-0.01572 -0.0389,-0.0059 -0.01513,0.024 0.04844,0.06093 -0.01827,0.556179 -0.07147,0.530619 -0.02054,-0.0099 -0.02725,0.04928 -0.01491,0.131424 0.01311,0.08728 0.0013,0.139201 -0.02845,0.124916 -0.02953,-0.01418 -0.04063,0.02986 -0.02646,0.104936 0.0185,0.09798 0.0076,0.121283 -0.04502,0.09602 -0.0473,-0.02272 -0.05629,-0.01681 -0.02819,0.01852 0.04819,0.0606 -0.186087,0.803698 -0.244526,0.775625 -0.02169,-0.01042 -0.02575,0.02172 -0.009,0.07142 0.02068,0.06147 0.01065,0.08088 -0.03135,0.0607 -0.03723,-0.01788 -0.05173,-0.008 -0.03652,0.02486 0.03503,0.0757 -0.427487,0.879835 -0.483367,0.840378 -0.02492,-0.0176 -0.02951,-0.0105 -0.01019,0.01578 0.04726,0.06429 -0.197498,0.48879 -0.257355,0.446356 -0.02595,-0.0184 -0.03109,-0.01159 -0.01143,0.01512 0.04619,0.06275 -0.01515,0.188314 -0.07739,0.158417 -0.02619,-0.01258 -0.03165,0.0095 -0.01214,0.04899 0.02598,0.05262 0.01637,0.06269 -0.03588,0.03758 -0.04608,-0.02214 -0.05845,-0.01804 -0.03492,0.01155 0.04121,0.05182 -0.144396,0.313183 -0.199594,0.281064 -0.01965,-0.01143 -0.02391,-0.0085 -0.0095,0.0066 0.03489,0.03639 -0.359095,0.601181 -0.404237,0.579496 -0.01931,-0.0093 -0.03511,0.0077 -0.03511,0.03764 0,0.09216 -0.565718,0.696313 -0.625243,0.667718 -0.03133,-0.01505 -0.03992,-0.0067 -0.01952,0.01894 0.03619,0.04552 -0.912275,0.852709 -0.981018,0.834898 -0.01957,-0.0051 -0.04465,0.0096 -0.05574,0.03266 -0.01109,0.02303 -0.065,0.0862 -0.119818,0.140361 -0.05481,0.05416 -0.115082,0.162366 -0.133928,0.240448 -0.01885,0.07808 -0.04979,0.134476 -0.06877,0.12532 -0.01898,-0.0092 -0.01904,0.419764 -1.52e-4,0.953155 0.01889,0.533392 0.02121,0.986849 0.0051,1.007684 -0.01606,0.02083 -0.0012,0.02443 0.033,0.008 0.04443,-0.02135 0.06221,0.04333 0.06221,0.226345 0,0.140926 -0.01819,0.247572 -0.04041,0.236992 -0.02223,-0.01058 -0.04155,0.05327 -0.04294,0.141883 -0.0015,0.09845 -0.04346,0.196679 -0.107764,0.252541 -0.157743,0.137033 -0.505099,0.29695 -0.573566,0.264059 -0.0336,-0.01614 -0.04529,-0.01016 -0.02644,0.01354 0.04095,0.0515 -0.384542,0.188595 -0.46907,0.151133 -0.03296,-0.01461 -0.04184,-0.01105 -0.01975,0.0079 0.0221,0.01895 -0.05527,0.06766 -0.171911,0.108254 -0.178932,0.06227 -0.217722,0.09885 -0.248148,0.23402 -0.243857,1.083379 -0.63999,2.214268 -0.970666,2.771077 -0.100412,0.169079 -0.290026,0.424466 -0.421365,0.567526 -0.511953,0.557643 -1.004543,0.785295 -1.757353,0.812169 -0.441516,0.01576 -0.472538,0.01067 -0.862111,-0.141605 z m 1.221636,-0.205127 c 0.656424,-0.151518 1.396914,-0.944738 1.837729,-1.968592 0.162112,-0.376528 0.403709,-1.163324 0.472608,-1.53912 0.04258,-0.232247 0.02331,-0.238309 -0.379877,-0.119509 -1.121416,0.330427 -3.286896,0.469499 -4.952489,0.31806 -0.382334,-0.03476 -0.707342,-0.05373 -0.722239,-0.04215 -0.08566,0.06658 0.463523,1.056024 0.932129,1.679403 0.774998,1.030967 1.350659,1.510851 1.997446,1.665119 0.344033,0.08206 0.483578,0.08322 0.814693,0.0068 z M 14.484851,46.504949 c 0.100736,-0.027 0.252212,-0.08826 0.336612,-0.136113 0.287725,-0.16315 0.939664,-0.835149 1.16193,-1.197681 0.197,-0.321323 0.489185,-1.04873 0.489525,-1.218697 1.19e-4,-0.05926 -0.127111,-0.07068 -1.010151,-0.09067 -0.79541,-0.01801 -1.142078,-0.04517 -1.62993,-0.127716 -0.776539,-0.131388 -1.644838,-0.352274 -2.247053,-0.571626 -0.25522,-0.09296 -0.475659,-0.159986 -0.489865,-0.148944 -0.04844,0.03765 0.258408,0.921891 0.465634,1.341805 0.406193,0.823096 0.86058,1.397111 1.438679,1.817445 0.478387,0.347835 0.995036,0.46344 1.484619,0.3322 z m -1.728776,-1.478448 c -0.15234,-0.19159 -0.195353,-0.436237 -0.09501,-0.540387 0.170329,-0.176789 0.436348,0.108641 0.441611,0.473835 0.0024,0.164023 -0.01354,0.192897 -0.112273,0.203841 -0.08309,0.0092 -0.148151,-0.02891 -0.234328,-0.137289 z M 29.47141,44.345909 c -0.14189,-0.01366 -0.198832,-0.05073 -0.295288,-0.192231 -0.109141,-0.160106 -0.121204,-0.245948 -0.139166,-0.990317 -0.0122,-0.505559 0.0023,-0.872022 0.03821,-0.965153 0.114975,-0.298277 0.657212,-0.669859 0.977504,-0.669859 0.06237,0 0.338298,0.09423 0.613163,0.209404 0.641255,0.268695 0.91586,0.284691 1.192743,0.06948 0.22427,-0.174318 0.275219,-0.324574 0.193131,-0.569574 -0.09874,-0.294702 -0.318581,-0.501949 -0.789216,-0.744006 -0.236437,-0.121604 -0.472316,-0.26102 -0.524178,-0.309813 -0.119532,-0.112462 -0.12218,-0.376529 -0.0055,-0.552675 0.122126,-0.184434 1.448877,-1.206848 1.774417,-1.367393 0.712748,-0.351502 1.851554,-0.393282 2.353575,-0.08635 0.119632,0.07314 0.140561,0.07532 0.169056,0.0176 0.05609,-0.113623 0.03897,-0.13032 -0.223417,-0.217835 -0.792592,-0.264356 -1.738716,-0.201214 -2.413093,0.161045 -0.38194,0.205169 -1.774479,1.263977 -1.894685,1.440611 -0.107905,0.158558 -0.104024,0.520654 0.0074,0.688095 0.05114,0.07686 0.201572,0.179839 0.368182,0.252031 0.570106,0.247028 0.696372,0.321687 0.851084,0.503236 0.204894,0.240435 0.211097,0.450701 0.01855,0.628568 -0.234296,0.216427 -0.520368,0.176128 -1.118029,-0.157499 -0.224181,-0.125142 -0.319754,-0.152754 -0.518921,-0.149919 -0.455988,0.0065 -0.918968,0.280458 -1.144935,0.677515 -0.265138,0.465886 -0.257003,1.807214 0.01323,2.180933 0.12349,0.170783 0.131849,0.174296 0.399091,0.167734 0.196298,-0.0048 0.223588,-0.01146 0.09717,-0.02363 z m 3.364693,-2.071558 c -0.0172,-0.03341 -0.02997,-0.02349 -0.03255,0.0253 -0.0023,0.04415 0.01039,0.06888 0.0283,0.05497 0.0179,-0.01392 0.01982,-0.05004 0.0043,-0.08027 z m -0.05388,-0.293166 c -0.0172,-0.03341 -0.02997,-0.02349 -0.03255,0.0253 -0.0023,0.04415 0.01039,0.06889 0.0283,0.05497 0.0179,-0.01392 0.01982,-0.05004 0.0043,-0.08027 z m -0.05501,-0.379544 c -0.01495,-0.02879 -0.02718,-0.0052 -0.02718,0.05235 0,0.05759 0.01223,0.08114 0.02718,0.05235 0.01495,-0.02879 0.01495,-0.07591 0,-0.104702 z m -0.05734,-0.726849 c -0.01586,-0.03213 -0.05991,-0.05693 -0.09788,-0.05511 -0.05408,0.0026 -0.05445,0.0079 -0.0017,0.02443 0.03833,0.01202 0.07125,0.105325 0.07641,0.216568 0.0088,0.188991 0.0098,0.190113 0.03053,0.03399 0.01181,-0.0888 0.0085,-0.187745 -0.0074,-0.219875 z m -0.02535,-0.424874 c 0.06702,-0.06643 0.06512,-0.06791 -0.02034,-0.01581 -0.05186,0.03161 -0.09429,0.0646 -0.09429,0.07329 0,0.03447 0.04425,0.01228 0.114637,-0.05748 z m 0.639711,-0.450219 c 0.190916,-0.149723 0.334996,-0.272225 0.320179,-0.272225 -0.01482,0 -0.183145,0.122502 -0.374061,0.272225 -0.190916,0.149724 -0.334996,0.272226 -0.320179,0.272226 0.01482,0 0.183145,-0.122502 0.374061,-0.272226 z M 16.392231,39.446476 c 0.449722,-0.181568 0.513211,-0.347275 0.406474,-1.060904 -0.06107,-0.408326 -0.05897,-0.433582 0.04262,-0.512549 0.0784,-0.06093 0.145255,-0.07557 0.250995,-0.05494 0.119802,0.02337 0.189578,0.103837 0.413333,0.476655 0.404892,0.674629 0.626395,0.821031 1.238053,0.818288 0.704939,-0.0032 1.384403,-0.371612 1.789046,-0.970138 0.180197,-0.266538 0.435165,-0.764937 0.399174,-0.780286 -0.0075,-0.0032 -0.08327,-0.03975 -0.16842,-0.08123 -0.08514,-0.04149 -0.137558,-0.05373 -0.116473,-0.02722 0.06309,0.07934 -0.07914,0.464554 -0.285822,0.774119 -0.224636,0.336458 -0.712786,0.765728 -0.96333,0.847134 -0.224509,0.07295 -0.778557,0.07234 -1.000278,-0.0011 -0.252208,-0.08353 -0.391622,-0.220426 -0.573387,-0.563035 -0.205579,-0.387494 -0.332958,-0.524834 -0.566744,-0.611064 -0.225441,-0.08315 -0.404397,-0.05628 -0.577253,0.08667 -0.13542,0.111994 -0.145039,0.20247 -0.09519,0.895324 0.0395,0.548985 -0.168231,0.669927 -1.204677,0.70137 -0.765242,0.02322 -1.122332,-0.02476 -1.832688,-0.246211 -1.115728,-0.34783 -1.72969,-0.666792 -1.90477,-0.989554 -0.225348,-0.415432 0.09188,-1.022419 0.705986,-1.350826 0.323052,-0.17276 0.391274,-0.3188 0.258076,-0.552453 -0.209053,-0.366717 -0.567883,-0.36632 -1.269688,0.0014 -0.494814,0.259269 -0.563188,0.274616 -0.775772,0.17413 -0.383185,-0.181125 -0.5669204,-0.779089 -0.459213,-1.494498 0.03404,-0.226077 0.08847,-0.417938 0.120968,-0.426358 0.06676,-0.0173 -0.10027,-0.129061 -0.196018,-0.131158 -0.0809,-0.0018 -0.1818324,0.541337 -0.1810274,0.974108 0.0011,0.59055 0.2208254,1.012308 0.6424444,1.233153 0.252097,0.132049 0.432912,0.119364 0.738494,-0.05181 0.758692,-0.424984 0.837967,-0.448443 1.058914,-0.313356 0.243356,0.148788 0.195308,0.250828 -0.315299,0.66961 -0.253629,0.208018 -0.496098,0.443239 -0.53882,0.522714 -0.04272,0.07948 -0.07768,0.27334 -0.07768,0.430811 0,0.242995 0.02329,0.314857 0.153947,0.474993 0.232001,0.284346 0.499231,0.434915 1.329546,0.749123 1.078327,0.408061 1.609932,0.504135 2.692361,0.486573 0.531968,-0.0086 0.684789,-0.02591 0.862111,-0.09751 z m 17.545459,-0.0017 c 0.06702,-0.06643 0.06512,-0.06791 -0.02034,-0.01581 -0.05186,0.03161 -0.09429,0.06459 -0.09429,0.07329 0,0.03447 0.04425,0.01228 0.114637,-0.05748 z M 20.49961,37.189319 c -0.01791,-0.01392 -0.06438,-0.0154 -0.103274,-0.0033 -0.04298,0.01337 -0.03022,0.02329 0.03255,0.0253 0.0568,0.0018 0.08863,-0.0081 0.07072,-0.022 z m -0.484938,-0.04188 c -0.0179,-0.01392 -0.06438,-0.0154 -0.103274,-0.0033 -0.04298,0.01337 -0.03021,0.02329 0.03255,0.0253 0.0568,0.0018 0.08863,-0.0081 0.07072,-0.022 z m -0.377174,-0.04188 c -0.0179,-0.01392 -0.06438,-0.01541 -0.103273,-0.0033 -0.04298,0.01337 -0.03022,0.02329 0.03255,0.0253 0.0568,0.0018 0.08863,-0.0081 0.07072,-0.022 z m -2.424689,-0.335047 c -0.0179,-0.01392 -0.06438,-0.0154 -0.103274,-0.0033 -0.04298,0.01337 -0.03021,0.02329 0.03255,0.0253 0.0568,0.0018 0.08863,-0.0081 0.07072,-0.022 z m 8.150772,-0.537189 c 1.805842,-0.17671 3.320436,-0.529938 5.708737,-1.331371 1.682565,-0.564612 2.904142,-1.087408 3.74156,-1.601269 0.572665,-0.351402 1.581718,-1.076746 1.742996,-1.252929 0.1797,-0.196309 0.282185,-0.535157 0.28293,-0.935458 10e-4,-0.556421 -0.459834,-1.848023 -0.94211,-2.640293 -0.1297,-0.213068 -0.267665,-0.386467 -0.306589,-0.38533 -0.03892,0.0011 -0.357874,0.283833 -0.70878,0.628213 -0.558887,0.548493 -0.789862,0.720667 -0.789862,0.58878 0,-0.08426 0.549682,-0.787621 1.230905,-1.575047 1.057187,-1.222002 2.074857,-2.264976 5.986683,-6.135539 1.744259,-1.725861 3.022366,-3.206815 3.983694,-4.615942 0.66893,-0.980526 0.852183,-1.715436 0.52464,-2.103988 -0.221305,-0.262526 -0.749874,-0.430577 -1.189993,-0.378342 -0.493098,0.05852 -1.461266,0.345916 -2.406467,0.714341 -1.022318,0.398483 -3.261999,1.457443 -4.6189,2.183895 -2.132717,1.141804 -5.961791,3.524575 -7.668946,4.77226 -0.324411,0.237098 -0.421585,0.270965 -0.421585,0.14693 0,-0.150322 0.347367,-0.479493 1.059176,-1.003692 0.397424,-0.292676 0.757312,-0.572902 0.799751,-0.622724 0.06911,-0.08113 0.06031,-0.129218 -0.0843,-0.460689 C 30.499056,18.418701 29.978748,15.967239 29.83078,13.3635 29.7565,12.056506 29.79728,7.5276435 29.88734,7.0813778 29.96545,6.6943303 30.170351,6.36492 30.719313,5.7438549 31.291073,5.0969968 31.457386,4.8398422 31.68697,4.2476505 32.024955,3.3758482 32.061377,2.9142825 31.824976,2.498739 31.532697,1.9849734 31.027169,1.8368636 30.251671,2.0377912 29.769785,2.162645 28.739804,2.5909316 28.300148,2.8492728 c -0.963274,0.5660191 -2.451569,1.6375286 -3.15847,2.2739655 -0.831324,0.7484572 -1.66571,1.6598478 -2.357728,2.5753205 -0.290393,0.3841619 -0.97658,1.3584655 -0.97658,1.3866269 0,0.0099 0.126493,0.015403 0.281097,0.012234 0.23233,-0.00476 0.284563,0.00749 0.301074,0.070645 0.01099,0.042024 -0.02241,0.1128136 -0.07422,0.1573099 -0.05181,0.044496 -0.08424,0.085498 -0.07207,0.091116 0.01217,0.00562 0.07061,0.030984 0.129884,0.056371 0.168239,0.072061 0.164607,0.2180171 -0.009,0.3600653 -0.18173,0.1487282 -0.419535,0.2479411 -0.83947,0.3502301 -0.170286,0.04148 -0.354596,0.114402 -0.409576,0.162051 -0.105785,0.09168 -0.816491,1.255728 -0.816391,1.337147 3.2e-5,0.02629 0.181752,0.11129 0.403822,0.188896 0.480589,0.167951 0.797127,0.374305 1.080859,0.704622 0.114884,0.133748 0.225505,0.259228 0.245824,0.278845 0.02032,0.01962 0.235003,-0.09736 0.477076,-0.259954 0.950948,-0.638717 1.680985,-0.764314 2.581015,-0.444042 1.098059,0.39074 1.677183,1.251634 1.677183,2.493209 0,2.125848 -2.113907,3.963568 -3.993207,3.471486 -0.550595,-0.144169 -0.975376,-0.390179 -1.32292,-0.766163 -0.110057,-0.119064 -0.208267,-0.224799 -0.218244,-0.234967 -0.01,-0.01017 -0.144836,0.07825 -0.299687,0.19648 -0.547927,0.418353 -1.298897,0.680564 -1.949129,0.680564 -0.553967,0 -1.226239,-0.225628 -1.6171,-0.542732 -0.08634,-0.07005 -0.184391,-0.127361 -0.217888,-0.127361 -0.0335,0 -0.104503,0.108366 -0.157794,0.240814 -0.199419,0.49563 -1.11198,2.23733 -1.434264,2.737414 -1.082476,1.679662 -2.583317,3.582429 -4.73671,6.005206 -1.0322354,1.161364 -1.7990464,2.087493 -2.0632384,2.491909 -0.265734,0.406776 -0.35219,0.741663 -0.41518,1.608196 -0.04695,0.64594 -0.04265,0.727208 0.04924,0.930419 0.140369,0.310423 0.36908,0.561095 1.110774,1.217432 1.0865374,0.961495 1.9318944,1.463569 3.4389904,2.042481 1.03063,0.39589 2.699979,0.939184 3.400197,1.106603 1.064596,0.25454 2.679839,0.488714 4.06809,0.589782 0.806909,0.05874 4.165062,0.01934 4.957142,-0.05817 z M 15.90659,34.461484 c -1.057893,-0.294386 -1.597364,-0.965075 -1.229997,-1.529174 0.04125,-0.06335 0.112239,-0.115172 0.157746,-0.115172 0.06702,0 0.07611,0.03438 0.04783,0.180971 -0.0969,0.502239 0.457569,1.046893 1.247449,1.225373 0.262467,0.05931 0.316634,0.05931 0.57895,3.7e-5 0.159166,-0.03596 0.52086,-0.159803 0.803765,-0.275197 0.549422,-0.224103 0.631067,-0.243579 0.631067,-0.150544 0,0.101065 -0.492854,0.405958 -0.903087,0.558674 -0.488781,0.181957 -0.931888,0.216852 -1.333719,0.105032 z m -0.0188,-0.980982 c -0.129266,-0.04973 -0.280718,-0.148662 -0.336561,-0.219841 -0.122184,-0.155742 -0.131882,-0.391653 -0.02115,-0.514531 0.0877,-0.09732 0.406443,-0.264039 0.504808,-0.264039 0.08966,0 0.07435,0.124288 -0.01874,0.152053 -0.116714,0.03481 -0.297441,0.280754 -0.297441,0.404772 0,0.196727 0.219948,0.280792 0.734673,0.280792 0.398115,0 0.45073,0.0088 0.45073,0.07539 0,0.130403 -0.117788,0.175901 -0.455302,0.175866 -0.225433,-2.2e-5 -0.398483,-0.02793 -0.561016,-0.09046 z m 5.380331,-1.689845 c -0.15893,-0.148846 0.06603,-0.612277 0.311027,-0.640723 0.224692,-0.02609 0.195569,0.355781 -0.04528,0.593776 -0.128401,0.126877 -0.172147,0.134606 -0.265744,0.04695 z M 10.780341,29.63204 c -0.156893,-0.121948 0.226714,-0.542295 0.494896,-0.542295 0.273025,0 0.125365,0.396598 -0.195709,0.525651 -0.179927,0.07232 -0.224375,0.07479 -0.299187,0.01664 z m 5.018889,-3.390565 c -0.104844,-0.131857 0.317153,-0.47389 0.55795,-0.452223 0.223889,0.02014 0.213808,0.164026 -0.02408,0.343598 -0.198624,0.149936 -0.458917,0.202897 -0.533875,0.108625 z m 2.802161,-1.424832 c -1.088275,-0.09574 -2.147894,-0.492726 -3.009481,-1.127507 -0.329549,-0.242798 -0.465907,-0.401402 -0.465907,-0.541915 0,-0.195515 0.209138,-0.142836 0.600172,0.151175 0.187912,0.141288 0.276964,0.181258 0.358835,0.161061 0.164147,-0.04049 0.847951,-0.619148 1.124927,-0.951945 0.299346,-0.359675 0.475102,-0.688191 0.643334,-1.202498 0.135397,-0.413924 0.173241,-0.997033 0.07742,-1.192924 -0.02822,-0.05769 -0.166806,-0.155642 -0.309821,-0.218985 -0.390069,-0.172764 -0.609,-0.307667 -0.609,-0.375257 0,-0.09705 0.198122,-0.07143 0.639802,0.08272 0.769102,0.268432 1.826945,0.380173 3.287753,0.347286 1.117235,-0.02515 1.920587,-0.133932 3.157926,-0.427609 0.615051,-0.14598 1.745019,-0.482921 2.209161,-0.658742 0.272008,-0.103039 0.727165,-0.337611 0.727303,-0.374827 5.7e-5,-0.01549 -0.08498,-0.04999 -0.188976,-0.07667 -0.356562,-0.09147 -0.469849,-0.294179 -0.214867,-0.38448 0.117261,-0.04153 0.192897,-0.02517 0.579231,0.12524 0.488225,0.190084 1.130565,0.548485 1.261595,0.703921 0.09229,0.109477 0.06391,0.225539 -0.05515,0.225539 -0.04206,0 -0.202579,-0.06743 -0.356715,-0.149839 -0.154136,-0.08241 -0.286042,-0.143662 -0.293124,-0.136113 -0.0071,0.0076 -0.05523,0.192767 -0.106996,0.411594 -0.280483,1.185681 -1.222203,2.664602 -2.340363,3.675416 -0.775856,0.701372 -2.263197,1.432405 -3.4572,1.699225 -0.984863,0.220083 -2.332564,0.317704 -3.25986,0.236129 z m 2.366824,-0.444775 c 0.980199,-0.143586 1.832276,-0.419421 2.725023,-0.882145 0.550819,-0.285498 1.131522,-0.67632 1.131522,-0.761531 0,-0.116364 -0.661104,-0.15998 -1.313617,-0.08666 -0.540711,0.06075 -1.710676,0.432174 -2.062043,0.654622 -0.440821,0.279082 -0.445169,0.106111 -0.0066,-0.263683 0.193271,-0.162974 0.205244,-0.185004 0.115178,-0.211933 -0.05528,-0.01653 -0.306613,-0.0299 -0.558511,-0.02971 -1.077062,8.07e-4 -2.310292,0.506746 -2.851227,1.16973 -0.231555,0.2838 -0.219493,0.336648 0.08978,0.393346 0.735677,0.13487 1.881037,0.142408 2.730528,0.01797 z m 16.767579,-1.79693 c -0.08461,-0.17138 0.343903,-0.580971 0.580362,-0.554736 0.191694,0.02127 0.164687,0.170026 -0.07336,0.404107 -0.226744,0.222961 -0.440005,0.286322 -0.506997,0.150629 z M 25.865191,11.035701 c -0.172091,-0.117051 -0.59655,-0.362253 -0.943243,-0.544893 -0.346693,-0.182641 -0.647604,-0.353773 -0.668692,-0.380295 -0.05895,-0.07414 0.184365,-0.2021782 0.384208,-0.2021782 0.174674,0 0.176837,-0.00227 0.117941,-0.1235442 -0.05038,-0.1037492 -0.04398,-0.1373012 0.03997,-0.2094041 0.141349,-0.121401 0.299435,-0.1075614 0.744665,0.065192 0.543679,0.2109522 1.134032,0.5630385 1.242807,0.7412075 0.110277,0.180632 0.111079,0.215711 0.0068,0.296778 -0.06252,0.0486 -0.115856,0.05442 -0.219036,0.02393 -0.225118,-0.06653 -0.244376,-0.048 -0.13047,0.125549 0.13102,0.199619 0.135684,0.268001 0.02419,0.354664 -0.13978,0.108647 -0.270362,0.07661 -0.599122,-0.147007 z M 27.904244,6.0420482 C 27.808904,5.9527602 27.934284,5.6881588 28.16172,5.4986391 28.496918,5.219327 28.665029,5.3664748 28.428774,5.732392 28.22336,6.0505416 28.033187,6.1628101 27.904244,6.0420482 Z M 10.371955,26.042918 c 0.387676,-0.410197 1.683857,-1.930075 2.368369,-2.777107 0.878829,-1.087485 2.385681,-3.078592 2.385681,-3.152363 0,-0.01486 -0.163667,-0.09123 -0.363704,-0.1697 -0.378109,-0.148328 -1.998266,-1.040637 -2.909726,-1.602545 -0.610012,-0.376067 -1.3809,-0.87631 -2.9229984,-1.896783 -1.819042,-1.20374 -2.852107,-1.826202 -4.172379,-2.514023 -1.344789,-0.700593 -1.9517,-0.756071 -2.307256,-0.210908 -0.407002,0.624045 -0.31512,1.170951 0.485492,2.889776 0.697772,1.498041 1.328732,2.560794 2.455414,4.135764 0.275995,0.385808 0.619509,0.871087 0.763364,1.078397 0.508992,0.733508 1.182447,1.601877 1.896103,2.444878 1.197289,1.41429 1.817183,2.05731 1.9833214,2.05731 0.03913,0 0.191373,-0.127213 0.338319,-0.282696 z M 9.0642816,18.669404 c -0.357609,-0.117975 -0.457997,-0.174584 -0.457997,-0.258266 0,-0.108928 0.06725,-0.132549 0.24975,-0.08772 0.0849,0.02085 0.216872,0.04844 0.293269,0.06131 0.0764,0.01287 0.205915,0.07166 0.287817,0.130661 0.121186,0.0873 0.136732,0.118676 0.0835,0.168534 -0.08303,0.07776 -0.186601,0.07447 -0.456335,-0.01452 z M 23.670458,17.954682 c -0.02675,-0.03364 0.33781,-0.108584 0.493669,-0.101489 0.03673,0.0017 0.05093,-0.01688 0.03157,-0.04123 -0.02276,-0.02863 6.67e-4,-0.03357 0.06629,-0.014 0.05582,0.01665 0.08502,0.01747 0.0649,0.0018 -0.02013,-0.01564 0.104982,-0.09957 0.278019,-0.186496 0.173036,-0.08693 0.331338,-0.179088 0.35178,-0.204798 0.02044,-0.02571 0.0565,-0.03746 0.08013,-0.02611 0.04339,0.02084 0.258764,-0.138809 0.230917,-0.171175 -0.02334,-0.02713 0.347534,-0.392365 0.37598,-0.370254 0.01386,0.01077 0.02638,-0.004 0.02782,-0.03276 0.0046,-0.09234 0.382183,-0.611692 0.423675,-0.582786 0.022,0.01533 0.02503,0.0074 0.0067,-0.01758 -0.04829,-0.06597 0.07684,-0.354024 0.140496,-0.323443 0.02958,0.01421 0.03803,0.006 0.01876,-0.01821 -0.04378,-0.05506 0.01789,-0.309116 0.06907,-0.284529 0.02066,0.0099 0.02658,-0.04017 0.01314,-0.111331 -0.01344,-0.07116 -0.0025,-0.118865 0.02421,-0.106013 0.02707,0.013 0.03942,-0.0518 0.02784,-0.14615 -0.01144,-0.09323 2.38e-4,-0.15941 0.02595,-0.147059 0.02571,0.01235 0.04675,-0.181254 0.04675,-0.430234 0,-0.248979 -0.01492,-0.445525 -0.03315,-0.436767 -0.04759,0.02286 -0.110489,-0.439496 -0.06719,-0.493944 0.0216,-0.02716 0.01111,-0.03345 -0.02604,-0.01561 -0.05755,0.02765 -0.08543,-0.05246 -0.07608,-0.218667 0.0017,-0.03033 -0.01053,-0.04455 -0.02719,-0.0316 -0.03314,0.02576 -0.239667,-0.299938 -0.243762,-0.38442 -0.0014,-0.02879 -0.01388,-0.04354 -0.02774,-0.03276 -0.01386,0.01077 -0.107275,-0.06395 -0.207583,-0.166066 -0.179516,-0.182739 -0.59954,-0.439856 -0.718546,-0.439856 -0.03345,0 -0.04905,-0.01481 -0.03466,-0.03291 0.02907,-0.03656 0.04867,-0.03422 -0.674795,-0.08056 -0.30556,-0.01957 -0.507951,-0.01781 -0.4904,0.0043 0.01644,0.02067 -0.03518,0.02792 -0.114694,0.0161 -0.07952,-0.01182 -0.132099,-0.01178 -0.116847,7.2e-5 0.03095,0.02406 -0.49924,0.227925 -0.600239,0.230799 -0.0354,10e-4 -0.05964,0.0145 -0.05388,0.02999 0.0058,0.01549 -0.07261,0.08279 -0.17417,0.149559 -0.101555,0.06677 -0.323346,0.257065 -0.492869,0.422876 -0.169522,0.165812 -0.322838,0.293256 -0.340702,0.28321 -0.01786,-0.01005 -0.02226,-0.0072 -0.0098,0.0064 0.01249,0.01354 -0.08309,0.187874 -0.212384,0.387398 -0.129299,0.199523 -0.265394,0.451171 -0.302435,0.559218 -0.03704,0.108046 -0.08344,0.188714 -0.103124,0.179261 -0.01968,-0.0095 -0.02364,0.03216 -0.0088,0.09247 0.01483,0.06031 0.0052,0.09921 -0.02138,0.08643 -0.0275,-0.01321 -0.05637,0.268518 -0.06695,0.653399 -0.01023,0.372143 -0.03225,0.69547 -0.04893,0.718504 -0.01668,0.02304 -0.0093,0.02702 0.01632,0.0088 0.05519,-0.03908 0.198,0.465887 0.149136,0.52734 -0.02044,0.0257 -0.0059,0.0289 0.03718,0.0082 0.05267,-0.0253 0.06294,-0.01092 0.04029,0.05641 -0.01948,0.05791 -0.0098,0.08047 0.02694,0.06282 0.03675,-0.01765 0.04642,0.0049 0.02694,0.06282 -0.01672,0.0497 -0.0084,0.07981 0.01845,0.0669 0.02687,-0.01291 0.04886,0.0022 0.04886,0.03362 0,0.0314 0.07084,0.143924 0.157434,0.25005 0.08659,0.106126 0.141145,0.207069 0.121235,0.224318 -0.01991,0.01725 -0.0091,0.01936 0.02395,0.0047 0.03308,-0.01467 0.105824,0.01302 0.161646,0.06154 0.250481,0.217687 0.771088,0.396193 1.313839,0.45049 0.192628,0.01927 0.357726,0.03743 0.366883,0.04035 0.0092,0.0029 0.0035,-0.01118 -0.01249,-0.03134 z m 1.369832,-0.607375 c 0,-0.0087 0.04243,-0.04168 0.09429,-0.07329 0.08546,-0.0521 0.08737,-0.05061 0.02034,0.01581 -0.07039,0.06976 -0.114636,0.09195 -0.114636,0.05748 z m -1.918839,-1.449181 c -0.284337,-0.0893 -0.481134,-0.43918 -0.436422,-0.775907 0.03192,-0.240384 0.280408,-0.666952 0.364881,-0.626373 0.02931,0.01408 0.04664,0.0037 0.03849,-0.02313 -0.0081,-0.0268 0.04581,-0.08452 0.119899,-0.128272 0.158862,-0.0938 0.523277,-0.162608 0.463577,-0.08753 -0.02441,0.0307 -0.009,0.03927 0.04271,0.02383 0.203488,-0.06069 0.63083,0.304868 0.549343,0.469924 -0.01956,0.03962 -0.0083,0.05133 0.03115,0.03238 0.04529,-0.02175 0.05336,0.04757 0.03022,0.25958 -0.03638,0.33334 -0.08109,0.446627 -0.161096,0.408193 -0.03193,-0.01534 -0.04068,-0.0072 -0.02011,0.01867 0.05152,0.0648 -0.280547,0.345485 -0.488697,0.413085 -0.195545,0.06351 -0.365464,0.06845 -0.53395,0.01554 z m -3.927357,1.80004 c -0.01892,-0.02379 0.02683,-0.04188 0.105931,-0.04188 0.07658,0 0.278045,-0.03946 0.447706,-0.0877 0.169661,-0.04823 0.337717,-0.08907 0.373457,-0.09074 0.03574,-0.0017 0.05524,-0.01529 0.04334,-0.03026 -0.02509,-0.03155 0.30287,-0.192156 0.363144,-0.177831 0.02223,0.0053 0.03435,-0.0052 0.02694,-0.02327 -0.01622,-0.03958 0.388109,-0.368205 0.439765,-0.357421 0.0681,0.01422 0.05406,-0.174466 -0.02965,-0.39827 -0.04597,-0.122926 -0.07143,-0.259662 -0.05656,-0.303857 0.01487,-0.0442 0.005,-0.06979 -0.02182,-0.05689 -0.05579,0.0268 -0.0658,-0.724348 -0.0141,-1.058848 0.0186,-0.12035 0.05448,-0.208891 0.07974,-0.196759 0.02526,0.01213 0.03184,-0.0065 0.01463,-0.04133 -0.04447,-0.09008 0.196477,-0.698655 0.263811,-0.666309 0.03124,0.01501 0.0383,0.0056 0.01642,-0.02192 -0.04846,-0.06095 0.234035,-0.557516 0.299327,-0.526151 0.02659,0.01277 0.04197,0.0077 0.03419,-0.0113 -0.02758,-0.06731 0.13262,-0.305265 0.187701,-0.278805 0.03317,0.01593 0.0397,0.0064 0.01605,-0.02331 -0.02195,-0.0276 -0.0083,-0.08234 0.03031,-0.121643 0.03862,-0.0393 0.04889,-0.05741 0.02284,-0.04023 -0.04617,0.03043 -0.255783,-0.272328 -0.260844,-0.376742 -0.0014,-0.02879 -0.0123,-0.04476 -0.02423,-0.03549 -0.03286,0.02554 -0.47423,-0.359532 -0.458757,-0.400234 0.0074,-0.01949 -0.0047,-0.03214 -0.02694,-0.02812 -0.07585,0.01372 -0.333464,-0.103217 -0.305333,-0.138596 0.01543,-0.0194 -0.01356,-0.02287 -0.06441,-0.0077 -0.05818,0.01735 -0.07941,0.01117 -0.05726,-0.01669 0.01936,-0.02435 0.0052,-0.04343 -0.03157,-0.0424 -0.166018,0.0046 -0.259407,-0.01423 -0.233229,-0.04716 0.01567,-0.01971 -0.035,-0.0264 -0.112593,-0.01487 -0.0776,0.01153 -0.12767,0.0041 -0.111278,-0.01652 0.01639,-0.02062 -0.0868,-0.03748 -0.229316,-0.03748 -0.142515,0 -0.245867,0.01667 -0.22967,0.03704 0.0162,0.02037 -0.04545,0.02849 -0.137004,0.01805 -0.09155,-0.01044 -0.15418,-0.0036 -0.139179,0.01531 0.015,0.01887 -0.01319,0.0343 -0.06266,0.0343 -0.281757,0 -1.091203,0.461274 -1.479549,0.843143 -0.111531,0.10967 -0.219673,0.186273 -0.240315,0.170228 -0.02064,-0.01605 -0.02971,-0.01033 -0.02015,0.01271 0.0096,0.02303 -0.08422,0.203046 -0.208384,0.400026 -0.124169,0.196979 -0.255847,0.445575 -0.292617,0.552435 -0.03677,0.106859 -0.0804,0.187785 -0.09695,0.179834 -0.01655,-0.0079 -0.03294,0.03557 -0.03643,0.09672 -0.0146,0.256043 -0.0922,0.672998 -0.122544,0.658421 -0.01802,-0.0087 -0.03276,0.122009 -0.03276,0.290368 0,0.168359 0.0151,0.298854 0.03355,0.289989 0.03179,-0.01527 0.128145,0.506709 0.122319,0.662615 -0.0015,0.04021 0.0092,0.0638 0.02389,0.05241 0.04286,-0.03332 0.224929,0.405261 0.18768,0.452107 -0.0209,0.02628 -0.0065,0.02946 0.0375,0.0083 0.05225,-0.0251 0.06186,-0.01503 0.03588,0.03758 -0.02391,0.04843 -0.01512,0.06209 0.02694,0.04188 0.04207,-0.02021 0.05085,-0.0066 0.02694,0.04188 -0.02107,0.04269 -0.01385,0.06148 0.01778,0.04628 0.05101,-0.02451 0.07813,0.03742 0.05516,0.125939 -0.006,0.02304 0.0032,0.03093 0.02043,0.01755 0.01722,-0.01338 0.143967,0.05958 0.28167,0.162135 0.298208,0.222092 0.721893,0.381787 1.126004,0.424411 0.161778,0.01706 0.310325,0.0436 0.330107,0.05898 0.05436,0.04226 0.08265,0.03349 0.04494,-0.01393 z m 0.122442,-2.261242 c -0.137918,-0.107199 -0.20354,-0.19064 -0.182865,-0.232519 0.01853,-0.03752 0.0096,-0.05443 -0.02102,-0.03973 -0.08605,0.04134 -0.06267,-0.403678 0.03264,-0.62108 0.05085,-0.116004 0.109211,-0.184759 0.143031,-0.168513 0.0337,0.01619 0.04127,0.0075 0.01845,-0.02119 -0.02127,-0.02675 0.01257,-0.104575 0.07521,-0.172943 0.247338,-0.269989 0.862636,-0.263178 1.082821,0.01199 0.0589,0.07361 0.09761,0.175665 0.08603,0.226796 -0.01158,0.05113 -3.17e-4,0.083 0.02504,0.07082 0.02535,-0.01218 0.0461,0.05547 0.0461,0.150322 0,0.09486 -0.02199,0.161906 -0.04886,0.148997 -0.02687,-0.01291 -0.03598,0.01481 -0.02024,0.0616 0.06804,0.202247 -0.37734,0.747298 -0.564928,0.691346 -0.03962,-0.01182 -0.05723,-0.0029 -0.03912,0.01991 0.01969,0.02476 -0.05756,0.0414 -0.192128,0.0414 -0.19064,0 -0.257935,-0.02556 -0.44016,-0.167201 z"
       id="path22" /><path
       style="fill:#000000"
       d="M 78.208967,47.961542 C 77.907449,47.84369 77.688541,47.712514 77.346719,47.444858 76.93825,47.125016 76.832567,47.006678 76.371817,46.353214 75.89028,45.670269 75.137694,44.470811 75.137694,44.38629 c 0,-0.07369 -0.263858,-0.19631 -0.585121,-0.271915 -0.186862,-0.04398 -0.312969,-0.09512 -0.293844,-0.119173 0.01863,-0.02343 0.0067,-0.02926 -0.02686,-0.01314 -0.08216,0.03947 -0.481991,-0.12139 -0.701765,-0.282323 -0.215449,-0.157765 -0.351259,-0.346621 -0.30974,-0.430719 0.01693,-0.03429 0.0068,-0.04996 -0.02304,-0.03563 -0.0293,0.01407 -0.05317,-0.01793 -0.05305,-0.07112 2.71e-4,-0.124818 0.18373,-0.630806 0.218824,-0.603528 0.01471,0.01143 0.02395,-0.03005 0.02052,-0.09218 -0.0061,-0.111629 -0.01192,-0.113308 -0.486593,-0.141567 -0.772314,-0.04598 -1.583625,-0.127651 -1.560238,-0.157063 0.01188,-0.01495 -0.06486,-0.01933 -0.170551,-0.0097 -0.108345,0.0098 -0.178851,6.98e-4 -0.161646,-0.02094 0.01721,-0.02164 -0.0533,-0.03077 -0.161646,-0.02094 -0.108345,0.0098 -0.178851,6.98e-4 -0.161646,-0.02094 0.01721,-0.02164 -0.0533,-0.03077 -0.161646,-0.02094 -0.146142,0.01326 -0.181955,0.0046 -0.149541,-0.03616 0.02745,-0.03453 0.02111,-0.04327 -0.01782,-0.02457 -0.09213,0.04426 -0.606765,-0.01909 -0.566498,-0.06974 0.02012,-0.02531 0.0077,-0.03031 -0.03011,-0.01215 -0.06499,0.03122 -0.723037,-0.03581 -0.980976,-0.09992 l -0.139627,-0.0347 0.07579,0.255006 c 0.04169,0.140253 0.06435,0.289027 0.05036,0.330609 -0.01399,0.04158 -0.0035,0.06504 0.02342,0.05213 0.05716,-0.02746 0.06208,0.04525 0.01535,0.226844 -0.01913,0.07435 -0.05737,0.11873 -0.08915,0.103466 -0.03316,-0.01593 -0.03927,-0.0061 -0.0151,0.02426 0.0876,0.110173 -0.264068,0.300206 -0.814507,0.440134 -0.153303,0.03897 -0.305449,0.09588 -0.338101,0.126459 -0.03265,0.03058 -0.105337,0.243116 -0.161522,0.4723 -0.198455,0.809522 -0.771106,1.805945 -1.269679,2.209265 -0.175274,0.141788 -0.412903,0.279104 -0.602456,0.348134 -0.271996,0.09905 -0.380253,0.113992 -0.826067,0.113992 -0.472285,0 -0.541953,-0.01106 -0.876811,-0.139207 -0.666749,-0.255157 -1.203158,-0.727766 -1.69585,-1.494145 -0.520551,-0.809715 -0.923328,-1.712101 -1.012895,-2.269305 -0.02621,-0.16308 -0.07651,-0.267719 -0.1598,-0.332457 -0.06685,-0.05196 -0.105933,-0.10661 -0.08685,-0.121443 0.01908,-0.01483 0.01045,-0.02317 -0.01919,-0.01852 -0.120307,0.01887 -0.192773,-0.0042 -0.1565,-0.04982 0.02281,-0.02869 0.01488,-0.03703 -0.01951,-0.02051 -0.03187,0.01531 -0.201177,-0.06187 -0.37623,-0.171523 -0.503378,-0.315304 -0.852924,-0.66758 -0.804683,-0.810966 0.01472,-0.04375 0.0048,-0.06898 -0.0221,-0.05607 -0.02687,0.01291 -0.04886,-0.02728 -0.04886,-0.08931 0,-0.170443 0.116482,-0.437364 0.177971,-0.407826 0.02981,0.01432 0.03863,0.0064 0.01959,-0.0175 -0.05106,-0.06422 0.07217,-0.309238 0.139309,-0.276987 0.03133,0.01505 0.04299,0.0098 0.02592,-0.01168 -0.04185,-0.05263 0.148899,-0.483605 0.19737,-0.445931 0.02103,0.01635 0.0249,0.002 0.0086,-0.03182 -0.03197,-0.06635 0.201849,-1.060889 0.242145,-1.029946 0.01336,0.01026 0.02428,-0.08209 0.02428,-0.205208 0,-0.182233 -0.02585,-0.245785 -0.139016,-0.341799 -0.253701,-0.215245 -0.371808,-0.357571 -0.336549,-0.405562 0.01917,-0.02608 0.01495,-0.03341 -0.0094,-0.01628 -0.06124,0.04313 -0.20377,-0.124751 -0.156443,-0.184271 0.02199,-0.02766 0.01486,-0.03698 -0.0167,-0.02181 -0.06067,0.02915 -0.507427,-0.690009 -0.519744,-0.83665 -0.0042,-0.04962 -0.02576,-0.08149 -0.04799,-0.07082 -0.03744,0.01797 -0.06073,-0.06 -0.05498,-0.184033 0.0013,-0.02855 -0.01476,-0.04365 -0.03575,-0.03357 -0.05808,0.0279 -0.233978,-0.385431 -0.188413,-0.442735 0.02352,-0.02958 0.01705,-0.03917 -0.01579,-0.02339 -0.06437,0.03092 -0.140203,-0.209116 -0.08714,-0.275847 0.01926,-0.02423 0.0112,-0.0326 -0.01793,-0.01861 -0.06619,0.0318 -0.256688,-0.57717 -0.202045,-0.645891 0.02331,-0.02931 0.01647,-0.03859 -0.0167,-0.02266 -0.06692,0.03214 -0.147871,-0.324706 -0.09014,-0.397317 0.02223,-0.02795 0.01509,-0.03721 -0.01686,-0.02186 -0.06496,0.03121 -0.20832,-0.726978 -0.15708,-0.830766 0.02103,-0.04261 0.01134,-0.05637 -0.02679,-0.03805 -0.04233,0.02033 -0.05346,-0.05785 -0.03818,-0.268086 0.01187,-0.163234 0.003,-0.274116 -0.01963,-0.246403 -0.02266,0.02771 -0.04158,-0.1439 -0.04203,-0.381362 -6.03e-4,-0.315821 0.01588,-0.423726 0.06138,-0.401867 0.03858,0.01853 0.04758,0.01149 0.02369,-0.01856 -0.04539,-0.05708 0.02,-0.640436 0.06914,-0.616827 0.01845,0.0089 0.0248,-0.06929 0.01411,-0.173687 -0.01336,-0.130441 -9.15e-4,-0.180906 0.03979,-0.16135 0.03731,0.01792 0.04728,0.0042 0.02692,-0.037 -0.04397,-0.08905 0.08754,-0.613882 0.146696,-0.585464 0.026,0.01249 0.03431,-0.0035 0.01849,-0.03558 -0.01583,-0.03206 0.005,-0.08006 0.04624,-0.106677 0.05916,-0.03816 0.06997,-0.156884 0.05113,-0.561631 -0.05665,-1.217036 0.419939,-2.285051 1.504127,-3.370707 0.143277,-0.14347 0.260504,-0.291349 0.260504,-0.328619 0,-0.03727 -0.09093,-0.148411 -0.202058,-0.246978 C 59.275211,25.447162 56.90508,22.575619 55.569406,20.701269 54.274058,18.88351 53.729422,17.990682 53.116817,16.680711 52.540725,15.44882 52.3583,14.733315 52.413529,13.92228 c 0.07642,-1.122253 0.750304,-1.500422 2.019303,-1.133192 0.982631,0.284359 2.331883,1.064601 4.917415,2.84363 1.567365,1.078458 1.852152,1.260908 3.502329,2.24378 1.909827,1.137524 2.760163,1.589287 2.991452,1.589287 0.140804,0 0.850908,-1.253117 1.318795,-2.327269 L 67.36475,16.674942 67.2031,16.300899 c -0.102529,-0.237245 -0.16403,-0.468147 -0.16816,-0.631353 -0.0036,-0.14152 -0.0247,-0.248775 -0.04692,-0.238343 -0.02223,0.01043 -0.04041,-0.124605 -0.04041,-0.300082 0,-0.175477 0.01819,-0.31027 0.04041,-0.299539 0.02223,0.01073 0.03194,-0.08466 0.02158,-0.211981 -0.01445,-0.177586 -0.0031,-0.223932 0.04874,-0.199031 0.04471,0.02148 0.05404,0.01544 0.02759,-0.01782 -0.04684,-0.0589 0.01672,-0.473239 0.06881,-0.448561 0.01944,0.0092 0.03954,-0.04573 0.04467,-0.12208 0.01114,-0.165877 0.3055,-0.703886 0.36136,-0.660468 0.02152,0.01673 0.0216,-0.0051 1.8e-4,-0.04847 -0.02919,-0.05912 -0.02107,-0.0703 0.03242,-0.0446 0.04532,0.02177 0.05843,0.01802 0.03592,-0.01029 -0.04658,-0.05858 0.01645,-0.183843 0.0777,-0.154417 0.02619,0.01258 0.03165,-0.0095 0.01214,-0.04899 -0.02598,-0.05262 -0.01637,-0.06269 0.03588,-0.03758 0.04779,0.02295 0.05851,0.01811 0.03246,-0.01465 -0.101106,-0.127155 1.057747,-1.187747 1.215163,-1.112128 0.03617,0.01737 0.04867,0.01222 0.02934,-0.01209 -0.04387,-0.05517 0.482435,-0.278072 0.564022,-0.238879 0.03701,0.01778 0.04783,0.01168 0.02663,-0.01499 -0.04308,-0.05418 0.256984,-0.113721 0.349388,-0.06933 0.04192,0.02014 0.04912,0.0124 0.02116,-0.02276 -0.03231,-0.04063 0.0094,-0.04944 0.175729,-0.03711 0.11995,0.0089 0.206577,0.0017 0.192503,-0.01602 -0.01407,-0.0177 0.02047,-0.03218 0.07676,-0.03218 0.08044,0 0.16275,-0.114317 0.384498,-0.533981 0.367163,-0.694864 0.362181,-0.680562 0.237043,-0.680562 -0.243052,0 -0.315288,-0.2502569 -0.119407,-0.4136799 0.06225,-0.05194 0.104682,-0.09879 0.09429,-0.104119 -0.01039,-0.0053 -0.08557,-0.03195 -0.167063,-0.05915 -0.144063,-0.04809 -0.188364,-0.149139 -0.106939,-0.243923 0.06504,-0.07571 0.279806,-0.148407 0.345376,-0.116908 0.04007,0.01925 0.04606,0.01044 0.0174,-0.0256 -0.03255,-0.04094 -0.01404,-0.04892 0.07257,-0.03132 0.0745,0.01514 0.103533,0.0076 0.08082,-0.02094 -0.02271,-0.02856 0.0063,-0.03608 0.08082,-0.02094 0.06395,0.013 0.104319,0.0086 0.08972,-0.0098 -0.0146,-0.01836 0.05654,-0.0455 0.158079,-0.0603 0.175857,-0.02564 0.206954,-0.06016 0.654919,-0.727036 1.547256,-2.303352 3.004598,-3.845636 4.816851,-5.0976008 3.122314,-2.15699968 5.223998,-2.50457668 5.68192,-0.9396776 0.213198,0.7285842 0.0019,2.0648974 -0.43002,2.7196124 -0.06838,0.103655 -0.29941,0.376927 -0.513396,0.607272 -0.213985,0.230344 -0.493942,0.5893 -0.622128,0.797679 -0.419342,0.681686 -0.411616,0.607661 -0.382301,3.662627 0.0253,2.6367229 0.0636,3.4078689 0.230894,4.6487709 0.108553,0.805204 0.424582,2.629329 0.591351,3.413286 0.188948,0.88822 0.573242,1.979029 0.711772,2.020348 0.03834,0.01143 0.244772,-0.09079 0.458744,-0.227156 4.99614,-3.184166 7.681685,-4.626309 10.28755,-5.524432 1.272162,-0.438457 1.768348,-0.561543 2.263698,-0.561543 1.002119,0 1.550758,0.422949 1.550758,1.195488 0,1.348973 -1.621094,3.568928 -5.095679,6.978116 -2.379332,2.334549 -4.970507,4.924511 -5.220041,5.217596 l -0.144683,0.169936 0.296696,0.540044 c 0.633032,1.152237 0.811252,1.724854 0.988071,3.174656 0.02248,0.184275 0.03935,0.367944 0.0375,0.408153 -0.0018,0.04021 0.0098,0.06287 0.02589,0.05037 0.06639,-0.0516 0.279155,0.833395 0.311726,1.296633 0.02859,0.406581 0.02197,0.492439 -0.0358,0.464688 -0.04704,-0.0226 -0.05791,-0.01775 -0.03234,0.0144 0.05907,0.07429 -0.02544,0.637821 -0.09093,0.606359 -0.03272,-0.01572 -0.0389,-0.0059 -0.01513,0.024 0.04844,0.06093 -0.01827,0.556179 -0.07147,0.530619 -0.02054,-0.0099 -0.02725,0.04928 -0.01491,0.131424 0.01311,0.08728 0.0013,0.139201 -0.02845,0.124916 -0.02953,-0.01418 -0.04063,0.02986 -0.02646,0.104936 0.0185,0.09798 0.0076,0.121283 -0.04502,0.09602 -0.0473,-0.02272 -0.05629,-0.01681 -0.02819,0.01852 0.04819,0.0606 -0.186087,0.803698 -0.244526,0.775625 -0.02169,-0.01042 -0.02575,0.02172 -0.009,0.07142 0.02068,0.06147 0.01065,0.08088 -0.03135,0.0607 -0.03723,-0.01788 -0.05173,-0.008 -0.03652,0.02486 0.03503,0.0757 -0.427487,0.879835 -0.483367,0.840378 -0.02492,-0.0176 -0.02951,-0.0105 -0.01019,0.01578 0.04726,0.06429 -0.197498,0.48879 -0.257355,0.446356 -0.02595,-0.0184 -0.03109,-0.01159 -0.01143,0.01512 0.04619,0.06275 -0.01515,0.188314 -0.07739,0.158417 -0.02619,-0.01258 -0.03165,0.0095 -0.01214,0.04899 0.02598,0.05262 0.01637,0.06269 -0.03588,0.03758 -0.04608,-0.02214 -0.05845,-0.01804 -0.03492,0.01155 0.04121,0.05182 -0.144396,0.313183 -0.199594,0.281064 -0.01965,-0.01143 -0.02391,-0.0085 -0.0095,0.0066 0.03489,0.03639 -0.359095,0.601181 -0.404237,0.579496 -0.01931,-0.0093 -0.03511,0.0077 -0.03511,0.03764 0,0.09216 -0.565718,0.696313 -0.625243,0.667718 -0.03133,-0.01505 -0.03992,-0.0067 -0.01952,0.01894 0.03619,0.04552 -0.912275,0.852709 -0.981018,0.834898 -0.01957,-0.0051 -0.04465,0.0096 -0.05574,0.03266 -0.01109,0.02303 -0.065,0.0862 -0.119818,0.140361 -0.05481,0.05416 -0.115082,0.162366 -0.133928,0.240448 -0.01885,0.07808 -0.04979,0.134476 -0.06877,0.12532 -0.01898,-0.0092 -0.01904,0.419764 -1.52e-4,0.953155 0.01889,0.533392 0.02121,0.986849 0.0051,1.007684 -0.01606,0.02083 -0.0012,0.02443 0.033,0.008 0.04443,-0.02135 0.06221,0.04333 0.06221,0.226345 0,0.140926 -0.01819,0.247572 -0.04041,0.236992 -0.02223,-0.01058 -0.04155,0.05327 -0.04294,0.141883 -0.0015,0.09845 -0.04346,0.196679 -0.107764,0.252541 -0.157743,0.137033 -0.505099,0.29695 -0.573566,0.264059 -0.0336,-0.01614 -0.04529,-0.01016 -0.02644,0.01354 0.04095,0.0515 -0.384542,0.188595 -0.46907,0.151133 -0.03296,-0.01461 -0.04184,-0.01105 -0.01975,0.0079 0.0221,0.01895 -0.05527,0.06766 -0.171911,0.108254 -0.178932,0.06227 -0.217722,0.09885 -0.248148,0.23402 -0.243857,1.083379 -0.63999,2.214268 -0.970666,2.771077 -0.100412,0.169079 -0.290026,0.424466 -0.421365,0.567526 -0.511953,0.557643 -1.004543,0.785295 -1.757353,0.812169 -0.441516,0.01576 -0.472538,0.01067 -0.862111,-0.141605 z m 1.221636,-0.205127 c 0.656424,-0.151518 1.396914,-0.944738 1.837729,-1.968592 0.162112,-0.376528 0.403709,-1.163324 0.472608,-1.53912 0.04258,-0.232247 0.02331,-0.238309 -0.379877,-0.119509 -1.121416,0.330427 -3.286896,0.469499 -4.952489,0.31806 -0.382334,-0.03476 -0.707342,-0.05373 -0.722239,-0.04215 -0.08566,0.06658 0.463523,1.056024 0.932129,1.679403 0.774998,1.030967 1.350659,1.510851 1.997446,1.665119 0.344033,0.08206 0.483578,0.08322 0.814693,0.0068 z M 65.013311,46.136593 c 0.100736,-0.027 0.252212,-0.08826 0.336612,-0.136113 0.287725,-0.16315 0.939664,-0.835149 1.16193,-1.197681 0.197,-0.321323 0.489185,-1.04873 0.489525,-1.218697 1.19e-4,-0.05926 -0.127111,-0.07068 -1.010151,-0.09067 -0.79541,-0.01801 -1.142078,-0.04517 -1.62993,-0.127716 -0.776539,-0.131388 -1.644838,-0.352274 -2.247053,-0.571626 -0.25522,-0.09296 -0.475659,-0.159986 -0.489865,-0.148944 -0.04844,0.03765 0.258408,0.921891 0.465634,1.341805 0.406193,0.823096 0.86058,1.397111 1.438679,1.817445 0.478387,0.347835 0.995036,0.46344 1.484619,0.3322 z m -1.728776,-1.478448 c -0.15234,-0.19159 -0.195353,-0.436237 -0.09501,-0.540387 0.170329,-0.176789 0.436348,0.108641 0.441611,0.473835 0.0024,0.164023 -0.01354,0.192897 -0.112273,0.203841 -0.08309,0.0092 -0.148151,-0.02891 -0.234328,-0.137289 z M 79.99987,43.977553 c -0.14189,-0.01366 -0.198832,-0.05073 -0.295288,-0.192231 -0.109141,-0.160106 -0.121204,-0.245948 -0.139166,-0.990317 -0.0122,-0.505559 0.0023,-0.872022 0.03821,-0.965153 0.114975,-0.298277 0.657212,-0.669859 0.977504,-0.669859 0.06237,0 0.338298,0.09423 0.613163,0.209404 0.641255,0.268695 0.91586,0.284691 1.192743,0.06948 0.22427,-0.174318 0.275219,-0.324574 0.193131,-0.569574 -0.09874,-0.294702 -0.318581,-0.501949 -0.789216,-0.744006 -0.236437,-0.121604 -0.472316,-0.26102 -0.524178,-0.309813 -0.119532,-0.112462 -0.12218,-0.376529 -0.0055,-0.552675 0.122126,-0.184434 1.448877,-1.206848 1.774417,-1.367393 0.712748,-0.351502 1.851554,-0.393282 2.353575,-0.08635 0.119632,0.07314 0.140561,0.07532 0.169056,0.0176 0.05609,-0.113623 0.03897,-0.13032 -0.223417,-0.217835 -0.792592,-0.264356 -1.738716,-0.201214 -2.413093,0.161045 -0.38194,0.205169 -1.774479,1.263977 -1.894685,1.440611 -0.107905,0.158558 -0.104024,0.520654 0.0074,0.688095 0.05114,0.07686 0.201572,0.179839 0.368182,0.252031 0.570106,0.247028 0.696372,0.321687 0.851084,0.503236 0.204894,0.240435 0.211097,0.450701 0.01855,0.628568 -0.234296,0.216427 -0.520368,0.176128 -1.118029,-0.157499 -0.224181,-0.125142 -0.319754,-0.152754 -0.518921,-0.149919 -0.455988,0.0065 -0.918968,0.280458 -1.144935,0.677515 -0.265138,0.465886 -0.257003,1.807214 0.01323,2.180933 0.12349,0.170783 0.131849,0.174296 0.399091,0.167734 0.196298,-0.0048 0.223588,-0.01146 0.09717,-0.02363 z m 3.364693,-2.071558 c -0.0172,-0.03341 -0.02997,-0.02349 -0.03255,0.0253 -0.0023,0.04415 0.01039,0.06888 0.0283,0.05497 0.0179,-0.01392 0.01982,-0.05004 0.0043,-0.08027 z m -0.05388,-0.293166 c -0.0172,-0.03341 -0.02997,-0.02349 -0.03255,0.0253 -0.0023,0.04415 0.01039,0.06889 0.0283,0.05497 0.0179,-0.01392 0.01982,-0.05004 0.0043,-0.08027 z m -0.05501,-0.379544 c -0.01495,-0.02879 -0.02718,-0.0052 -0.02718,0.05235 0,0.05759 0.01223,0.08114 0.02718,0.05235 0.01495,-0.02879 0.01495,-0.07591 0,-0.104702 z m -0.05734,-0.726849 c -0.01586,-0.03213 -0.05991,-0.05693 -0.09788,-0.05511 -0.05408,0.0026 -0.05445,0.0079 -0.0017,0.02443 0.03833,0.01202 0.07125,0.105325 0.07641,0.216568 0.0088,0.188991 0.0098,0.190113 0.03053,0.03399 0.01181,-0.0888 0.0085,-0.187745 -0.0074,-0.219875 z m -0.02535,-0.424874 c 0.06702,-0.06643 0.06512,-0.06791 -0.02034,-0.01581 -0.05186,0.03161 -0.09429,0.0646 -0.09429,0.07329 0,0.03447 0.04425,0.01228 0.114637,-0.05748 z m 0.639711,-0.450219 c 0.190916,-0.149723 0.334996,-0.272225 0.320179,-0.272225 -0.01482,0 -0.183145,0.122502 -0.374061,0.272225 -0.190916,0.149724 -0.334996,0.272226 -0.320179,0.272226 0.01482,0 0.183145,-0.122502 0.374061,-0.272226 z M 66.920691,39.07812 c 0.449722,-0.181568 0.513211,-0.347275 0.406474,-1.060904 -0.06107,-0.408326 -0.05897,-0.433582 0.04262,-0.512549 0.0784,-0.06093 0.145255,-0.07557 0.250995,-0.05494 0.119802,0.02337 0.189578,0.103837 0.413333,0.476655 0.404892,0.674629 0.626395,0.821031 1.238053,0.818288 0.704939,-0.0032 1.384403,-0.371612 1.789046,-0.970138 0.180197,-0.266538 0.435165,-0.764937 0.399174,-0.780286 -0.0075,-0.0032 -0.08327,-0.03975 -0.16842,-0.08123 -0.08514,-0.04149 -0.137558,-0.05373 -0.116473,-0.02722 0.06309,0.07934 -0.07914,0.464554 -0.285822,0.774119 -0.224636,0.336458 -0.712786,0.765728 -0.96333,0.847134 -0.224509,0.07295 -0.778557,0.07234 -1.000278,-0.0011 -0.252208,-0.08353 -0.391622,-0.220426 -0.573387,-0.563035 -0.205579,-0.387494 -0.332958,-0.524834 -0.566744,-0.611064 -0.225441,-0.08315 -0.404397,-0.05628 -0.577253,0.08667 -0.13542,0.111994 -0.145039,0.20247 -0.09519,0.895324 0.0395,0.548985 -0.168231,0.669927 -1.204677,0.70137 -0.765242,0.02322 -1.122332,-0.02476 -1.832688,-0.246211 -1.115728,-0.34783 -1.72969,-0.666792 -1.90477,-0.989554 -0.225348,-0.415432 0.09188,-1.022419 0.705986,-1.350826 0.323052,-0.17276 0.391274,-0.3188 0.258076,-0.552453 -0.209053,-0.366717 -0.567883,-0.36632 -1.269688,0.0014 -0.494814,0.259269 -0.563188,0.274616 -0.775772,0.17413 -0.383185,-0.181125 -0.56692,-0.779089 -0.459213,-1.494498 0.03404,-0.226077 0.08847,-0.417938 0.120968,-0.426358 0.06676,-0.0173 -0.10027,-0.129061 -0.196018,-0.131158 -0.0809,-0.0018 -0.181832,0.541337 -0.181027,0.974108 0.0011,0.59055 0.220825,1.012308 0.642444,1.233153 0.252097,0.132049 0.432912,0.119364 0.738494,-0.05181 0.758692,-0.424984 0.837967,-0.448443 1.058914,-0.313356 0.243356,0.148788 0.195308,0.250828 -0.315299,0.66961 -0.253629,0.208018 -0.496098,0.443239 -0.53882,0.522714 -0.04272,0.07948 -0.07768,0.27334 -0.07768,0.430811 0,0.242995 0.02329,0.314857 0.153947,0.474993 0.232001,0.284346 0.499231,0.434915 1.329546,0.749123 1.078327,0.408061 1.609932,0.504135 2.692361,0.486573 0.531968,-0.0086 0.684789,-0.02591 0.862111,-0.09751 z m 17.545459,-0.0017 c 0.06702,-0.06643 0.06512,-0.06791 -0.02034,-0.01581 -0.05186,0.03161 -0.09429,0.06459 -0.09429,0.07329 0,0.03447 0.04425,0.01228 0.114637,-0.05748 z M 71.02807,36.820963 c -0.01791,-0.01392 -0.06438,-0.0154 -0.103274,-0.0033 -0.04298,0.01337 -0.03022,0.02329 0.03255,0.0253 0.0568,0.0018 0.08863,-0.0081 0.07072,-0.022 z m -0.484938,-0.04188 c -0.0179,-0.01392 -0.06438,-0.0154 -0.103274,-0.0033 -0.04298,0.01337 -0.03021,0.02329 0.03255,0.0253 0.0568,0.0018 0.08863,-0.0081 0.07072,-0.022 z m -0.377174,-0.04188 c -0.0179,-0.01392 -0.06438,-0.01541 -0.103273,-0.0033 -0.04298,0.01337 -0.03022,0.02329 0.03255,0.0253 0.0568,0.0018 0.08863,-0.0081 0.07072,-0.022 z m -2.424689,-0.335047 c -0.0179,-0.01392 -0.06438,-0.0154 -0.103274,-0.0033 -0.04298,0.01337 -0.03021,0.02329 0.03255,0.0253 0.0568,0.0018 0.08863,-0.0081 0.07072,-0.022 z m 8.150772,-0.537189 c 1.805842,-0.17671 3.320436,-0.529938 5.708737,-1.331371 1.682565,-0.564612 2.904142,-1.087408 3.74156,-1.601269 0.572665,-0.351402 1.581718,-1.076746 1.742996,-1.252929 0.1797,-0.196309 0.282185,-0.535157 0.28293,-0.935458 0.001,-0.556421 -0.459834,-1.848023 -0.94211,-2.640293 -0.1297,-0.213068 -0.267665,-0.386467 -0.306589,-0.38533 -0.03892,0.0011 -0.357874,0.283833 -0.70878,0.628213 -0.558887,0.548493 -0.789862,0.720667 -0.789862,0.58878 0,-0.08426 0.549682,-0.787621 1.230905,-1.575047 1.057187,-1.222002 2.074857,-2.264976 5.986683,-6.135539 1.744259,-1.725861 3.022366,-3.206815 3.983694,-4.615942 0.66893,-0.980526 0.852183,-1.715436 0.52464,-2.103988 -0.221305,-0.262526 -0.749874,-0.430577 -1.189993,-0.378342 -0.493098,0.05852 -1.461266,0.345916 -2.406467,0.714341 -1.022318,0.398483 -3.261999,1.457443 -4.6189,2.183895 -2.132717,1.141804 -5.961791,3.524575 -7.668946,4.77226 -0.324411,0.237098 -0.421585,0.270965 -0.421585,0.14693 0,-0.150322 0.347367,-0.479493 1.059176,-1.003692 0.397424,-0.292676 0.757312,-0.572902 0.799751,-0.622724 0.06911,-0.08113 0.06031,-0.129218 -0.0843,-0.460689 -0.788065,-1.806428 -1.308373,-4.25789 -1.456341,-6.861629 -0.07428,-1.306994 -0.0335,-5.8358559 0.05656,-6.2821219 0.07811,-0.387047 0.283011,-0.716458 0.831973,-1.337523 0.57176,-0.646858 0.738073,-0.904013 0.967657,-1.496204 0.337985,-0.8718026 0.374407,-1.3333683 0.138006,-1.7489118 -0.292279,-0.5137656 -0.797807,-0.6618754 -1.573305,-0.4609478 -0.481886,0.1248538 -1.511867,0.5531404 -1.951523,0.8114816 -0.963274,0.5660191 -2.451569,1.637529 -3.15847,2.273966 -0.831324,0.748457 -1.66571,1.659847 -2.357728,2.57532 -0.290393,0.384162 -0.97658,1.358465 -0.97658,1.386627 0,0.0099 0.126493,0.0154 0.281097,0.01223 0.23233,-0.0048 0.284563,0.0075 0.301074,0.07065 0.01099,0.04202 -0.02241,0.112814 -0.07422,0.15731 -0.05181,0.0445 -0.08424,0.0855 -0.07207,0.09112 0.01217,0.0056 0.07061,0.03098 0.129884,0.05637 0.168239,0.07206 0.164607,0.218017 -0.009,0.360065 -0.18173,0.148728 -0.419535,0.247941 -0.83947,0.35023 -0.170286,0.04148 -0.354596,0.114402 -0.409576,0.162051 -0.105785,0.09168 -0.816491,1.2557279 -0.816391,1.3371469 3.2e-5,0.02629 0.181752,0.11129 0.403822,0.188896 0.480589,0.167951 0.797127,0.374305 1.080859,0.704622 0.114884,0.133748 0.225505,0.259228 0.245824,0.278845 0.02032,0.01962 0.235003,-0.09736 0.477076,-0.259954 0.950948,-0.638717 1.680985,-0.764314 2.581015,-0.444042 1.098059,0.39074 1.677183,1.251634 1.677183,2.493209 0,2.125848 -2.113907,3.963568 -3.993207,3.471486 -0.550595,-0.144169 -0.975376,-0.390179 -1.32292,-0.766163 -0.110057,-0.119064 -0.208267,-0.224799 -0.218244,-0.234967 -0.01,-0.01017 -0.144836,0.07825 -0.299687,0.19648 -0.547927,0.418353 -1.298897,0.680564 -1.949129,0.680564 -0.553967,0 -1.226239,-0.225628 -1.6171,-0.542732 -0.08634,-0.07005 -0.184391,-0.127361 -0.217888,-0.127361 -0.0335,0 -0.104503,0.108366 -0.157794,0.240814 -0.199419,0.49563 -1.11198,2.23733 -1.434264,2.737414 -1.082476,1.679662 -2.583317,3.582429 -4.73671,6.005206 -1.032235,1.161364 -1.799046,2.087493 -2.063238,2.491909 -0.265734,0.406776 -0.35219,0.741663 -0.41518,1.608196 -0.04695,0.64594 -0.04265,0.727208 0.04924,0.930419 0.140369,0.310423 0.36908,0.561095 1.110774,1.217432 1.086537,0.961495 1.931894,1.463569 3.43899,2.042481 1.03063,0.39589 2.699979,0.939184 3.400197,1.106603 1.064596,0.25454 2.679839,0.488714 4.06809,0.589782 0.806909,0.05874 4.165062,0.01934 4.957142,-0.05817 z M 66.43505,34.093128 c -1.057893,-0.294386 -1.597364,-0.965075 -1.229997,-1.529174 0.04125,-0.06335 0.112239,-0.115172 0.157746,-0.115172 0.06702,0 0.07611,0.03438 0.04783,0.180971 -0.0969,0.502239 0.457569,1.046893 1.247449,1.225373 0.262467,0.05931 0.316634,0.05931 0.57895,3.7e-5 0.159166,-0.03596 0.52086,-0.159803 0.803765,-0.275197 0.549422,-0.224103 0.631067,-0.243579 0.631067,-0.150544 0,0.101065 -0.492854,0.405958 -0.903087,0.558674 -0.488781,0.181957 -0.931888,0.216852 -1.333719,0.105032 z m -0.0188,-0.980982 c -0.129266,-0.04973 -0.280718,-0.148662 -0.336561,-0.219841 -0.122184,-0.155742 -0.131882,-0.391653 -0.02115,-0.514531 0.0877,-0.09732 0.406443,-0.264039 0.504808,-0.264039 0.08966,0 0.07435,0.124288 -0.01874,0.152053 -0.116714,0.03481 -0.297441,0.280754 -0.297441,0.404772 0,0.196727 0.219948,0.280792 0.734673,0.280792 0.398115,0 0.45073,0.0088 0.45073,0.07539 0,0.130403 -0.117788,0.175901 -0.455302,0.175866 -0.225433,-2.2e-5 -0.398483,-0.02793 -0.561016,-0.09046 z m 5.380331,-1.689845 c -0.15893,-0.148846 0.06603,-0.612277 0.311027,-0.640723 0.224692,-0.02609 0.195569,0.355781 -0.04528,0.593776 -0.128401,0.126877 -0.172147,0.134606 -0.265744,0.04695 z m -10.48778,-2.158617 c -0.156893,-0.121948 0.226714,-0.542295 0.494896,-0.542295 0.273025,0 0.125365,0.396598 -0.195709,0.525651 -0.179927,0.07232 -0.224375,0.07479 -0.299187,0.01664 z m 5.018889,-3.390565 c -0.104844,-0.131857 0.317153,-0.47389 0.55795,-0.452223 0.223889,0.02014 0.213808,0.164026 -0.02408,0.343598 -0.198624,0.149936 -0.458917,0.202897 -0.533875,0.108625 z m 2.802161,-1.424832 c -1.088275,-0.09574 -2.147894,-0.492726 -3.009481,-1.127507 -0.329549,-0.242798 -0.465907,-0.401402 -0.465907,-0.541915 0,-0.195515 0.209138,-0.142836 0.600172,0.151175 0.187912,0.141288 0.276964,0.181258 0.358835,0.161061 0.164147,-0.04049 0.847951,-0.619148 1.124927,-0.951945 0.299346,-0.359675 0.475102,-0.688191 0.643334,-1.202498 0.135397,-0.413924 0.173241,-0.997033 0.07742,-1.192924 -0.02822,-0.05769 -0.166806,-0.155642 -0.309821,-0.218985 -0.390069,-0.172764 -0.609,-0.307667 -0.609,-0.375257 0,-0.09705 0.198122,-0.07143 0.639802,0.08272 0.769102,0.268432 1.826945,0.380173 3.287753,0.347286 1.117235,-0.02515 1.920587,-0.133932 3.157926,-0.427609 0.615051,-0.14598 1.745019,-0.482921 2.209161,-0.658742 0.272008,-0.103039 0.727165,-0.337611 0.727303,-0.374827 5.7e-5,-0.01549 -0.08498,-0.04999 -0.188976,-0.07667 -0.356562,-0.09147 -0.469849,-0.294179 -0.214867,-0.38448 0.117261,-0.04153 0.192897,-0.02517 0.579231,0.12524 0.488225,0.190084 1.130565,0.548485 1.261595,0.703921 0.09229,0.109477 0.06391,0.225539 -0.05515,0.225539 -0.04206,0 -0.202579,-0.06743 -0.356715,-0.149839 -0.154136,-0.08241 -0.286042,-0.143662 -0.293124,-0.136113 -0.0071,0.0076 -0.05523,0.192767 -0.106996,0.411594 -0.280483,1.185681 -1.222203,2.664602 -2.340363,3.675416 -0.775856,0.701372 -2.263197,1.432405 -3.4572,1.699225 -0.984863,0.220083 -2.332564,0.317704 -3.25986,0.236129 z m 2.366824,-0.444775 c 0.980199,-0.143586 1.832276,-0.419421 2.725023,-0.882145 0.550819,-0.285498 1.131522,-0.67632 1.131522,-0.761531 0,-0.116364 -0.661104,-0.15998 -1.313617,-0.08666 -0.540711,0.06075 -1.710676,0.432174 -2.062043,0.654622 -0.440821,0.279082 -0.445169,0.106111 -0.0066,-0.263683 0.193271,-0.162974 0.205244,-0.185004 0.115178,-0.211933 -0.05528,-0.01653 -0.306613,-0.0299 -0.558511,-0.02971 -1.077062,8.07e-4 -2.310292,0.506746 -2.851227,1.16973 -0.231555,0.2838 -0.219493,0.336648 0.08978,0.393346 0.735677,0.13487 1.881037,0.142408 2.730528,0.01797 z m 16.767579,-1.79693 c -0.08461,-0.17138 0.343903,-0.580971 0.580362,-0.554736 0.191694,0.02127 0.164687,0.170026 -0.07336,0.404107 -0.226744,0.222961 -0.440005,0.286322 -0.506997,0.150629 z M 76.393651,10.667345 C 76.22156,10.550294 75.797101,10.305092 75.450408,10.122452 75.103715,9.9398111 74.802804,9.7686791 74.781716,9.7421571 c -0.05895,-0.07414 0.184365,-0.202178 0.384208,-0.202178 0.174674,0 0.176837,-0.0023 0.117941,-0.123544 -0.05038,-0.103749 -0.04398,-0.137301 0.03997,-0.209404 0.141349,-0.121401 0.299435,-0.107562 0.744665,0.06519 0.543679,0.210952 1.134032,0.563038 1.242807,0.7412069 0.110277,0.180632 0.111079,0.215711 0.0068,0.296778 -0.06252,0.0486 -0.115856,0.05442 -0.219036,0.02393 -0.225118,-0.06653 -0.244376,-0.048 -0.13047,0.125549 0.13102,0.199619 0.135684,0.268001 0.02419,0.354664 -0.13978,0.108647 -0.270362,0.07661 -0.599122,-0.147007 z m 2.039053,-4.9936529 c -0.09534,-0.08929 0.03004,-0.353889 0.257476,-0.543409 0.335198,-0.279312 0.503309,-0.132164 0.267054,0.233753 -0.205414,0.31815 -0.395587,0.430418 -0.52453,0.309656 z M 60.900415,25.674562 c 0.387676,-0.410197 1.683857,-1.930075 2.368369,-2.777107 0.878829,-1.087485 2.385681,-3.078592 2.385681,-3.152363 0,-0.01486 -0.163667,-0.09123 -0.363704,-0.1697 -0.378109,-0.148328 -1.998266,-1.040637 -2.909726,-1.602545 -0.610012,-0.376067 -1.3809,-0.87631 -2.922998,-1.896783 -1.819042,-1.20374 -2.852107,-1.826202 -4.172379,-2.514023 -1.344789,-0.700593 -1.9517,-0.756071 -2.307256,-0.210908 -0.407002,0.624045 -0.31512,1.170951 0.485492,2.889776 0.697772,1.498041 1.328732,2.560794 2.455414,4.135764 0.275995,0.385808 0.619509,0.871087 0.763364,1.078397 0.508992,0.733508 1.182447,1.601877 1.896103,2.444878 1.197289,1.41429 1.817183,2.05731 1.983321,2.05731 0.03913,0 0.191373,-0.127213 0.338319,-0.282696 z m -1.307673,-7.373514 c -0.357609,-0.117975 -0.457997,-0.174584 -0.457997,-0.258266 0,-0.108928 0.06725,-0.132549 0.24975,-0.08772 0.0849,0.02085 0.216872,0.04844 0.293269,0.06131 0.0764,0.01287 0.205915,0.07166 0.287817,0.130661 0.121186,0.0873 0.136732,0.118676 0.0835,0.168534 -0.08303,0.07776 -0.186601,0.07447 -0.456335,-0.01452 z m 14.606176,-0.714722 c -0.02675,-0.03364 0.33781,-0.108584 0.493669,-0.101489 0.03673,0.0017 0.05093,-0.01688 0.03157,-0.04123 -0.02276,-0.02863 6.67e-4,-0.03357 0.06629,-0.014 0.05582,0.01665 0.08502,0.01747 0.0649,0.0018 -0.02013,-0.01564 0.104982,-0.09957 0.278019,-0.186496 0.173036,-0.08693 0.331338,-0.179088 0.35178,-0.204798 0.02044,-0.02571 0.0565,-0.03746 0.08013,-0.02611 0.04339,0.02084 0.258764,-0.138809 0.230917,-0.171175 -0.02334,-0.02713 0.347534,-0.392365 0.37598,-0.370254 0.01386,0.01077 0.02638,-0.004 0.02782,-0.03276 0.0046,-0.09234 0.382183,-0.611692 0.423675,-0.582786 0.022,0.01533 0.02503,0.0074 0.0067,-0.01758 -0.04829,-0.06597 0.07684,-0.354024 0.140496,-0.323443 0.02958,0.01421 0.03803,0.006 0.01876,-0.01821 -0.04378,-0.05506 0.01789,-0.309116 0.06907,-0.284529 0.02066,0.0099 0.02658,-0.04017 0.01314,-0.111331 -0.01344,-0.07116 -0.0025,-0.118865 0.02421,-0.106013 0.02707,0.013 0.03942,-0.0518 0.02784,-0.14615 -0.01144,-0.09323 2.38e-4,-0.15941 0.02595,-0.147059 0.02571,0.01235 0.04675,-0.181254 0.04675,-0.430234 0,-0.248979 -0.01492,-0.445525 -0.03315,-0.436767 -0.04759,0.02286 -0.110489,-0.439496 -0.06719,-0.493944 0.0216,-0.02716 0.01111,-0.03345 -0.02604,-0.01561 -0.05755,0.02765 -0.08543,-0.05246 -0.07608,-0.218667 0.0017,-0.03033 -0.01053,-0.04455 -0.02719,-0.0316 -0.03314,0.02576 -0.239667,-0.299938 -0.243762,-0.38442 -0.0014,-0.02879 -0.01388,-0.04354 -0.02774,-0.03276 -0.01386,0.01077 -0.107275,-0.06395 -0.207583,-0.166066 -0.179516,-0.182739 -0.59954,-0.439856 -0.718546,-0.439856 -0.03345,0 -0.04905,-0.01481 -0.03466,-0.03291 0.02907,-0.03656 0.04867,-0.03422 -0.674795,-0.08056 -0.30556,-0.01957 -0.507951,-0.01781 -0.4904,0.0043 0.01644,0.02067 -0.03518,0.02792 -0.114694,0.0161 -0.07952,-0.01182 -0.132099,-0.01178 -0.116847,7.2e-5 0.03095,0.02406 -0.49924,0.227925 -0.600239,0.230799 -0.0354,10e-4 -0.05964,0.0145 -0.05388,0.02999 0.0058,0.01549 -0.07261,0.08279 -0.17417,0.149559 -0.101555,0.06677 -0.323346,0.257065 -0.492869,0.422876 -0.169522,0.165812 -0.322838,0.293256 -0.340702,0.28321 -0.01786,-0.01005 -0.02226,-0.0072 -0.0098,0.0064 0.01249,0.01354 -0.08309,0.187874 -0.212384,0.387398 -0.129299,0.199523 -0.265394,0.451171 -0.302435,0.559218 -0.03704,0.108046 -0.08344,0.188714 -0.103124,0.179261 -0.01968,-0.0095 -0.02364,0.03216 -0.0088,0.09247 0.01483,0.06031 0.0052,0.09921 -0.02138,0.08643 -0.0275,-0.01321 -0.05637,0.268518 -0.06695,0.653399 -0.01023,0.372143 -0.03225,0.69547 -0.04893,0.718504 -0.01668,0.02304 -0.0093,0.02702 0.01632,0.0088 0.05519,-0.03908 0.198,0.465887 0.149136,0.52734 -0.02044,0.0257 -0.0059,0.0289 0.03718,0.0082 0.05267,-0.0253 0.06294,-0.01092 0.04029,0.05641 -0.01948,0.05791 -0.0098,0.08047 0.02694,0.06282 0.03675,-0.01765 0.04642,0.0049 0.02694,0.06282 -0.01672,0.0497 -0.0084,0.07981 0.01845,0.0669 0.02687,-0.01291 0.04886,0.0022 0.04886,0.03362 0,0.0314 0.07084,0.143924 0.157434,0.25005 0.08659,0.106126 0.141145,0.207069 0.121235,0.224318 -0.01991,0.01725 -0.0091,0.01936 0.02395,0.0047 0.03308,-0.01467 0.105824,0.01302 0.161646,0.06154 0.250481,0.217687 0.771088,0.396193 1.313839,0.45049 0.192628,0.01927 0.357726,0.03743 0.366883,0.04035 0.0092,0.0029 0.0035,-0.01118 -0.01249,-0.03134 z m 1.369832,-0.607375 c 0,-0.0087 0.04243,-0.04168 0.09429,-0.07329 0.08546,-0.0521 0.08737,-0.05061 0.02034,0.01581 -0.07039,0.06976 -0.114636,0.09195 -0.114636,0.05748 z M 73.649911,15.52977 c -0.284337,-0.0893 -0.481134,-0.43918 -0.436422,-0.775907 0.03192,-0.240384 0.280408,-0.666952 0.364881,-0.626373 0.02931,0.01408 0.04664,0.0037 0.03849,-0.02313 -0.0081,-0.0268 0.04581,-0.08452 0.119899,-0.128272 0.158862,-0.0938 0.523277,-0.162608 0.463577,-0.08753 -0.02441,0.0307 -0.009,0.03927 0.04271,0.02383 0.203488,-0.06069 0.63083,0.304868 0.549343,0.469924 -0.01956,0.03962 -0.0083,0.05133 0.03115,0.03238 0.04529,-0.02175 0.05336,0.04757 0.03022,0.25958 -0.03638,0.33334 -0.08109,0.446627 -0.161096,0.408193 -0.03193,-0.01534 -0.04068,-0.0072 -0.02011,0.01867 0.05152,0.0648 -0.280547,0.345485 -0.488697,0.413085 -0.195545,0.06351 -0.365464,0.06845 -0.53395,0.01554 z m -3.927357,1.80004 c -0.01892,-0.02379 0.02683,-0.04188 0.105931,-0.04188 0.07658,0 0.278045,-0.03946 0.447706,-0.0877 0.169661,-0.04823 0.337717,-0.08907 0.373457,-0.09074 0.03574,-0.0017 0.05524,-0.01529 0.04334,-0.03026 -0.02509,-0.03155 0.30287,-0.192156 0.363144,-0.177831 0.02223,0.0053 0.03435,-0.0052 0.02694,-0.02327 -0.01622,-0.03958 0.388109,-0.368205 0.439765,-0.357421 0.0681,0.01422 0.05406,-0.174466 -0.02965,-0.39827 -0.04597,-0.122926 -0.07143,-0.259662 -0.05656,-0.303857 0.01487,-0.0442 0.005,-0.06979 -0.02182,-0.05689 -0.05579,0.0268 -0.0658,-0.724348 -0.0141,-1.058848 0.0186,-0.12035 0.05448,-0.208891 0.07974,-0.196759 0.02526,0.01213 0.03184,-0.0065 0.01463,-0.04133 -0.04447,-0.09008 0.196477,-0.698655 0.263811,-0.666309 0.03124,0.01501 0.0383,0.0056 0.01642,-0.02192 -0.04846,-0.06095 0.234035,-0.557516 0.299327,-0.526151 0.02659,0.01277 0.04197,0.0077 0.03419,-0.0113 -0.02758,-0.06731 0.13262,-0.305265 0.187701,-0.278805 0.03317,0.01593 0.0397,0.0064 0.01605,-0.02331 -0.02195,-0.0276 -0.0083,-0.08234 0.03031,-0.121643 0.03862,-0.0393 0.04889,-0.05741 0.02284,-0.04023 -0.04617,0.03043 -0.255783,-0.272328 -0.260844,-0.376742 -0.0014,-0.02879 -0.0123,-0.04476 -0.02423,-0.03549 -0.03286,0.02554 -0.47423,-0.359532 -0.458757,-0.400234 0.0074,-0.01949 -0.0047,-0.03214 -0.02694,-0.02812 -0.07585,0.01372 -0.333464,-0.103217 -0.305333,-0.138596 0.01543,-0.0194 -0.01356,-0.02287 -0.06441,-0.0077 -0.05818,0.01735 -0.07941,0.01117 -0.05726,-0.01669 0.01936,-0.02435 0.0052,-0.04343 -0.03157,-0.0424 -0.166018,0.0046 -0.259407,-0.01423 -0.233229,-0.04716 0.01567,-0.01971 -0.035,-0.0264 -0.112593,-0.01487 -0.0776,0.01153 -0.12767,0.0041 -0.111278,-0.01652 0.01639,-0.02062 -0.0868,-0.03748 -0.229316,-0.03748 -0.142515,0 -0.245867,0.01667 -0.22967,0.03704 0.0162,0.02037 -0.04545,0.02849 -0.137004,0.01805 -0.09155,-0.01044 -0.15418,-0.0036 -0.139179,0.01531 0.015,0.01887 -0.01319,0.0343 -0.06266,0.0343 -0.281757,0 -1.091203,0.461274 -1.479549,0.843143 -0.111531,0.10967 -0.219673,0.186273 -0.240315,0.170228 -0.02064,-0.01605 -0.02971,-0.01033 -0.02015,0.01271 0.0096,0.02303 -0.08422,0.203046 -0.208384,0.400026 -0.124169,0.196979 -0.255847,0.445575 -0.292617,0.552435 -0.03677,0.106859 -0.0804,0.187785 -0.09695,0.179834 -0.01655,-0.0079 -0.03294,0.03557 -0.03643,0.09672 -0.0146,0.256043 -0.0922,0.672998 -0.122544,0.658421 -0.01802,-0.0087 -0.03276,0.122009 -0.03276,0.290368 0,0.168359 0.0151,0.298854 0.03355,0.289989 0.03179,-0.01527 0.128145,0.506709 0.122319,0.662615 -0.0015,0.04021 0.0092,0.0638 0.02389,0.05241 0.04286,-0.03332 0.224929,0.405261 0.18768,0.452107 -0.0209,0.02628 -0.0065,0.02946 0.0375,0.0083 0.05225,-0.0251 0.06186,-0.01503 0.03588,0.03758 -0.02391,0.04843 -0.01512,0.06209 0.02694,0.04188 0.04207,-0.02021 0.05085,-0.0066 0.02694,0.04188 -0.02107,0.04269 -0.01385,0.06148 0.01778,0.04628 0.05101,-0.02451 0.07813,0.03742 0.05516,0.125939 -0.006,0.02304 0.0032,0.03093 0.02043,0.01755 0.01722,-0.01338 0.143967,0.05958 0.28167,0.162135 0.298208,0.222092 0.721893,0.381787 1.126004,0.424411 0.161778,0.01706 0.310325,0.0436 0.330107,0.05898 0.05436,0.04226 0.08265,0.03349 0.04494,-0.01393 z m 0.122442,-2.261242 c -0.137918,-0.107199 -0.20354,-0.19064 -0.182865,-0.232519 0.01853,-0.03752 0.0096,-0.05443 -0.02102,-0.03973 -0.08605,0.04134 -0.06267,-0.403678 0.03264,-0.62108 0.05085,-0.116004 0.109211,-0.184759 0.143031,-0.168513 0.0337,0.01619 0.04127,0.0075 0.01845,-0.02119 -0.02127,-0.02675 0.01257,-0.104575 0.07521,-0.172943 0.247338,-0.269989 0.862636,-0.263178 1.082821,0.01199 0.0589,0.07361 0.09761,0.175665 0.08603,0.226796 -0.01158,0.05113 -3.17e-4,0.083 0.02504,0.07082 0.02535,-0.01218 0.0461,0.05547 0.0461,0.150322 0,0.09486 -0.02199,0.161906 -0.04886,0.148997 -0.02687,-0.01291 -0.03598,0.01481 -0.02024,0.0616 0.06804,0.202247 -0.37734,0.747298 -0.564928,0.691346 -0.03962,-0.01182 -0.05723,-0.0029 -0.03912,0.01991 0.01969,0.02476 -0.05756,0.0414 -0.192128,0.0414 -0.19064,0 -0.257935,-0.02556 -0.44016,-0.167201 z"
       id="path22-4" /></g></svg>
